%TF.GenerationSoftware,KiCad,Pcbnew,8.0.3*%
%TF.CreationDate,2024-10-06T18:51:10+08:00*%
%TF.ProjectId,Neko_Wireless_Transmission,4e656b6f-5f57-4697-9265-6c6573735f54,rev?*%
%TF.SameCoordinates,Original*%
%TF.FileFunction,Drillmap*%
%TF.FilePolarity,Positive*%
%FSLAX45Y45*%
G04 Gerber Fmt 4.5, Leading zero omitted, Abs format (unit mm)*
G04 Created by KiCad (PCBNEW 8.0.3) date 2024-10-06 18:51:10*
%MOMM*%
%LPD*%
G01*
G04 APERTURE LIST*
%ADD10C,0.050000*%
%ADD11C,0.100000*%
%ADD12C,0.200000*%
%ADD13C,0.150000*%
G04 APERTURE END LIST*
D10*
X2377066Y-6435066D02*
X2377066Y-8834934D01*
X4926934Y-6285066D02*
X2527066Y-6285066D01*
X5076934Y-8834934D02*
X5076934Y-6435066D01*
X2527066Y-8984934D02*
X4926934Y-8984934D01*
D11*
X5076934Y-8834934D02*
G75*
G02*
X4926934Y-8984934I-150000J0D01*
G01*
X2527066Y-8984934D02*
G75*
G02*
X2377066Y-8834934I0J150000D01*
G01*
X4926934Y-6285066D02*
G75*
G02*
X5076934Y-6435066I0J-150000D01*
G01*
X2377066Y-6435066D02*
G75*
G02*
X2527066Y-6285066I150000J0D01*
G01*
D12*
D11*
X2648500Y-7652500D02*
X2673500Y-7677500D01*
X2673500Y-7652500D02*
X2648500Y-7677500D01*
X2648500Y-7719500D02*
X2673500Y-7744500D01*
X2673500Y-7719500D02*
X2648500Y-7744500D01*
X2648500Y-7786500D02*
X2673500Y-7811500D01*
X2673500Y-7786500D02*
X2648500Y-7811500D01*
X2683500Y-8555500D02*
X2708500Y-8580500D01*
X2708500Y-8555500D02*
X2683500Y-8580500D01*
X2739500Y-8276500D02*
X2764500Y-8301500D01*
X2764500Y-8276500D02*
X2739500Y-8301500D01*
X2826500Y-8279500D02*
X2851500Y-8304500D01*
X2851500Y-8279500D02*
X2826500Y-8304500D01*
X2868500Y-7880500D02*
X2893500Y-7905500D01*
X2893500Y-7880500D02*
X2868500Y-7905500D01*
X2878500Y-8279500D02*
X2903500Y-8304500D01*
X2903500Y-8279500D02*
X2878500Y-8304500D01*
X2931000Y-6680500D02*
X2956000Y-6705500D01*
X2956000Y-6680500D02*
X2931000Y-6705500D01*
X2931500Y-6833500D02*
X2956500Y-6858500D01*
X2956500Y-6833500D02*
X2931500Y-6858500D01*
X2937500Y-6985500D02*
X2962500Y-7010500D01*
X2962500Y-6985500D02*
X2937500Y-7010500D01*
X3032500Y-6775500D02*
X3057500Y-6800500D01*
X3057500Y-6775500D02*
X3032500Y-6800500D01*
X3062500Y-7084500D02*
X3087500Y-7109500D01*
X3087500Y-7084500D02*
X3062500Y-7109500D01*
X3062500Y-7143500D02*
X3087500Y-7168500D01*
X3087500Y-7143500D02*
X3062500Y-7168500D01*
X3063500Y-8148500D02*
X3088500Y-8173500D01*
X3088500Y-8148500D02*
X3063500Y-8173500D01*
X3070500Y-8243500D02*
X3095500Y-8268500D01*
X3095500Y-8243500D02*
X3070500Y-8268500D01*
X3112500Y-8331500D02*
X3137500Y-8356500D01*
X3137500Y-8331500D02*
X3112500Y-8356500D01*
X3144500Y-7048500D02*
X3169500Y-7073500D01*
X3169500Y-7048500D02*
X3144500Y-7073500D01*
X3163500Y-6560500D02*
X3188500Y-6585500D01*
X3188500Y-6560500D02*
X3163500Y-6585500D01*
X3165500Y-6630500D02*
X3190500Y-6655500D01*
X3190500Y-6630500D02*
X3165500Y-6655500D01*
X3172500Y-8343500D02*
X3197500Y-8368500D01*
X3197500Y-8343500D02*
X3172500Y-8368500D01*
X3190500Y-7091500D02*
X3215500Y-7116500D01*
X3215500Y-7091500D02*
X3190500Y-7116500D01*
X3205500Y-8283500D02*
X3230500Y-8308500D01*
X3230500Y-8283500D02*
X3205500Y-8308500D01*
X3231500Y-6735500D02*
X3256500Y-6760500D01*
X3256500Y-6735500D02*
X3231500Y-6760500D01*
X3234500Y-7030500D02*
X3259500Y-7055500D01*
X3259500Y-7030500D02*
X3234500Y-7055500D01*
X3288500Y-8343500D02*
X3313500Y-8368500D01*
X3313500Y-8343500D02*
X3288500Y-8368500D01*
X3301842Y-8285002D02*
X3326842Y-8310002D01*
X3326842Y-8285002D02*
X3301842Y-8310002D01*
X3358128Y-8604245D02*
X3383128Y-8629245D01*
X3383128Y-8604245D02*
X3358128Y-8629245D01*
X3370500Y-6611500D02*
X3395500Y-6636500D01*
X3395500Y-6611500D02*
X3370500Y-6636500D01*
X3386500Y-8144500D02*
X3411500Y-8169500D01*
X3411500Y-8144500D02*
X3386500Y-8169500D01*
X3388500Y-8552500D02*
X3413500Y-8577500D01*
X3413500Y-8552500D02*
X3388500Y-8577500D01*
X3402500Y-7780500D02*
X3427500Y-7805500D01*
X3427500Y-7780500D02*
X3402500Y-7805500D01*
X3403500Y-7841500D02*
X3428500Y-7866500D01*
X3428500Y-7841500D02*
X3403500Y-7866500D01*
X3406500Y-7363500D02*
X3431500Y-7388500D01*
X3431500Y-7363500D02*
X3406500Y-7388500D01*
X3409500Y-7709500D02*
X3434500Y-7734500D01*
X3434500Y-7709500D02*
X3409500Y-7734500D01*
X3428500Y-7240500D02*
X3453500Y-7265500D01*
X3453500Y-7240500D02*
X3428500Y-7265500D01*
X3438009Y-7656705D02*
X3463009Y-7681705D01*
X3463009Y-7656705D02*
X3438009Y-7681705D01*
X3441500Y-8014500D02*
X3466500Y-8039500D01*
X3466500Y-8014500D02*
X3441500Y-8039500D01*
X3466500Y-6875500D02*
X3491500Y-6900500D01*
X3491500Y-6875500D02*
X3466500Y-6900500D01*
X3466500Y-6925500D02*
X3491500Y-6950500D01*
X3491500Y-6925500D02*
X3466500Y-6950500D01*
X3482500Y-6520500D02*
X3507500Y-6545500D01*
X3507500Y-6520500D02*
X3482500Y-6545500D01*
X3491500Y-8511500D02*
X3516500Y-8536500D01*
X3516500Y-8511500D02*
X3491500Y-8536500D01*
X3504500Y-8015500D02*
X3529500Y-8040500D01*
X3529500Y-8015500D02*
X3504500Y-8040500D01*
X3521500Y-8563500D02*
X3546500Y-8588500D01*
X3546500Y-8563500D02*
X3521500Y-8588500D01*
X3563500Y-8528500D02*
X3588500Y-8553500D01*
X3588500Y-8528500D02*
X3563500Y-8553500D01*
X3572500Y-6684500D02*
X3597500Y-6709500D01*
X3597500Y-6684500D02*
X3572500Y-6709500D01*
X3573500Y-6735500D02*
X3598500Y-6760500D01*
X3598500Y-6735500D02*
X3573500Y-6760500D01*
X3580500Y-8205500D02*
X3605500Y-8230500D01*
X3605500Y-8205500D02*
X3580500Y-8230500D01*
X3584500Y-7294500D02*
X3609500Y-7319500D01*
X3609500Y-7294500D02*
X3584500Y-7319500D01*
X3634500Y-8101500D02*
X3659500Y-8126500D01*
X3659500Y-8101500D02*
X3634500Y-8126500D01*
X3640500Y-8513500D02*
X3665500Y-8538500D01*
X3665500Y-8513500D02*
X3640500Y-8538500D01*
X3642500Y-6520500D02*
X3667500Y-6545500D01*
X3667500Y-6520500D02*
X3642500Y-6545500D01*
X3681500Y-7287500D02*
X3706500Y-7312500D01*
X3706500Y-7287500D02*
X3681500Y-7312500D01*
X3685500Y-7908500D02*
X3710500Y-7933500D01*
X3710500Y-7908500D02*
X3685500Y-7933500D01*
X3689657Y-8547903D02*
X3714657Y-8572903D01*
X3714657Y-8547903D02*
X3689657Y-8572903D01*
X3739500Y-8514500D02*
X3764500Y-8539500D01*
X3764500Y-8514500D02*
X3739500Y-8539500D01*
X3741500Y-7841500D02*
X3766500Y-7866500D01*
X3766500Y-7841500D02*
X3741500Y-7866500D01*
X3744500Y-7789500D02*
X3769500Y-7814500D01*
X3769500Y-7789500D02*
X3744500Y-7814500D01*
X3783500Y-6869500D02*
X3808500Y-6894500D01*
X3808500Y-6869500D02*
X3783500Y-6894500D01*
X3792500Y-8103500D02*
X3817500Y-8128500D01*
X3817500Y-8103500D02*
X3792500Y-8128500D01*
X3839500Y-8539500D02*
X3864500Y-8564500D01*
X3864500Y-8539500D02*
X3839500Y-8564500D01*
X3842500Y-7241500D02*
X3867500Y-7266500D01*
X3867500Y-7241500D02*
X3842500Y-7266500D01*
X3882500Y-8069500D02*
X3907500Y-8094500D01*
X3907500Y-8069500D02*
X3882500Y-8094500D01*
X3888500Y-6505500D02*
X3913500Y-6530500D01*
X3913500Y-6505500D02*
X3888500Y-6530500D01*
X3902500Y-7241500D02*
X3927500Y-7266500D01*
X3927500Y-7241500D02*
X3902500Y-7266500D01*
X3903500Y-8132500D02*
X3928500Y-8157500D01*
X3928500Y-8132500D02*
X3903500Y-8157500D01*
X3975512Y-6531920D02*
X4000512Y-6556920D01*
X4000512Y-6531920D02*
X3975512Y-6556920D01*
X3989154Y-6473492D02*
X4014154Y-6498492D01*
X4014154Y-6473492D02*
X3989154Y-6498492D01*
X4005067Y-6584137D02*
X4030067Y-6609137D01*
X4030067Y-6584137D02*
X4005067Y-6609137D01*
X4008500Y-8103500D02*
X4033500Y-8128500D01*
X4033500Y-8103500D02*
X4008500Y-8128500D01*
X4047500Y-6459500D02*
X4072500Y-6484500D01*
X4072500Y-6459500D02*
X4047500Y-6484500D01*
X4062500Y-6601500D02*
X4087500Y-6626500D01*
X4087500Y-6601500D02*
X4062500Y-6626500D01*
X4062500Y-7610500D02*
X4087500Y-7635500D01*
X4087500Y-7610500D02*
X4062500Y-7635500D01*
X4107500Y-6454500D02*
X4132500Y-6479500D01*
X4132500Y-6454500D02*
X4107500Y-6479500D01*
X4109500Y-8127500D02*
X4134500Y-8152500D01*
X4134500Y-8127500D02*
X4109500Y-8152500D01*
X4111000Y-6988000D02*
X4136000Y-7013000D01*
X4136000Y-6988000D02*
X4111000Y-7013000D01*
X4121168Y-7623072D02*
X4146168Y-7648072D01*
X4146168Y-7623072D02*
X4121168Y-7648072D01*
X4137500Y-8511500D02*
X4162500Y-8536500D01*
X4162500Y-8511500D02*
X4137500Y-8536500D01*
X4165500Y-7572500D02*
X4190500Y-7597500D01*
X4190500Y-7572500D02*
X4165500Y-7597500D01*
X4169500Y-7218500D02*
X4194500Y-7243500D01*
X4194500Y-7218500D02*
X4169500Y-7243500D01*
X4209500Y-8538500D02*
X4234500Y-8563500D01*
X4234500Y-8538500D02*
X4209500Y-8563500D01*
X4211500Y-7625500D02*
X4236500Y-7650500D01*
X4236500Y-7625500D02*
X4211500Y-7650500D01*
X4214500Y-7109500D02*
X4239500Y-7134500D01*
X4239500Y-7109500D02*
X4214500Y-7134500D01*
X4219500Y-7253500D02*
X4244500Y-7278500D01*
X4244500Y-7253500D02*
X4219500Y-7278500D01*
X4229500Y-8101500D02*
X4254500Y-8126500D01*
X4254500Y-8101500D02*
X4229500Y-8126500D01*
X4248500Y-6970500D02*
X4273500Y-6995500D01*
X4273500Y-6970500D02*
X4248500Y-6995500D01*
X4264500Y-7173500D02*
X4289500Y-7198500D01*
X4289500Y-7173500D02*
X4264500Y-7198500D01*
X4273500Y-7905500D02*
X4298500Y-7930500D01*
X4298500Y-7905500D02*
X4273500Y-7930500D01*
X4274500Y-7298500D02*
X4299500Y-7323500D01*
X4299500Y-7298500D02*
X4274500Y-7323500D01*
X4274500Y-8208500D02*
X4299500Y-8233500D01*
X4299500Y-8208500D02*
X4274500Y-8233500D01*
X4288500Y-8080500D02*
X4313500Y-8105500D01*
X4313500Y-8080500D02*
X4288500Y-8105500D01*
X4299500Y-7675500D02*
X4324500Y-7700500D01*
X4324500Y-7675500D02*
X4299500Y-7700500D01*
X4330500Y-7106500D02*
X4355500Y-7131500D01*
X4355500Y-7106500D02*
X4330500Y-7131500D01*
X4334500Y-7009500D02*
X4359500Y-7034500D01*
X4359500Y-7009500D02*
X4334500Y-7034500D01*
X4646500Y-7283500D02*
X4671500Y-7308500D01*
X4671500Y-7283500D02*
X4646500Y-7308500D01*
D13*
X2451000Y-8519000D02*
G75*
G02*
X2301000Y-8519000I-75000J0D01*
G01*
X2301000Y-8519000D02*
G75*
G02*
X2451000Y-8519000I75000J0D01*
G01*
X2452000Y-8284000D02*
G75*
G02*
X2302000Y-8284000I-75000J0D01*
G01*
X2302000Y-8284000D02*
G75*
G02*
X2452000Y-8284000I75000J0D01*
G01*
X5151000Y-8521000D02*
G75*
G02*
X5001000Y-8521000I-75000J0D01*
G01*
X5001000Y-8521000D02*
G75*
G02*
X5151000Y-8521000I75000J0D01*
G01*
X5152000Y-8286000D02*
G75*
G02*
X5002000Y-8286000I-75000J0D01*
G01*
X5002000Y-8286000D02*
G75*
G02*
X5152000Y-8286000I75000J0D01*
G01*
D12*
X2632843Y-9301418D02*
X2632843Y-9101418D01*
X2632843Y-9101418D02*
X2680462Y-9101418D01*
X2680462Y-9101418D02*
X2709033Y-9110942D01*
X2709033Y-9110942D02*
X2728081Y-9129989D01*
X2728081Y-9129989D02*
X2737605Y-9149037D01*
X2737605Y-9149037D02*
X2747129Y-9187132D01*
X2747129Y-9187132D02*
X2747129Y-9215704D01*
X2747129Y-9215704D02*
X2737605Y-9253799D01*
X2737605Y-9253799D02*
X2728081Y-9272846D01*
X2728081Y-9272846D02*
X2709033Y-9291894D01*
X2709033Y-9291894D02*
X2680462Y-9301418D01*
X2680462Y-9301418D02*
X2632843Y-9301418D01*
X2832843Y-9301418D02*
X2832843Y-9168084D01*
X2832843Y-9206180D02*
X2842367Y-9187132D01*
X2842367Y-9187132D02*
X2851890Y-9177608D01*
X2851890Y-9177608D02*
X2870938Y-9168084D01*
X2870938Y-9168084D02*
X2889986Y-9168084D01*
X2956652Y-9301418D02*
X2956652Y-9168084D01*
X2956652Y-9101418D02*
X2947128Y-9110942D01*
X2947128Y-9110942D02*
X2956652Y-9120465D01*
X2956652Y-9120465D02*
X2966176Y-9110942D01*
X2966176Y-9110942D02*
X2956652Y-9101418D01*
X2956652Y-9101418D02*
X2956652Y-9120465D01*
X3080462Y-9301418D02*
X3061414Y-9291894D01*
X3061414Y-9291894D02*
X3051890Y-9272846D01*
X3051890Y-9272846D02*
X3051890Y-9101418D01*
X3185224Y-9301418D02*
X3166176Y-9291894D01*
X3166176Y-9291894D02*
X3156652Y-9272846D01*
X3156652Y-9272846D02*
X3156652Y-9101418D01*
X3413795Y-9301418D02*
X3413795Y-9101418D01*
X3413795Y-9101418D02*
X3480462Y-9244275D01*
X3480462Y-9244275D02*
X3547128Y-9101418D01*
X3547128Y-9101418D02*
X3547128Y-9301418D01*
X3728081Y-9301418D02*
X3728081Y-9196656D01*
X3728081Y-9196656D02*
X3718557Y-9177608D01*
X3718557Y-9177608D02*
X3699509Y-9168084D01*
X3699509Y-9168084D02*
X3661414Y-9168084D01*
X3661414Y-9168084D02*
X3642367Y-9177608D01*
X3728081Y-9291894D02*
X3709033Y-9301418D01*
X3709033Y-9301418D02*
X3661414Y-9301418D01*
X3661414Y-9301418D02*
X3642367Y-9291894D01*
X3642367Y-9291894D02*
X3632843Y-9272846D01*
X3632843Y-9272846D02*
X3632843Y-9253799D01*
X3632843Y-9253799D02*
X3642367Y-9234751D01*
X3642367Y-9234751D02*
X3661414Y-9225227D01*
X3661414Y-9225227D02*
X3709033Y-9225227D01*
X3709033Y-9225227D02*
X3728081Y-9215704D01*
X3823319Y-9168084D02*
X3823319Y-9368084D01*
X3823319Y-9177608D02*
X3842367Y-9168084D01*
X3842367Y-9168084D02*
X3880462Y-9168084D01*
X3880462Y-9168084D02*
X3899509Y-9177608D01*
X3899509Y-9177608D02*
X3909033Y-9187132D01*
X3909033Y-9187132D02*
X3918557Y-9206180D01*
X3918557Y-9206180D02*
X3918557Y-9263323D01*
X3918557Y-9263323D02*
X3909033Y-9282370D01*
X3909033Y-9282370D02*
X3899509Y-9291894D01*
X3899509Y-9291894D02*
X3880462Y-9301418D01*
X3880462Y-9301418D02*
X3842367Y-9301418D01*
X3842367Y-9301418D02*
X3823319Y-9291894D01*
X4004271Y-9282370D02*
X4013795Y-9291894D01*
X4013795Y-9291894D02*
X4004271Y-9301418D01*
X4004271Y-9301418D02*
X3994748Y-9291894D01*
X3994748Y-9291894D02*
X4004271Y-9282370D01*
X4004271Y-9282370D02*
X4004271Y-9301418D01*
X4004271Y-9177608D02*
X4013795Y-9187132D01*
X4013795Y-9187132D02*
X4004271Y-9196656D01*
X4004271Y-9196656D02*
X3994748Y-9187132D01*
X3994748Y-9187132D02*
X4004271Y-9177608D01*
X4004271Y-9177608D02*
X4004271Y-9196656D01*
D11*
X2347066Y-9617434D02*
X2372066Y-9642434D01*
X2372066Y-9617434D02*
X2347066Y-9642434D01*
D12*
X2670938Y-9521418D02*
X2689986Y-9521418D01*
X2689986Y-9521418D02*
X2709033Y-9530942D01*
X2709033Y-9530942D02*
X2718557Y-9540465D01*
X2718557Y-9540465D02*
X2728081Y-9559513D01*
X2728081Y-9559513D02*
X2737605Y-9597608D01*
X2737605Y-9597608D02*
X2737605Y-9645227D01*
X2737605Y-9645227D02*
X2728081Y-9683323D01*
X2728081Y-9683323D02*
X2718557Y-9702370D01*
X2718557Y-9702370D02*
X2709033Y-9711894D01*
X2709033Y-9711894D02*
X2689986Y-9721418D01*
X2689986Y-9721418D02*
X2670938Y-9721418D01*
X2670938Y-9721418D02*
X2651890Y-9711894D01*
X2651890Y-9711894D02*
X2642367Y-9702370D01*
X2642367Y-9702370D02*
X2632843Y-9683323D01*
X2632843Y-9683323D02*
X2623319Y-9645227D01*
X2623319Y-9645227D02*
X2623319Y-9597608D01*
X2623319Y-9597608D02*
X2632843Y-9559513D01*
X2632843Y-9559513D02*
X2642367Y-9540465D01*
X2642367Y-9540465D02*
X2651890Y-9530942D01*
X2651890Y-9530942D02*
X2670938Y-9521418D01*
X2823319Y-9702370D02*
X2832843Y-9711894D01*
X2832843Y-9711894D02*
X2823319Y-9721418D01*
X2823319Y-9721418D02*
X2813795Y-9711894D01*
X2813795Y-9711894D02*
X2823319Y-9702370D01*
X2823319Y-9702370D02*
X2823319Y-9721418D01*
X2909033Y-9540465D02*
X2918557Y-9530942D01*
X2918557Y-9530942D02*
X2937605Y-9521418D01*
X2937605Y-9521418D02*
X2985224Y-9521418D01*
X2985224Y-9521418D02*
X3004271Y-9530942D01*
X3004271Y-9530942D02*
X3013795Y-9540465D01*
X3013795Y-9540465D02*
X3023319Y-9559513D01*
X3023319Y-9559513D02*
X3023319Y-9578561D01*
X3023319Y-9578561D02*
X3013795Y-9607132D01*
X3013795Y-9607132D02*
X2899509Y-9721418D01*
X2899509Y-9721418D02*
X3023319Y-9721418D01*
X3204271Y-9521418D02*
X3109033Y-9521418D01*
X3109033Y-9521418D02*
X3099509Y-9616656D01*
X3099509Y-9616656D02*
X3109033Y-9607132D01*
X3109033Y-9607132D02*
X3128081Y-9597608D01*
X3128081Y-9597608D02*
X3175700Y-9597608D01*
X3175700Y-9597608D02*
X3194748Y-9607132D01*
X3194748Y-9607132D02*
X3204271Y-9616656D01*
X3204271Y-9616656D02*
X3213795Y-9635704D01*
X3213795Y-9635704D02*
X3213795Y-9683323D01*
X3213795Y-9683323D02*
X3204271Y-9702370D01*
X3204271Y-9702370D02*
X3194748Y-9711894D01*
X3194748Y-9711894D02*
X3175700Y-9721418D01*
X3175700Y-9721418D02*
X3128081Y-9721418D01*
X3128081Y-9721418D02*
X3109033Y-9711894D01*
X3109033Y-9711894D02*
X3099509Y-9702370D01*
X3337605Y-9521418D02*
X3356652Y-9521418D01*
X3356652Y-9521418D02*
X3375700Y-9530942D01*
X3375700Y-9530942D02*
X3385224Y-9540465D01*
X3385224Y-9540465D02*
X3394748Y-9559513D01*
X3394748Y-9559513D02*
X3404271Y-9597608D01*
X3404271Y-9597608D02*
X3404271Y-9645227D01*
X3404271Y-9645227D02*
X3394748Y-9683323D01*
X3394748Y-9683323D02*
X3385224Y-9702370D01*
X3385224Y-9702370D02*
X3375700Y-9711894D01*
X3375700Y-9711894D02*
X3356652Y-9721418D01*
X3356652Y-9721418D02*
X3337605Y-9721418D01*
X3337605Y-9721418D02*
X3318557Y-9711894D01*
X3318557Y-9711894D02*
X3309033Y-9702370D01*
X3309033Y-9702370D02*
X3299509Y-9683323D01*
X3299509Y-9683323D02*
X3289986Y-9645227D01*
X3289986Y-9645227D02*
X3289986Y-9597608D01*
X3289986Y-9597608D02*
X3299509Y-9559513D01*
X3299509Y-9559513D02*
X3309033Y-9540465D01*
X3309033Y-9540465D02*
X3318557Y-9530942D01*
X3318557Y-9530942D02*
X3337605Y-9521418D01*
X3489986Y-9721418D02*
X3489986Y-9588084D01*
X3489986Y-9607132D02*
X3499509Y-9597608D01*
X3499509Y-9597608D02*
X3518557Y-9588084D01*
X3518557Y-9588084D02*
X3547129Y-9588084D01*
X3547129Y-9588084D02*
X3566176Y-9597608D01*
X3566176Y-9597608D02*
X3575700Y-9616656D01*
X3575700Y-9616656D02*
X3575700Y-9721418D01*
X3575700Y-9616656D02*
X3585224Y-9597608D01*
X3585224Y-9597608D02*
X3604271Y-9588084D01*
X3604271Y-9588084D02*
X3632843Y-9588084D01*
X3632843Y-9588084D02*
X3651890Y-9597608D01*
X3651890Y-9597608D02*
X3661414Y-9616656D01*
X3661414Y-9616656D02*
X3661414Y-9721418D01*
X3756652Y-9721418D02*
X3756652Y-9588084D01*
X3756652Y-9607132D02*
X3766176Y-9597608D01*
X3766176Y-9597608D02*
X3785224Y-9588084D01*
X3785224Y-9588084D02*
X3813795Y-9588084D01*
X3813795Y-9588084D02*
X3832843Y-9597608D01*
X3832843Y-9597608D02*
X3842367Y-9616656D01*
X3842367Y-9616656D02*
X3842367Y-9721418D01*
X3842367Y-9616656D02*
X3851890Y-9597608D01*
X3851890Y-9597608D02*
X3870938Y-9588084D01*
X3870938Y-9588084D02*
X3899509Y-9588084D01*
X3899509Y-9588084D02*
X3918557Y-9597608D01*
X3918557Y-9597608D02*
X3928081Y-9616656D01*
X3928081Y-9616656D02*
X3928081Y-9721418D01*
X4318557Y-9511894D02*
X4147129Y-9769037D01*
X4575700Y-9521418D02*
X4594748Y-9521418D01*
X4594748Y-9521418D02*
X4613795Y-9530942D01*
X4613795Y-9530942D02*
X4623319Y-9540465D01*
X4623319Y-9540465D02*
X4632843Y-9559513D01*
X4632843Y-9559513D02*
X4642367Y-9597608D01*
X4642367Y-9597608D02*
X4642367Y-9645227D01*
X4642367Y-9645227D02*
X4632843Y-9683323D01*
X4632843Y-9683323D02*
X4623319Y-9702370D01*
X4623319Y-9702370D02*
X4613795Y-9711894D01*
X4613795Y-9711894D02*
X4594748Y-9721418D01*
X4594748Y-9721418D02*
X4575700Y-9721418D01*
X4575700Y-9721418D02*
X4556653Y-9711894D01*
X4556653Y-9711894D02*
X4547129Y-9702370D01*
X4547129Y-9702370D02*
X4537605Y-9683323D01*
X4537605Y-9683323D02*
X4528081Y-9645227D01*
X4528081Y-9645227D02*
X4528081Y-9597608D01*
X4528081Y-9597608D02*
X4537605Y-9559513D01*
X4537605Y-9559513D02*
X4547129Y-9540465D01*
X4547129Y-9540465D02*
X4556653Y-9530942D01*
X4556653Y-9530942D02*
X4575700Y-9521418D01*
X4728081Y-9702370D02*
X4737605Y-9711894D01*
X4737605Y-9711894D02*
X4728081Y-9721418D01*
X4728081Y-9721418D02*
X4718557Y-9711894D01*
X4718557Y-9711894D02*
X4728081Y-9702370D01*
X4728081Y-9702370D02*
X4728081Y-9721418D01*
X4861414Y-9521418D02*
X4880462Y-9521418D01*
X4880462Y-9521418D02*
X4899510Y-9530942D01*
X4899510Y-9530942D02*
X4909034Y-9540465D01*
X4909034Y-9540465D02*
X4918557Y-9559513D01*
X4918557Y-9559513D02*
X4928081Y-9597608D01*
X4928081Y-9597608D02*
X4928081Y-9645227D01*
X4928081Y-9645227D02*
X4918557Y-9683323D01*
X4918557Y-9683323D02*
X4909034Y-9702370D01*
X4909034Y-9702370D02*
X4899510Y-9711894D01*
X4899510Y-9711894D02*
X4880462Y-9721418D01*
X4880462Y-9721418D02*
X4861414Y-9721418D01*
X4861414Y-9721418D02*
X4842367Y-9711894D01*
X4842367Y-9711894D02*
X4832843Y-9702370D01*
X4832843Y-9702370D02*
X4823319Y-9683323D01*
X4823319Y-9683323D02*
X4813795Y-9645227D01*
X4813795Y-9645227D02*
X4813795Y-9597608D01*
X4813795Y-9597608D02*
X4823319Y-9559513D01*
X4823319Y-9559513D02*
X4832843Y-9540465D01*
X4832843Y-9540465D02*
X4842367Y-9530942D01*
X4842367Y-9530942D02*
X4861414Y-9521418D01*
X5051891Y-9521418D02*
X5070938Y-9521418D01*
X5070938Y-9521418D02*
X5089986Y-9530942D01*
X5089986Y-9530942D02*
X5099510Y-9540465D01*
X5099510Y-9540465D02*
X5109034Y-9559513D01*
X5109034Y-9559513D02*
X5118557Y-9597608D01*
X5118557Y-9597608D02*
X5118557Y-9645227D01*
X5118557Y-9645227D02*
X5109034Y-9683323D01*
X5109034Y-9683323D02*
X5099510Y-9702370D01*
X5099510Y-9702370D02*
X5089986Y-9711894D01*
X5089986Y-9711894D02*
X5070938Y-9721418D01*
X5070938Y-9721418D02*
X5051891Y-9721418D01*
X5051891Y-9721418D02*
X5032843Y-9711894D01*
X5032843Y-9711894D02*
X5023319Y-9702370D01*
X5023319Y-9702370D02*
X5013795Y-9683323D01*
X5013795Y-9683323D02*
X5004272Y-9645227D01*
X5004272Y-9645227D02*
X5004272Y-9597608D01*
X5004272Y-9597608D02*
X5013795Y-9559513D01*
X5013795Y-9559513D02*
X5023319Y-9540465D01*
X5023319Y-9540465D02*
X5032843Y-9530942D01*
X5032843Y-9530942D02*
X5051891Y-9521418D01*
X5213795Y-9721418D02*
X5251891Y-9721418D01*
X5251891Y-9721418D02*
X5270938Y-9711894D01*
X5270938Y-9711894D02*
X5280462Y-9702370D01*
X5280462Y-9702370D02*
X5299510Y-9673799D01*
X5299510Y-9673799D02*
X5309034Y-9635704D01*
X5309034Y-9635704D02*
X5309034Y-9559513D01*
X5309034Y-9559513D02*
X5299510Y-9540465D01*
X5299510Y-9540465D02*
X5289986Y-9530942D01*
X5289986Y-9530942D02*
X5270938Y-9521418D01*
X5270938Y-9521418D02*
X5232843Y-9521418D01*
X5232843Y-9521418D02*
X5213795Y-9530942D01*
X5213795Y-9530942D02*
X5204272Y-9540465D01*
X5204272Y-9540465D02*
X5194748Y-9559513D01*
X5194748Y-9559513D02*
X5194748Y-9607132D01*
X5194748Y-9607132D02*
X5204272Y-9626180D01*
X5204272Y-9626180D02*
X5213795Y-9635704D01*
X5213795Y-9635704D02*
X5232843Y-9645227D01*
X5232843Y-9645227D02*
X5270938Y-9645227D01*
X5270938Y-9645227D02*
X5289986Y-9635704D01*
X5289986Y-9635704D02*
X5299510Y-9626180D01*
X5299510Y-9626180D02*
X5309034Y-9607132D01*
X5423319Y-9607132D02*
X5404272Y-9597608D01*
X5404272Y-9597608D02*
X5394748Y-9588084D01*
X5394748Y-9588084D02*
X5385224Y-9569037D01*
X5385224Y-9569037D02*
X5385224Y-9559513D01*
X5385224Y-9559513D02*
X5394748Y-9540465D01*
X5394748Y-9540465D02*
X5404272Y-9530942D01*
X5404272Y-9530942D02*
X5423319Y-9521418D01*
X5423319Y-9521418D02*
X5461415Y-9521418D01*
X5461415Y-9521418D02*
X5480462Y-9530942D01*
X5480462Y-9530942D02*
X5489986Y-9540465D01*
X5489986Y-9540465D02*
X5499510Y-9559513D01*
X5499510Y-9559513D02*
X5499510Y-9569037D01*
X5499510Y-9569037D02*
X5489986Y-9588084D01*
X5489986Y-9588084D02*
X5480462Y-9597608D01*
X5480462Y-9597608D02*
X5461415Y-9607132D01*
X5461415Y-9607132D02*
X5423319Y-9607132D01*
X5423319Y-9607132D02*
X5404272Y-9616656D01*
X5404272Y-9616656D02*
X5394748Y-9626180D01*
X5394748Y-9626180D02*
X5385224Y-9645227D01*
X5385224Y-9645227D02*
X5385224Y-9683323D01*
X5385224Y-9683323D02*
X5394748Y-9702370D01*
X5394748Y-9702370D02*
X5404272Y-9711894D01*
X5404272Y-9711894D02*
X5423319Y-9721418D01*
X5423319Y-9721418D02*
X5461415Y-9721418D01*
X5461415Y-9721418D02*
X5480462Y-9711894D01*
X5480462Y-9711894D02*
X5489986Y-9702370D01*
X5489986Y-9702370D02*
X5499510Y-9683323D01*
X5499510Y-9683323D02*
X5499510Y-9645227D01*
X5499510Y-9645227D02*
X5489986Y-9626180D01*
X5489986Y-9626180D02*
X5480462Y-9616656D01*
X5480462Y-9616656D02*
X5461415Y-9607132D01*
X5575700Y-9521418D02*
X5575700Y-9559513D01*
X5651891Y-9521418D02*
X5651891Y-9559513D01*
X5947129Y-9797608D02*
X5937605Y-9788084D01*
X5937605Y-9788084D02*
X5918557Y-9759513D01*
X5918557Y-9759513D02*
X5909034Y-9740465D01*
X5909034Y-9740465D02*
X5899510Y-9711894D01*
X5899510Y-9711894D02*
X5889986Y-9664275D01*
X5889986Y-9664275D02*
X5889986Y-9626180D01*
X5889986Y-9626180D02*
X5899510Y-9578561D01*
X5899510Y-9578561D02*
X5909034Y-9549989D01*
X5909034Y-9549989D02*
X5918557Y-9530942D01*
X5918557Y-9530942D02*
X5937605Y-9502370D01*
X5937605Y-9502370D02*
X5947129Y-9492846D01*
X6032843Y-9721418D02*
X6070938Y-9721418D01*
X6070938Y-9721418D02*
X6089986Y-9711894D01*
X6089986Y-9711894D02*
X6099510Y-9702370D01*
X6099510Y-9702370D02*
X6118557Y-9673799D01*
X6118557Y-9673799D02*
X6128081Y-9635704D01*
X6128081Y-9635704D02*
X6128081Y-9559513D01*
X6128081Y-9559513D02*
X6118557Y-9540465D01*
X6118557Y-9540465D02*
X6109034Y-9530942D01*
X6109034Y-9530942D02*
X6089986Y-9521418D01*
X6089986Y-9521418D02*
X6051891Y-9521418D01*
X6051891Y-9521418D02*
X6032843Y-9530942D01*
X6032843Y-9530942D02*
X6023319Y-9540465D01*
X6023319Y-9540465D02*
X6013795Y-9559513D01*
X6013795Y-9559513D02*
X6013795Y-9607132D01*
X6013795Y-9607132D02*
X6023319Y-9626180D01*
X6023319Y-9626180D02*
X6032843Y-9635704D01*
X6032843Y-9635704D02*
X6051891Y-9645227D01*
X6051891Y-9645227D02*
X6089986Y-9645227D01*
X6089986Y-9645227D02*
X6109034Y-9635704D01*
X6109034Y-9635704D02*
X6118557Y-9626180D01*
X6118557Y-9626180D02*
X6128081Y-9607132D01*
X6309034Y-9521418D02*
X6213795Y-9521418D01*
X6213795Y-9521418D02*
X6204272Y-9616656D01*
X6204272Y-9616656D02*
X6213795Y-9607132D01*
X6213795Y-9607132D02*
X6232843Y-9597608D01*
X6232843Y-9597608D02*
X6280462Y-9597608D01*
X6280462Y-9597608D02*
X6299510Y-9607132D01*
X6299510Y-9607132D02*
X6309034Y-9616656D01*
X6309034Y-9616656D02*
X6318557Y-9635704D01*
X6318557Y-9635704D02*
X6318557Y-9683323D01*
X6318557Y-9683323D02*
X6309034Y-9702370D01*
X6309034Y-9702370D02*
X6299510Y-9711894D01*
X6299510Y-9711894D02*
X6280462Y-9721418D01*
X6280462Y-9721418D02*
X6232843Y-9721418D01*
X6232843Y-9721418D02*
X6213795Y-9711894D01*
X6213795Y-9711894D02*
X6204272Y-9702370D01*
X6556653Y-9721418D02*
X6556653Y-9521418D01*
X6642367Y-9721418D02*
X6642367Y-9616656D01*
X6642367Y-9616656D02*
X6632843Y-9597608D01*
X6632843Y-9597608D02*
X6613796Y-9588084D01*
X6613796Y-9588084D02*
X6585224Y-9588084D01*
X6585224Y-9588084D02*
X6566176Y-9597608D01*
X6566176Y-9597608D02*
X6556653Y-9607132D01*
X6766176Y-9721418D02*
X6747129Y-9711894D01*
X6747129Y-9711894D02*
X6737605Y-9702370D01*
X6737605Y-9702370D02*
X6728081Y-9683323D01*
X6728081Y-9683323D02*
X6728081Y-9626180D01*
X6728081Y-9626180D02*
X6737605Y-9607132D01*
X6737605Y-9607132D02*
X6747129Y-9597608D01*
X6747129Y-9597608D02*
X6766176Y-9588084D01*
X6766176Y-9588084D02*
X6794748Y-9588084D01*
X6794748Y-9588084D02*
X6813796Y-9597608D01*
X6813796Y-9597608D02*
X6823319Y-9607132D01*
X6823319Y-9607132D02*
X6832843Y-9626180D01*
X6832843Y-9626180D02*
X6832843Y-9683323D01*
X6832843Y-9683323D02*
X6823319Y-9702370D01*
X6823319Y-9702370D02*
X6813796Y-9711894D01*
X6813796Y-9711894D02*
X6794748Y-9721418D01*
X6794748Y-9721418D02*
X6766176Y-9721418D01*
X6947129Y-9721418D02*
X6928081Y-9711894D01*
X6928081Y-9711894D02*
X6918557Y-9692846D01*
X6918557Y-9692846D02*
X6918557Y-9521418D01*
X7099510Y-9711894D02*
X7080462Y-9721418D01*
X7080462Y-9721418D02*
X7042367Y-9721418D01*
X7042367Y-9721418D02*
X7023319Y-9711894D01*
X7023319Y-9711894D02*
X7013796Y-9692846D01*
X7013796Y-9692846D02*
X7013796Y-9616656D01*
X7013796Y-9616656D02*
X7023319Y-9597608D01*
X7023319Y-9597608D02*
X7042367Y-9588084D01*
X7042367Y-9588084D02*
X7080462Y-9588084D01*
X7080462Y-9588084D02*
X7099510Y-9597608D01*
X7099510Y-9597608D02*
X7109034Y-9616656D01*
X7109034Y-9616656D02*
X7109034Y-9635704D01*
X7109034Y-9635704D02*
X7013796Y-9654751D01*
X7185224Y-9711894D02*
X7204272Y-9721418D01*
X7204272Y-9721418D02*
X7242367Y-9721418D01*
X7242367Y-9721418D02*
X7261415Y-9711894D01*
X7261415Y-9711894D02*
X7270938Y-9692846D01*
X7270938Y-9692846D02*
X7270938Y-9683323D01*
X7270938Y-9683323D02*
X7261415Y-9664275D01*
X7261415Y-9664275D02*
X7242367Y-9654751D01*
X7242367Y-9654751D02*
X7213796Y-9654751D01*
X7213796Y-9654751D02*
X7194748Y-9645227D01*
X7194748Y-9645227D02*
X7185224Y-9626180D01*
X7185224Y-9626180D02*
X7185224Y-9616656D01*
X7185224Y-9616656D02*
X7194748Y-9597608D01*
X7194748Y-9597608D02*
X7213796Y-9588084D01*
X7213796Y-9588084D02*
X7242367Y-9588084D01*
X7242367Y-9588084D02*
X7261415Y-9597608D01*
X7337605Y-9797608D02*
X7347129Y-9788084D01*
X7347129Y-9788084D02*
X7366177Y-9759513D01*
X7366177Y-9759513D02*
X7375700Y-9740465D01*
X7375700Y-9740465D02*
X7385224Y-9711894D01*
X7385224Y-9711894D02*
X7394748Y-9664275D01*
X7394748Y-9664275D02*
X7394748Y-9626180D01*
X7394748Y-9626180D02*
X7385224Y-9578561D01*
X7385224Y-9578561D02*
X7375700Y-9549989D01*
X7375700Y-9549989D02*
X7366177Y-9530942D01*
X7366177Y-9530942D02*
X7347129Y-9502370D01*
X7347129Y-9502370D02*
X7337605Y-9492846D01*
D13*
X2372066Y-9893934D02*
G75*
G02*
X2222066Y-9893934I-75000J0D01*
G01*
X2222066Y-9893934D02*
G75*
G02*
X2372066Y-9893934I75000J0D01*
G01*
D12*
X2737605Y-9985418D02*
X2623319Y-9985418D01*
X2680462Y-9985418D02*
X2680462Y-9785418D01*
X2680462Y-9785418D02*
X2661414Y-9813989D01*
X2661414Y-9813989D02*
X2642367Y-9833037D01*
X2642367Y-9833037D02*
X2623319Y-9842561D01*
X2823319Y-9966370D02*
X2832843Y-9975894D01*
X2832843Y-9975894D02*
X2823319Y-9985418D01*
X2823319Y-9985418D02*
X2813795Y-9975894D01*
X2813795Y-9975894D02*
X2823319Y-9966370D01*
X2823319Y-9966370D02*
X2823319Y-9985418D01*
X3013795Y-9785418D02*
X2918557Y-9785418D01*
X2918557Y-9785418D02*
X2909033Y-9880656D01*
X2909033Y-9880656D02*
X2918557Y-9871132D01*
X2918557Y-9871132D02*
X2937605Y-9861608D01*
X2937605Y-9861608D02*
X2985224Y-9861608D01*
X2985224Y-9861608D02*
X3004271Y-9871132D01*
X3004271Y-9871132D02*
X3013795Y-9880656D01*
X3013795Y-9880656D02*
X3023319Y-9899704D01*
X3023319Y-9899704D02*
X3023319Y-9947323D01*
X3023319Y-9947323D02*
X3013795Y-9966370D01*
X3013795Y-9966370D02*
X3004271Y-9975894D01*
X3004271Y-9975894D02*
X2985224Y-9985418D01*
X2985224Y-9985418D02*
X2937605Y-9985418D01*
X2937605Y-9985418D02*
X2918557Y-9975894D01*
X2918557Y-9975894D02*
X2909033Y-9966370D01*
X3147128Y-9785418D02*
X3166176Y-9785418D01*
X3166176Y-9785418D02*
X3185224Y-9794942D01*
X3185224Y-9794942D02*
X3194748Y-9804465D01*
X3194748Y-9804465D02*
X3204271Y-9823513D01*
X3204271Y-9823513D02*
X3213795Y-9861608D01*
X3213795Y-9861608D02*
X3213795Y-9909227D01*
X3213795Y-9909227D02*
X3204271Y-9947323D01*
X3204271Y-9947323D02*
X3194748Y-9966370D01*
X3194748Y-9966370D02*
X3185224Y-9975894D01*
X3185224Y-9975894D02*
X3166176Y-9985418D01*
X3166176Y-9985418D02*
X3147128Y-9985418D01*
X3147128Y-9985418D02*
X3128081Y-9975894D01*
X3128081Y-9975894D02*
X3118557Y-9966370D01*
X3118557Y-9966370D02*
X3109033Y-9947323D01*
X3109033Y-9947323D02*
X3099509Y-9909227D01*
X3099509Y-9909227D02*
X3099509Y-9861608D01*
X3099509Y-9861608D02*
X3109033Y-9823513D01*
X3109033Y-9823513D02*
X3118557Y-9804465D01*
X3118557Y-9804465D02*
X3128081Y-9794942D01*
X3128081Y-9794942D02*
X3147128Y-9785418D01*
X3337605Y-9785418D02*
X3356652Y-9785418D01*
X3356652Y-9785418D02*
X3375700Y-9794942D01*
X3375700Y-9794942D02*
X3385224Y-9804465D01*
X3385224Y-9804465D02*
X3394748Y-9823513D01*
X3394748Y-9823513D02*
X3404271Y-9861608D01*
X3404271Y-9861608D02*
X3404271Y-9909227D01*
X3404271Y-9909227D02*
X3394748Y-9947323D01*
X3394748Y-9947323D02*
X3385224Y-9966370D01*
X3385224Y-9966370D02*
X3375700Y-9975894D01*
X3375700Y-9975894D02*
X3356652Y-9985418D01*
X3356652Y-9985418D02*
X3337605Y-9985418D01*
X3337605Y-9985418D02*
X3318557Y-9975894D01*
X3318557Y-9975894D02*
X3309033Y-9966370D01*
X3309033Y-9966370D02*
X3299509Y-9947323D01*
X3299509Y-9947323D02*
X3289986Y-9909227D01*
X3289986Y-9909227D02*
X3289986Y-9861608D01*
X3289986Y-9861608D02*
X3299509Y-9823513D01*
X3299509Y-9823513D02*
X3309033Y-9804465D01*
X3309033Y-9804465D02*
X3318557Y-9794942D01*
X3318557Y-9794942D02*
X3337605Y-9785418D01*
X3489986Y-9985418D02*
X3489986Y-9852084D01*
X3489986Y-9871132D02*
X3499509Y-9861608D01*
X3499509Y-9861608D02*
X3518557Y-9852084D01*
X3518557Y-9852084D02*
X3547129Y-9852084D01*
X3547129Y-9852084D02*
X3566176Y-9861608D01*
X3566176Y-9861608D02*
X3575700Y-9880656D01*
X3575700Y-9880656D02*
X3575700Y-9985418D01*
X3575700Y-9880656D02*
X3585224Y-9861608D01*
X3585224Y-9861608D02*
X3604271Y-9852084D01*
X3604271Y-9852084D02*
X3632843Y-9852084D01*
X3632843Y-9852084D02*
X3651890Y-9861608D01*
X3651890Y-9861608D02*
X3661414Y-9880656D01*
X3661414Y-9880656D02*
X3661414Y-9985418D01*
X3756652Y-9985418D02*
X3756652Y-9852084D01*
X3756652Y-9871132D02*
X3766176Y-9861608D01*
X3766176Y-9861608D02*
X3785224Y-9852084D01*
X3785224Y-9852084D02*
X3813795Y-9852084D01*
X3813795Y-9852084D02*
X3832843Y-9861608D01*
X3832843Y-9861608D02*
X3842367Y-9880656D01*
X3842367Y-9880656D02*
X3842367Y-9985418D01*
X3842367Y-9880656D02*
X3851890Y-9861608D01*
X3851890Y-9861608D02*
X3870938Y-9852084D01*
X3870938Y-9852084D02*
X3899509Y-9852084D01*
X3899509Y-9852084D02*
X3918557Y-9861608D01*
X3918557Y-9861608D02*
X3928081Y-9880656D01*
X3928081Y-9880656D02*
X3928081Y-9985418D01*
X4318557Y-9775894D02*
X4147129Y-10033037D01*
X4575700Y-9785418D02*
X4594748Y-9785418D01*
X4594748Y-9785418D02*
X4613795Y-9794942D01*
X4613795Y-9794942D02*
X4623319Y-9804465D01*
X4623319Y-9804465D02*
X4632843Y-9823513D01*
X4632843Y-9823513D02*
X4642367Y-9861608D01*
X4642367Y-9861608D02*
X4642367Y-9909227D01*
X4642367Y-9909227D02*
X4632843Y-9947323D01*
X4632843Y-9947323D02*
X4623319Y-9966370D01*
X4623319Y-9966370D02*
X4613795Y-9975894D01*
X4613795Y-9975894D02*
X4594748Y-9985418D01*
X4594748Y-9985418D02*
X4575700Y-9985418D01*
X4575700Y-9985418D02*
X4556653Y-9975894D01*
X4556653Y-9975894D02*
X4547129Y-9966370D01*
X4547129Y-9966370D02*
X4537605Y-9947323D01*
X4537605Y-9947323D02*
X4528081Y-9909227D01*
X4528081Y-9909227D02*
X4528081Y-9861608D01*
X4528081Y-9861608D02*
X4537605Y-9823513D01*
X4537605Y-9823513D02*
X4547129Y-9804465D01*
X4547129Y-9804465D02*
X4556653Y-9794942D01*
X4556653Y-9794942D02*
X4575700Y-9785418D01*
X4728081Y-9966370D02*
X4737605Y-9975894D01*
X4737605Y-9975894D02*
X4728081Y-9985418D01*
X4728081Y-9985418D02*
X4718557Y-9975894D01*
X4718557Y-9975894D02*
X4728081Y-9966370D01*
X4728081Y-9966370D02*
X4728081Y-9985418D01*
X4861414Y-9785418D02*
X4880462Y-9785418D01*
X4880462Y-9785418D02*
X4899510Y-9794942D01*
X4899510Y-9794942D02*
X4909034Y-9804465D01*
X4909034Y-9804465D02*
X4918557Y-9823513D01*
X4918557Y-9823513D02*
X4928081Y-9861608D01*
X4928081Y-9861608D02*
X4928081Y-9909227D01*
X4928081Y-9909227D02*
X4918557Y-9947323D01*
X4918557Y-9947323D02*
X4909034Y-9966370D01*
X4909034Y-9966370D02*
X4899510Y-9975894D01*
X4899510Y-9975894D02*
X4880462Y-9985418D01*
X4880462Y-9985418D02*
X4861414Y-9985418D01*
X4861414Y-9985418D02*
X4842367Y-9975894D01*
X4842367Y-9975894D02*
X4832843Y-9966370D01*
X4832843Y-9966370D02*
X4823319Y-9947323D01*
X4823319Y-9947323D02*
X4813795Y-9909227D01*
X4813795Y-9909227D02*
X4813795Y-9861608D01*
X4813795Y-9861608D02*
X4823319Y-9823513D01*
X4823319Y-9823513D02*
X4832843Y-9804465D01*
X4832843Y-9804465D02*
X4842367Y-9794942D01*
X4842367Y-9794942D02*
X4861414Y-9785418D01*
X5109034Y-9785418D02*
X5013795Y-9785418D01*
X5013795Y-9785418D02*
X5004272Y-9880656D01*
X5004272Y-9880656D02*
X5013795Y-9871132D01*
X5013795Y-9871132D02*
X5032843Y-9861608D01*
X5032843Y-9861608D02*
X5080462Y-9861608D01*
X5080462Y-9861608D02*
X5099510Y-9871132D01*
X5099510Y-9871132D02*
X5109034Y-9880656D01*
X5109034Y-9880656D02*
X5118557Y-9899704D01*
X5118557Y-9899704D02*
X5118557Y-9947323D01*
X5118557Y-9947323D02*
X5109034Y-9966370D01*
X5109034Y-9966370D02*
X5099510Y-9975894D01*
X5099510Y-9975894D02*
X5080462Y-9985418D01*
X5080462Y-9985418D02*
X5032843Y-9985418D01*
X5032843Y-9985418D02*
X5013795Y-9975894D01*
X5013795Y-9975894D02*
X5004272Y-9966370D01*
X5213795Y-9985418D02*
X5251891Y-9985418D01*
X5251891Y-9985418D02*
X5270938Y-9975894D01*
X5270938Y-9975894D02*
X5280462Y-9966370D01*
X5280462Y-9966370D02*
X5299510Y-9937799D01*
X5299510Y-9937799D02*
X5309034Y-9899704D01*
X5309034Y-9899704D02*
X5309034Y-9823513D01*
X5309034Y-9823513D02*
X5299510Y-9804465D01*
X5299510Y-9804465D02*
X5289986Y-9794942D01*
X5289986Y-9794942D02*
X5270938Y-9785418D01*
X5270938Y-9785418D02*
X5232843Y-9785418D01*
X5232843Y-9785418D02*
X5213795Y-9794942D01*
X5213795Y-9794942D02*
X5204272Y-9804465D01*
X5204272Y-9804465D02*
X5194748Y-9823513D01*
X5194748Y-9823513D02*
X5194748Y-9871132D01*
X5194748Y-9871132D02*
X5204272Y-9890180D01*
X5204272Y-9890180D02*
X5213795Y-9899704D01*
X5213795Y-9899704D02*
X5232843Y-9909227D01*
X5232843Y-9909227D02*
X5270938Y-9909227D01*
X5270938Y-9909227D02*
X5289986Y-9899704D01*
X5289986Y-9899704D02*
X5299510Y-9890180D01*
X5299510Y-9890180D02*
X5309034Y-9871132D01*
X5499510Y-9985418D02*
X5385224Y-9985418D01*
X5442367Y-9985418D02*
X5442367Y-9785418D01*
X5442367Y-9785418D02*
X5423319Y-9813989D01*
X5423319Y-9813989D02*
X5404272Y-9833037D01*
X5404272Y-9833037D02*
X5385224Y-9842561D01*
X5575700Y-9785418D02*
X5575700Y-9823513D01*
X5651891Y-9785418D02*
X5651891Y-9823513D01*
X5947129Y-10061608D02*
X5937605Y-10052084D01*
X5937605Y-10052084D02*
X5918557Y-10023513D01*
X5918557Y-10023513D02*
X5909034Y-10004465D01*
X5909034Y-10004465D02*
X5899510Y-9975894D01*
X5899510Y-9975894D02*
X5889986Y-9928275D01*
X5889986Y-9928275D02*
X5889986Y-9890180D01*
X5889986Y-9890180D02*
X5899510Y-9842561D01*
X5899510Y-9842561D02*
X5909034Y-9813989D01*
X5909034Y-9813989D02*
X5918557Y-9794942D01*
X5918557Y-9794942D02*
X5937605Y-9766370D01*
X5937605Y-9766370D02*
X5947129Y-9756846D01*
X6109034Y-9852084D02*
X6109034Y-9985418D01*
X6061414Y-9775894D02*
X6013795Y-9918751D01*
X6013795Y-9918751D02*
X6137605Y-9918751D01*
X6366176Y-9985418D02*
X6366176Y-9785418D01*
X6451891Y-9985418D02*
X6451891Y-9880656D01*
X6451891Y-9880656D02*
X6442367Y-9861608D01*
X6442367Y-9861608D02*
X6423319Y-9852084D01*
X6423319Y-9852084D02*
X6394748Y-9852084D01*
X6394748Y-9852084D02*
X6375700Y-9861608D01*
X6375700Y-9861608D02*
X6366176Y-9871132D01*
X6575700Y-9985418D02*
X6556653Y-9975894D01*
X6556653Y-9975894D02*
X6547129Y-9966370D01*
X6547129Y-9966370D02*
X6537605Y-9947323D01*
X6537605Y-9947323D02*
X6537605Y-9890180D01*
X6537605Y-9890180D02*
X6547129Y-9871132D01*
X6547129Y-9871132D02*
X6556653Y-9861608D01*
X6556653Y-9861608D02*
X6575700Y-9852084D01*
X6575700Y-9852084D02*
X6604272Y-9852084D01*
X6604272Y-9852084D02*
X6623319Y-9861608D01*
X6623319Y-9861608D02*
X6632843Y-9871132D01*
X6632843Y-9871132D02*
X6642367Y-9890180D01*
X6642367Y-9890180D02*
X6642367Y-9947323D01*
X6642367Y-9947323D02*
X6632843Y-9966370D01*
X6632843Y-9966370D02*
X6623319Y-9975894D01*
X6623319Y-9975894D02*
X6604272Y-9985418D01*
X6604272Y-9985418D02*
X6575700Y-9985418D01*
X6756653Y-9985418D02*
X6737605Y-9975894D01*
X6737605Y-9975894D02*
X6728081Y-9956846D01*
X6728081Y-9956846D02*
X6728081Y-9785418D01*
X6909034Y-9975894D02*
X6889986Y-9985418D01*
X6889986Y-9985418D02*
X6851891Y-9985418D01*
X6851891Y-9985418D02*
X6832843Y-9975894D01*
X6832843Y-9975894D02*
X6823319Y-9956846D01*
X6823319Y-9956846D02*
X6823319Y-9880656D01*
X6823319Y-9880656D02*
X6832843Y-9861608D01*
X6832843Y-9861608D02*
X6851891Y-9852084D01*
X6851891Y-9852084D02*
X6889986Y-9852084D01*
X6889986Y-9852084D02*
X6909034Y-9861608D01*
X6909034Y-9861608D02*
X6918557Y-9880656D01*
X6918557Y-9880656D02*
X6918557Y-9899704D01*
X6918557Y-9899704D02*
X6823319Y-9918751D01*
X6994748Y-9975894D02*
X7013796Y-9985418D01*
X7013796Y-9985418D02*
X7051891Y-9985418D01*
X7051891Y-9985418D02*
X7070938Y-9975894D01*
X7070938Y-9975894D02*
X7080462Y-9956846D01*
X7080462Y-9956846D02*
X7080462Y-9947323D01*
X7080462Y-9947323D02*
X7070938Y-9928275D01*
X7070938Y-9928275D02*
X7051891Y-9918751D01*
X7051891Y-9918751D02*
X7023319Y-9918751D01*
X7023319Y-9918751D02*
X7004272Y-9909227D01*
X7004272Y-9909227D02*
X6994748Y-9890180D01*
X6994748Y-9890180D02*
X6994748Y-9880656D01*
X6994748Y-9880656D02*
X7004272Y-9861608D01*
X7004272Y-9861608D02*
X7023319Y-9852084D01*
X7023319Y-9852084D02*
X7051891Y-9852084D01*
X7051891Y-9852084D02*
X7070938Y-9861608D01*
X7147129Y-10061608D02*
X7156653Y-10052084D01*
X7156653Y-10052084D02*
X7175700Y-10023513D01*
X7175700Y-10023513D02*
X7185224Y-10004465D01*
X7185224Y-10004465D02*
X7194748Y-9975894D01*
X7194748Y-9975894D02*
X7204272Y-9928275D01*
X7204272Y-9928275D02*
X7204272Y-9890180D01*
X7204272Y-9890180D02*
X7194748Y-9842561D01*
X7194748Y-9842561D02*
X7185224Y-9813989D01*
X7185224Y-9813989D02*
X7175700Y-9794942D01*
X7175700Y-9794942D02*
X7156653Y-9766370D01*
X7156653Y-9766370D02*
X7147129Y-9756846D01*
M02*
