%TF.GenerationSoftware,KiCad,Pcbnew,8.0.3*%
%TF.CreationDate,2024-10-10T21:17:44+08:00*%
%TF.ProjectId,Neko_Wireless_Transmission,4e656b6f-5f57-4697-9265-6c6573735f54,rev?*%
%TF.SameCoordinates,Original*%
%TF.FileFunction,Soldermask,Bot*%
%TF.FilePolarity,Negative*%
%FSLAX46Y46*%
G04 Gerber Fmt 4.6, Leading zero omitted, Abs format (unit mm)*
G04 Created by KiCad (PCBNEW 8.0.3) date 2024-10-10 21:17:44*
%MOMM*%
%LPD*%
G01*
G04 APERTURE LIST*
G04 APERTURE END LIST*
G36*
X33346632Y-84628368D02*
G01*
X33350000Y-84636500D01*
X33350000Y-87788286D01*
X33346632Y-87796418D01*
X33338500Y-87799786D01*
X31261500Y-87799851D01*
X31253369Y-87796483D01*
X31250000Y-87788351D01*
X31250000Y-84636500D01*
X31253368Y-84628368D01*
X31261500Y-84625000D01*
X33338500Y-84625000D01*
X33346632Y-84628368D01*
G37*
G36*
X33346609Y-62831960D02*
G01*
X33350000Y-62840083D01*
X33350000Y-65963500D01*
X33346632Y-65971632D01*
X33338500Y-65975000D01*
X31261500Y-65975000D01*
X31253368Y-65971632D01*
X31250000Y-65963500D01*
X31250000Y-62845790D01*
X31253368Y-62837658D01*
X31261469Y-62834290D01*
X33338469Y-62828614D01*
X33346609Y-62831960D01*
G37*
G36*
X30271609Y-62840363D02*
G01*
X30275000Y-62848486D01*
X30275000Y-65963500D01*
X30271632Y-65971632D01*
X30263500Y-65975000D01*
X28186500Y-65975000D01*
X28178368Y-65971632D01*
X28175000Y-65963500D01*
X28175000Y-62854192D01*
X28178368Y-62846060D01*
X28186469Y-62842692D01*
X30263469Y-62837017D01*
X30271609Y-62840363D01*
G37*
G36*
X30271632Y-84628368D02*
G01*
X30275000Y-84636500D01*
X30275000Y-87788383D01*
X30271632Y-87796515D01*
X30263500Y-87799883D01*
X28186500Y-87799948D01*
X28178369Y-87796580D01*
X28175000Y-87788448D01*
X28175000Y-84636500D01*
X28178368Y-84628368D01*
X28186500Y-84625000D01*
X30263500Y-84625000D01*
X30271632Y-84628368D01*
G37*
M02*
