%TF.GenerationSoftware,KiCad,Pcbnew,8.0.3*%
%TF.CreationDate,2024-10-10T21:17:47+08:00*%
%TF.ProjectId,Neko_Wireless_Transmission,4e656b6f-5f57-4697-9265-6c6573735f54,rev?*%
%TF.SameCoordinates,Original*%
%TF.FileFunction,Drillmap*%
%TF.FilePolarity,Positive*%
%FSLAX45Y45*%
G04 Gerber Fmt 4.5, Leading zero omitted, Abs format (unit mm)*
G04 Created by KiCad (PCBNEW 8.0.3) date 2024-10-10 21:17:47*
%MOMM*%
%LPD*%
G01*
G04 APERTURE LIST*
%ADD10C,0.100000*%
%ADD11C,0.050000*%
%ADD12C,0.200000*%
G04 APERTURE END LIST*
D10*
X4872935Y-8629935D02*
G75*
G02*
X4722935Y-8779935I-150005J5D01*
G01*
X4722934Y-6279066D02*
G75*
G02*
X4872934Y-6429066I-4J-150004D01*
G01*
X2527065Y-8780004D02*
G75*
G02*
X2377066Y-8630004I5J150004D01*
G01*
X2377066Y-6435066D02*
G75*
G02*
X2527066Y-6285066I150000J0D01*
G01*
D11*
X2377065Y-8630004D02*
X2377066Y-6435066D01*
X4722935Y-8779935D02*
X2527065Y-8780004D01*
X4872934Y-6429066D02*
X4872935Y-8629935D01*
X2527066Y-6285066D02*
X4722934Y-6279066D01*
D12*
D10*
X2477500Y-7187500D02*
X2502500Y-7212500D01*
X2502500Y-7187500D02*
X2477500Y-7212500D01*
X2481421Y-6870097D02*
X2506421Y-6895097D01*
X2506421Y-6870097D02*
X2481421Y-6895097D01*
X2497500Y-6817500D02*
X2522500Y-6842500D01*
X2522500Y-6817500D02*
X2497500Y-6842500D01*
X2497500Y-7247500D02*
X2522500Y-7272500D01*
X2522500Y-7247500D02*
X2497500Y-7272500D01*
X2532500Y-7295500D02*
X2557500Y-7320500D01*
X2557500Y-7295500D02*
X2532500Y-7320500D01*
X2554500Y-7241500D02*
X2579500Y-7266500D01*
X2579500Y-7241500D02*
X2554500Y-7266500D01*
X2607500Y-7213500D02*
X2632500Y-7238500D01*
X2632500Y-7213500D02*
X2607500Y-7238500D01*
X2622500Y-6370000D02*
X2647500Y-6395000D01*
X2647500Y-6370000D02*
X2622500Y-6395000D01*
X2650500Y-7630500D02*
X2675500Y-7655500D01*
X2675500Y-7630500D02*
X2650500Y-7655500D01*
X2662500Y-7213500D02*
X2687500Y-7238500D01*
X2687500Y-7213500D02*
X2662500Y-7238500D01*
X2672500Y-6370000D02*
X2697500Y-6395000D01*
X2697500Y-6370000D02*
X2672500Y-6395000D01*
X2678500Y-7935500D02*
X2703500Y-7960500D01*
X2703500Y-7935500D02*
X2678500Y-7960500D01*
X2693500Y-7630500D02*
X2718500Y-7655500D01*
X2718500Y-7630500D02*
X2693500Y-7655500D01*
X2725000Y-6370000D02*
X2750000Y-6395000D01*
X2750000Y-6370000D02*
X2725000Y-6395000D01*
X2831500Y-7834500D02*
X2856500Y-7859500D01*
X2856500Y-7834500D02*
X2831500Y-7859500D01*
X2836500Y-7437500D02*
X2861500Y-7462500D01*
X2861500Y-7437500D02*
X2836500Y-7462500D01*
X2847267Y-7336733D02*
X2872267Y-7361733D01*
X2872267Y-7336733D02*
X2847267Y-7361733D01*
X2848500Y-8033500D02*
X2873500Y-8058500D01*
X2873500Y-8033500D02*
X2848500Y-8058500D01*
X2848769Y-7281667D02*
X2873769Y-7306667D01*
X2873769Y-7281667D02*
X2848769Y-7306667D01*
X2858097Y-7202493D02*
X2883097Y-7227493D01*
X2883097Y-7202493D02*
X2858097Y-7227493D01*
X2858504Y-7147494D02*
X2883504Y-7172494D01*
X2883504Y-7147494D02*
X2858504Y-7172494D01*
X2861500Y-7092500D02*
X2886500Y-7117500D01*
X2886500Y-7092500D02*
X2861500Y-7117500D01*
X2862500Y-6642500D02*
X2887500Y-6667500D01*
X2887500Y-6642500D02*
X2862500Y-6667500D01*
X2862500Y-6705000D02*
X2887500Y-6730000D01*
X2887500Y-6705000D02*
X2862500Y-6730000D01*
X2862500Y-6765000D02*
X2887500Y-6790000D01*
X2887500Y-6765000D02*
X2862500Y-6790000D01*
X2863698Y-7037544D02*
X2888698Y-7062544D01*
X2888698Y-7037544D02*
X2863698Y-7062544D01*
X2870000Y-8280000D02*
X2895000Y-8305000D01*
X2895000Y-8280000D02*
X2870000Y-8305000D01*
X2870000Y-8330000D02*
X2895000Y-8355000D01*
X2895000Y-8330000D02*
X2870000Y-8355000D01*
X2907052Y-7283381D02*
X2932052Y-7308381D01*
X2932052Y-7283381D02*
X2907052Y-7308381D01*
X2937509Y-7966444D02*
X2962509Y-7991444D01*
X2962509Y-7966444D02*
X2937509Y-7991444D01*
X2969789Y-7477500D02*
X2994789Y-7502500D01*
X2994789Y-7477500D02*
X2969789Y-7502500D01*
X2983395Y-7301330D02*
X3008395Y-7326330D01*
X3008395Y-7301330D02*
X2983395Y-7326330D01*
X2987464Y-8059455D02*
X3012464Y-8084455D01*
X3012464Y-8059455D02*
X2987464Y-8084455D01*
X2989500Y-7842500D02*
X3014500Y-7867500D01*
X3014500Y-7842500D02*
X2989500Y-7867500D01*
X3037500Y-7622500D02*
X3062500Y-7647500D01*
X3062500Y-7622500D02*
X3037500Y-7647500D01*
X3049500Y-7502500D02*
X3074500Y-7527500D01*
X3074500Y-7502500D02*
X3049500Y-7527500D01*
X3070500Y-8353163D02*
X3095500Y-8378163D01*
X3095500Y-8353163D02*
X3070500Y-8378163D01*
X3070593Y-8298970D02*
X3095593Y-8323970D01*
X3095593Y-8298970D02*
X3070593Y-8323970D01*
X3072500Y-7852500D02*
X3097500Y-7877500D01*
X3097500Y-7852500D02*
X3072500Y-7877500D01*
X3077210Y-7957354D02*
X3102210Y-7982354D01*
X3102210Y-7957354D02*
X3077210Y-7982354D01*
X3077500Y-7287500D02*
X3102500Y-7312500D01*
X3102500Y-7287500D02*
X3077500Y-7312500D01*
X3117261Y-7917354D02*
X3142261Y-7942354D01*
X3142261Y-7917354D02*
X3117261Y-7942354D01*
X3137100Y-7280500D02*
X3162100Y-7305500D01*
X3162100Y-7280500D02*
X3137100Y-7305500D01*
X3162500Y-7124900D02*
X3187500Y-7149900D01*
X3187500Y-7124900D02*
X3162500Y-7149900D01*
X3163247Y-7887184D02*
X3188247Y-7912184D01*
X3188247Y-7887184D02*
X3163247Y-7912184D01*
X3165000Y-6645000D02*
X3190000Y-6670000D01*
X3190000Y-6645000D02*
X3165000Y-6670000D01*
X3165000Y-6707500D02*
X3190000Y-6732500D01*
X3190000Y-6707500D02*
X3165000Y-6732500D01*
X3165000Y-6767500D02*
X3190000Y-6792500D01*
X3190000Y-6767500D02*
X3165000Y-6792500D01*
X3179500Y-7531252D02*
X3204500Y-7556252D01*
X3204500Y-7531252D02*
X3179500Y-7556252D01*
X3212500Y-6562500D02*
X3237500Y-6587500D01*
X3237500Y-6562500D02*
X3212500Y-6587500D01*
X3217500Y-8037500D02*
X3242500Y-8062500D01*
X3242500Y-8037500D02*
X3217500Y-8062500D01*
X3218500Y-7982500D02*
X3243500Y-8007500D01*
X3243500Y-7982500D02*
X3218500Y-8007500D01*
X3219500Y-7571136D02*
X3244500Y-7596136D01*
X3244500Y-7571136D02*
X3219500Y-7596136D01*
X3259500Y-7532500D02*
X3284500Y-7557500D01*
X3284500Y-7532500D02*
X3259500Y-7557500D01*
X3262500Y-8009500D02*
X3287500Y-8034500D01*
X3287500Y-8009500D02*
X3262500Y-8034500D01*
X3281500Y-7936613D02*
X3306500Y-7961613D01*
X3306500Y-7936613D02*
X3281500Y-7961613D01*
X3303500Y-7141500D02*
X3328500Y-7166500D01*
X3328500Y-7141500D02*
X3303500Y-7166500D01*
X3313167Y-7520464D02*
X3338167Y-7545464D01*
X3338167Y-7520464D02*
X3313167Y-7545464D01*
X3322500Y-8035500D02*
X3347500Y-8060500D01*
X3347500Y-8035500D02*
X3322500Y-8060500D01*
X3336500Y-8267500D02*
X3361500Y-8292500D01*
X3361500Y-8267500D02*
X3336500Y-8292500D01*
X3336500Y-8415000D02*
X3361500Y-8440000D01*
X3361500Y-8415000D02*
X3336500Y-8440000D01*
X3353581Y-7557770D02*
X3378581Y-7582770D01*
X3378581Y-7557770D02*
X3353581Y-7582770D01*
X3354334Y-8153500D02*
X3379334Y-8178500D01*
X3379334Y-8153500D02*
X3354334Y-8178500D01*
X3354704Y-7161580D02*
X3379704Y-7186580D01*
X3379704Y-7161580D02*
X3354704Y-7186580D01*
X3355402Y-7619544D02*
X3380402Y-7644544D01*
X3380402Y-7619544D02*
X3355402Y-7644544D01*
X3361498Y-7922489D02*
X3386498Y-7947489D01*
X3386498Y-7922489D02*
X3361498Y-7947489D01*
X3363500Y-7760500D02*
X3388500Y-7785500D01*
X3388500Y-7760500D02*
X3363500Y-7785500D01*
X3368811Y-7838189D02*
X3393811Y-7863189D01*
X3393811Y-7838189D02*
X3368811Y-7863189D01*
X3394032Y-7975720D02*
X3419032Y-8000720D01*
X3419032Y-7975720D02*
X3394032Y-8000720D01*
X3409544Y-7895720D02*
X3434544Y-7920720D01*
X3434544Y-7895720D02*
X3409544Y-7920720D01*
X3425500Y-8153500D02*
X3450500Y-8178500D01*
X3450500Y-8153500D02*
X3425500Y-8178500D01*
X3433452Y-7081530D02*
X3458452Y-7106530D01*
X3458452Y-7081530D02*
X3433452Y-7106530D01*
X3457500Y-7287500D02*
X3482500Y-7312500D01*
X3482500Y-7287500D02*
X3457500Y-7312500D01*
X3463500Y-7965500D02*
X3488500Y-7990500D01*
X3488500Y-7965500D02*
X3463500Y-7990500D01*
X3513851Y-6837212D02*
X3538851Y-6862212D01*
X3538851Y-6837212D02*
X3513851Y-6862212D01*
X3526239Y-6890799D02*
X3551239Y-6915799D01*
X3551239Y-6890799D02*
X3526239Y-6915799D01*
X3541828Y-8157603D02*
X3566828Y-8182603D01*
X3566828Y-8157603D02*
X3541828Y-8182603D01*
X3568900Y-7517567D02*
X3593900Y-7542567D01*
X3593900Y-7517567D02*
X3568900Y-7542567D01*
X3568900Y-7632900D02*
X3593900Y-7657900D01*
X3593900Y-7632900D02*
X3568900Y-7657900D01*
X3572500Y-7066500D02*
X3597500Y-7091500D01*
X3597500Y-7066500D02*
X3572500Y-7091500D01*
X3575500Y-8675500D02*
X3600500Y-8700500D01*
X3600500Y-8675500D02*
X3575500Y-8700500D01*
X3600000Y-6532500D02*
X3625000Y-6557500D01*
X3625000Y-6532500D02*
X3600000Y-6557500D01*
X3600000Y-6595000D02*
X3625000Y-6620000D01*
X3625000Y-6595000D02*
X3600000Y-6620000D01*
X3600000Y-6655000D02*
X3625000Y-6680000D01*
X3625000Y-6655000D02*
X3600000Y-6680000D01*
X3604500Y-8267500D02*
X3629500Y-8292500D01*
X3629500Y-8267500D02*
X3604500Y-8292500D01*
X3604500Y-8371500D02*
X3629500Y-8396500D01*
X3629500Y-8371500D02*
X3604500Y-8396500D01*
X3658218Y-8255694D02*
X3683218Y-8280694D01*
X3683218Y-8255694D02*
X3658218Y-8280694D01*
X3660500Y-7423100D02*
X3685500Y-7448100D01*
X3685500Y-7423100D02*
X3660500Y-7448100D01*
X3660500Y-7517567D02*
X3685500Y-7542567D01*
X3685500Y-7517567D02*
X3660500Y-7542567D01*
X3660500Y-7632900D02*
X3685500Y-7657900D01*
X3685500Y-7632900D02*
X3660500Y-7657900D01*
X3660500Y-7741567D02*
X3685500Y-7766567D01*
X3685500Y-7741567D02*
X3660500Y-7766567D01*
X3675000Y-7097500D02*
X3700000Y-7122500D01*
X3700000Y-7097500D02*
X3675000Y-7122500D01*
X3687750Y-6366500D02*
X3712750Y-6391500D01*
X3712750Y-6366500D02*
X3687750Y-6391500D01*
X3701887Y-8182500D02*
X3726887Y-8207500D01*
X3726887Y-8182500D02*
X3701887Y-8207500D01*
X3703500Y-7215500D02*
X3728500Y-7240500D01*
X3728500Y-7215500D02*
X3703500Y-7240500D01*
X3717500Y-6692500D02*
X3742500Y-6717500D01*
X3742500Y-6692500D02*
X3717500Y-6717500D01*
X3720750Y-6313500D02*
X3745750Y-6338500D01*
X3745750Y-6313500D02*
X3720750Y-6338500D01*
X3722500Y-6421250D02*
X3747500Y-6446250D01*
X3747500Y-6421250D02*
X3722500Y-6446250D01*
X3722500Y-6490000D02*
X3747500Y-6515000D01*
X3747500Y-6490000D02*
X3722500Y-6515000D01*
X3722500Y-6558750D02*
X3747500Y-6583750D01*
X3747500Y-6558750D02*
X3722500Y-6583750D01*
X3722500Y-6627500D02*
X3747500Y-6652500D01*
X3747500Y-6627500D02*
X3722500Y-6652500D01*
X3725000Y-7097500D02*
X3750000Y-7122500D01*
X3750000Y-7097500D02*
X3725000Y-7122500D01*
X3756500Y-6366500D02*
X3781500Y-6391500D01*
X3781500Y-6366500D02*
X3756500Y-6391500D01*
X3771500Y-7423100D02*
X3796500Y-7448100D01*
X3796500Y-7423100D02*
X3771500Y-7448100D01*
X3771500Y-7517567D02*
X3796500Y-7542567D01*
X3796500Y-7517567D02*
X3771500Y-7542567D01*
X3771500Y-7632900D02*
X3796500Y-7657900D01*
X3796500Y-7632900D02*
X3771500Y-7657900D01*
X3771500Y-7741567D02*
X3796500Y-7766567D01*
X3796500Y-7741567D02*
X3771500Y-7766567D01*
X3783500Y-8153500D02*
X3808500Y-8178500D01*
X3808500Y-8153500D02*
X3783500Y-8178500D01*
X3783500Y-8444500D02*
X3808500Y-8469500D01*
X3808500Y-8444500D02*
X3783500Y-8469500D01*
X3789500Y-6313500D02*
X3814500Y-6338500D01*
X3814500Y-6313500D02*
X3789500Y-6338500D01*
X3792500Y-6423750D02*
X3817500Y-6448750D01*
X3817500Y-6423750D02*
X3792500Y-6448750D01*
X3792500Y-6492500D02*
X3817500Y-6517500D01*
X3817500Y-6492500D02*
X3792500Y-6517500D01*
X3792500Y-6561250D02*
X3817500Y-6586250D01*
X3817500Y-6561250D02*
X3792500Y-6586250D01*
X3792500Y-6630000D02*
X3817500Y-6655000D01*
X3817500Y-6630000D02*
X3792500Y-6655000D01*
X3825250Y-6366500D02*
X3850250Y-6391500D01*
X3850250Y-6366500D02*
X3825250Y-6391500D01*
X3858250Y-6313500D02*
X3883250Y-6338500D01*
X3883250Y-6313500D02*
X3858250Y-6338500D01*
X3862500Y-7352500D02*
X3887500Y-7377500D01*
X3887500Y-7352500D02*
X3862500Y-7377500D01*
X3863500Y-7980268D02*
X3888500Y-8005268D01*
X3888500Y-7980268D02*
X3863500Y-8005268D01*
X3865307Y-8206813D02*
X3890307Y-8231813D01*
X3890307Y-8206813D02*
X3865307Y-8231813D01*
X3866450Y-8393000D02*
X3891450Y-8418000D01*
X3891450Y-8393000D02*
X3866450Y-8418000D01*
X3873700Y-7517567D02*
X3898700Y-7542567D01*
X3898700Y-7517567D02*
X3873700Y-7542567D01*
X3873700Y-7632900D02*
X3898700Y-7657900D01*
X3898700Y-7632900D02*
X3873700Y-7657900D01*
X3894000Y-6366500D02*
X3919000Y-6391500D01*
X3919000Y-6366500D02*
X3894000Y-6391500D01*
X3902920Y-8018500D02*
X3927920Y-8043500D01*
X3927920Y-8018500D02*
X3902920Y-8043500D01*
X3927000Y-6313500D02*
X3952000Y-6338500D01*
X3952000Y-6313500D02*
X3927000Y-6338500D01*
X3943500Y-7979500D02*
X3968500Y-8004500D01*
X3968500Y-7979500D02*
X3943500Y-8004500D01*
X3944500Y-6681500D02*
X3969500Y-6706500D01*
X3969500Y-6681500D02*
X3944500Y-6706500D01*
X3962750Y-6366500D02*
X3987750Y-6391500D01*
X3987750Y-6366500D02*
X3962750Y-6391500D01*
X3983750Y-6622500D02*
X4008750Y-6647500D01*
X4008750Y-6622500D02*
X3983750Y-6647500D01*
X3985000Y-6740000D02*
X4010000Y-6765000D01*
X4010000Y-6740000D02*
X3985000Y-6765000D01*
X3995750Y-6313500D02*
X4020750Y-6338500D01*
X4020750Y-6313500D02*
X3995750Y-6338500D01*
X4018750Y-6682500D02*
X4043750Y-6707500D01*
X4043750Y-6682500D02*
X4018750Y-6707500D01*
X4020000Y-6565000D02*
X4045000Y-6590000D01*
X4045000Y-6565000D02*
X4020000Y-6590000D01*
X4031500Y-6366500D02*
X4056500Y-6391500D01*
X4056500Y-6366500D02*
X4031500Y-6391500D01*
X4048750Y-6622500D02*
X4073750Y-6647500D01*
X4073750Y-6622500D02*
X4048750Y-6647500D01*
X4050000Y-6740000D02*
X4075000Y-6765000D01*
X4075000Y-6740000D02*
X4050000Y-6765000D01*
X4050000Y-6850000D02*
X4075000Y-6875000D01*
X4075000Y-6850000D02*
X4050000Y-6875000D01*
X4055000Y-6507500D02*
X4080000Y-6532500D01*
X4080000Y-6507500D02*
X4055000Y-6532500D01*
X4064500Y-6313500D02*
X4089500Y-6338500D01*
X4089500Y-6313500D02*
X4064500Y-6338500D01*
X4083750Y-6682500D02*
X4108750Y-6707500D01*
X4108750Y-6682500D02*
X4083750Y-6707500D01*
X4085000Y-6792500D02*
X4110000Y-6817500D01*
X4110000Y-6792500D02*
X4085000Y-6817500D01*
X4086500Y-7600500D02*
X4111500Y-7625500D01*
X4111500Y-7600500D02*
X4086500Y-7625500D01*
X4087500Y-6570000D02*
X4112500Y-6595000D01*
X4112500Y-6570000D02*
X4087500Y-6595000D01*
X4092500Y-8571500D02*
X4117500Y-8596500D01*
X4117500Y-8571500D02*
X4092500Y-8596500D01*
X4094268Y-8629836D02*
X4119268Y-8654836D01*
X4119268Y-8629836D02*
X4094268Y-8654836D01*
X4100250Y-6366500D02*
X4125250Y-6391500D01*
X4125250Y-6366500D02*
X4100250Y-6391500D01*
X4121250Y-6620000D02*
X4146250Y-6645000D01*
X4146250Y-6620000D02*
X4121250Y-6645000D01*
X4122500Y-6512500D02*
X4147500Y-6537500D01*
X4147500Y-6512500D02*
X4122500Y-6537500D01*
X4122500Y-6737500D02*
X4147500Y-6762500D01*
X4147500Y-6737500D02*
X4122500Y-6762500D01*
X4122500Y-6850000D02*
X4147500Y-6875000D01*
X4147500Y-6850000D02*
X4122500Y-6875000D01*
X4133250Y-6313500D02*
X4158250Y-6338500D01*
X4158250Y-6313500D02*
X4133250Y-6338500D01*
X4136500Y-7720500D02*
X4161500Y-7745500D01*
X4161500Y-7720500D02*
X4136500Y-7745500D01*
X4137500Y-7263663D02*
X4162500Y-7288663D01*
X4162500Y-7263663D02*
X4137500Y-7288663D01*
X4156250Y-6680000D02*
X4181250Y-6705000D01*
X4181250Y-6680000D02*
X4156250Y-6705000D01*
X4157500Y-6792500D02*
X4182500Y-6817500D01*
X4182500Y-6792500D02*
X4157500Y-6817500D01*
X4176500Y-7758500D02*
X4201500Y-7783500D01*
X4201500Y-7758500D02*
X4176500Y-7783500D01*
X4183500Y-7688500D02*
X4208500Y-7713500D01*
X4208500Y-7688500D02*
X4183500Y-7713500D01*
X4187500Y-6620000D02*
X4212500Y-6645000D01*
X4212500Y-6620000D02*
X4187500Y-6645000D01*
X4188750Y-6737500D02*
X4213750Y-6762500D01*
X4213750Y-6737500D02*
X4188750Y-6762500D01*
X4191250Y-6852500D02*
X4216250Y-6877500D01*
X4216250Y-6852500D02*
X4191250Y-6877500D01*
X4217500Y-8167500D02*
X4242500Y-8192500D01*
X4242500Y-8167500D02*
X4217500Y-8192500D01*
X4222500Y-6680000D02*
X4247500Y-6705000D01*
X4247500Y-6680000D02*
X4222500Y-6705000D01*
X4226250Y-6795000D02*
X4251250Y-6820000D01*
X4251250Y-6795000D02*
X4226250Y-6820000D01*
X4230500Y-7640500D02*
X4255500Y-7665500D01*
X4255500Y-7640500D02*
X4230500Y-7665500D01*
X4256250Y-6620000D02*
X4281250Y-6645000D01*
X4281250Y-6620000D02*
X4256250Y-6645000D01*
X4257500Y-6737500D02*
X4282500Y-6762500D01*
X4282500Y-6737500D02*
X4257500Y-6762500D01*
X4260000Y-6852500D02*
X4285000Y-6877500D01*
X4285000Y-6852500D02*
X4260000Y-6877500D01*
X4291250Y-6680000D02*
X4316250Y-6705000D01*
X4316250Y-6680000D02*
X4291250Y-6705000D01*
X4295000Y-6795000D02*
X4320000Y-6820000D01*
X4320000Y-6795000D02*
X4295000Y-6820000D01*
X4325000Y-6620000D02*
X4350000Y-6645000D01*
X4350000Y-6620000D02*
X4325000Y-6645000D01*
X4326250Y-6737500D02*
X4351250Y-6762500D01*
X4351250Y-6737500D02*
X4326250Y-6762500D01*
X4328750Y-6852500D02*
X4353750Y-6877500D01*
X4353750Y-6852500D02*
X4328750Y-6877500D01*
X4360000Y-6680000D02*
X4385000Y-6705000D01*
X4385000Y-6680000D02*
X4360000Y-6705000D01*
X4363750Y-6795000D02*
X4388750Y-6820000D01*
X4388750Y-6795000D02*
X4363750Y-6820000D01*
X4393750Y-6620000D02*
X4418750Y-6645000D01*
X4418750Y-6620000D02*
X4393750Y-6645000D01*
X4395000Y-6737500D02*
X4420000Y-6762500D01*
X4420000Y-6737500D02*
X4395000Y-6762500D01*
X4397500Y-6852500D02*
X4422500Y-6877500D01*
X4422500Y-6852500D02*
X4397500Y-6877500D01*
X4428750Y-6680000D02*
X4453750Y-6705000D01*
X4453750Y-6680000D02*
X4428750Y-6705000D01*
X4432500Y-6795000D02*
X4457500Y-6820000D01*
X4457500Y-6795000D02*
X4432500Y-6820000D01*
X4462500Y-6620000D02*
X4487500Y-6645000D01*
X4487500Y-6620000D02*
X4462500Y-6645000D01*
X4463750Y-6737500D02*
X4488750Y-6762500D01*
X4488750Y-6737500D02*
X4463750Y-6762500D01*
X4466250Y-6852500D02*
X4491250Y-6877500D01*
X4491250Y-6852500D02*
X4466250Y-6877500D01*
X4497500Y-6680000D02*
X4522500Y-6705000D01*
X4522500Y-6680000D02*
X4497500Y-6705000D01*
X4501250Y-6795000D02*
X4526250Y-6820000D01*
X4526250Y-6795000D02*
X4501250Y-6820000D01*
X4531250Y-6620000D02*
X4556250Y-6645000D01*
X4556250Y-6620000D02*
X4531250Y-6645000D01*
X4532500Y-6737500D02*
X4557500Y-6762500D01*
X4557500Y-6737500D02*
X4532500Y-6762500D01*
X4535000Y-6852500D02*
X4560000Y-6877500D01*
X4560000Y-6852500D02*
X4535000Y-6877500D01*
X4566250Y-6680000D02*
X4591250Y-6705000D01*
X4591250Y-6680000D02*
X4566250Y-6705000D01*
X4570000Y-6795000D02*
X4595000Y-6820000D01*
X4595000Y-6795000D02*
X4570000Y-6820000D01*
X4600000Y-6620000D02*
X4625000Y-6645000D01*
X4625000Y-6620000D02*
X4600000Y-6645000D01*
X4601250Y-6737500D02*
X4626250Y-6762500D01*
X4626250Y-6737500D02*
X4601250Y-6762500D01*
X4603750Y-6852500D02*
X4628750Y-6877500D01*
X4628750Y-6852500D02*
X4603750Y-6877500D01*
X4635000Y-6680000D02*
X4660000Y-6705000D01*
X4660000Y-6680000D02*
X4635000Y-6705000D01*
X4638750Y-6795000D02*
X4663750Y-6820000D01*
X4663750Y-6795000D02*
X4638750Y-6820000D01*
X4666250Y-6620000D02*
X4691250Y-6645000D01*
X4691250Y-6620000D02*
X4666250Y-6645000D01*
X4667500Y-6737500D02*
X4692500Y-6762500D01*
X4692500Y-6737500D02*
X4667500Y-6762500D01*
X4670000Y-6852500D02*
X4695000Y-6877500D01*
X4695000Y-6852500D02*
X4670000Y-6877500D01*
X4701250Y-6680000D02*
X4726250Y-6705000D01*
X4726250Y-6680000D02*
X4701250Y-6705000D01*
X4705000Y-6795000D02*
X4730000Y-6820000D01*
X4730000Y-6795000D02*
X4705000Y-6820000D01*
X4731250Y-6617500D02*
X4756250Y-6642500D01*
X4756250Y-6617500D02*
X4731250Y-6642500D01*
X4732500Y-6735000D02*
X4757500Y-6760000D01*
X4757500Y-6735000D02*
X4732500Y-6760000D01*
X4735000Y-6850000D02*
X4760000Y-6875000D01*
X4760000Y-6850000D02*
X4735000Y-6875000D01*
X4766250Y-6677500D02*
X4791250Y-6702500D01*
X4791250Y-6677500D02*
X4766250Y-6702500D01*
X4770000Y-6792500D02*
X4795000Y-6817500D01*
X4795000Y-6792500D02*
X4770000Y-6817500D01*
D12*
X2632842Y-9096488D02*
X2632842Y-8896488D01*
X2632842Y-8896488D02*
X2680461Y-8896488D01*
X2680461Y-8896488D02*
X2709032Y-8906012D01*
X2709032Y-8906012D02*
X2728080Y-8925059D01*
X2728080Y-8925059D02*
X2737604Y-8944107D01*
X2737604Y-8944107D02*
X2747127Y-8982202D01*
X2747127Y-8982202D02*
X2747127Y-9010774D01*
X2747127Y-9010774D02*
X2737604Y-9048869D01*
X2737604Y-9048869D02*
X2728080Y-9067916D01*
X2728080Y-9067916D02*
X2709032Y-9086964D01*
X2709032Y-9086964D02*
X2680461Y-9096488D01*
X2680461Y-9096488D02*
X2632842Y-9096488D01*
X2832842Y-9096488D02*
X2832842Y-8963154D01*
X2832842Y-9001250D02*
X2842365Y-8982202D01*
X2842365Y-8982202D02*
X2851889Y-8972678D01*
X2851889Y-8972678D02*
X2870937Y-8963154D01*
X2870937Y-8963154D02*
X2889984Y-8963154D01*
X2956651Y-9096488D02*
X2956651Y-8963154D01*
X2956651Y-8896488D02*
X2947127Y-8906012D01*
X2947127Y-8906012D02*
X2956651Y-8915535D01*
X2956651Y-8915535D02*
X2966175Y-8906012D01*
X2966175Y-8906012D02*
X2956651Y-8896488D01*
X2956651Y-8896488D02*
X2956651Y-8915535D01*
X3080461Y-9096488D02*
X3061413Y-9086964D01*
X3061413Y-9086964D02*
X3051889Y-9067916D01*
X3051889Y-9067916D02*
X3051889Y-8896488D01*
X3185222Y-9096488D02*
X3166175Y-9086964D01*
X3166175Y-9086964D02*
X3156651Y-9067916D01*
X3156651Y-9067916D02*
X3156651Y-8896488D01*
X3413794Y-9096488D02*
X3413794Y-8896488D01*
X3413794Y-8896488D02*
X3480461Y-9039345D01*
X3480461Y-9039345D02*
X3547127Y-8896488D01*
X3547127Y-8896488D02*
X3547127Y-9096488D01*
X3728080Y-9096488D02*
X3728080Y-8991726D01*
X3728080Y-8991726D02*
X3718556Y-8972678D01*
X3718556Y-8972678D02*
X3699508Y-8963154D01*
X3699508Y-8963154D02*
X3661413Y-8963154D01*
X3661413Y-8963154D02*
X3642365Y-8972678D01*
X3728080Y-9086964D02*
X3709032Y-9096488D01*
X3709032Y-9096488D02*
X3661413Y-9096488D01*
X3661413Y-9096488D02*
X3642365Y-9086964D01*
X3642365Y-9086964D02*
X3632842Y-9067916D01*
X3632842Y-9067916D02*
X3632842Y-9048869D01*
X3632842Y-9048869D02*
X3642365Y-9029821D01*
X3642365Y-9029821D02*
X3661413Y-9020297D01*
X3661413Y-9020297D02*
X3709032Y-9020297D01*
X3709032Y-9020297D02*
X3728080Y-9010774D01*
X3823318Y-8963154D02*
X3823318Y-9163154D01*
X3823318Y-8972678D02*
X3842365Y-8963154D01*
X3842365Y-8963154D02*
X3880461Y-8963154D01*
X3880461Y-8963154D02*
X3899508Y-8972678D01*
X3899508Y-8972678D02*
X3909032Y-8982202D01*
X3909032Y-8982202D02*
X3918556Y-9001250D01*
X3918556Y-9001250D02*
X3918556Y-9058393D01*
X3918556Y-9058393D02*
X3909032Y-9077440D01*
X3909032Y-9077440D02*
X3899508Y-9086964D01*
X3899508Y-9086964D02*
X3880461Y-9096488D01*
X3880461Y-9096488D02*
X3842365Y-9096488D01*
X3842365Y-9096488D02*
X3823318Y-9086964D01*
X4004270Y-9077440D02*
X4013794Y-9086964D01*
X4013794Y-9086964D02*
X4004270Y-9096488D01*
X4004270Y-9096488D02*
X3994746Y-9086964D01*
X3994746Y-9086964D02*
X4004270Y-9077440D01*
X4004270Y-9077440D02*
X4004270Y-9096488D01*
X4004270Y-8972678D02*
X4013794Y-8982202D01*
X4013794Y-8982202D02*
X4004270Y-8991726D01*
X4004270Y-8991726D02*
X3994746Y-8982202D01*
X3994746Y-8982202D02*
X4004270Y-8972678D01*
X4004270Y-8972678D02*
X4004270Y-8991726D01*
D10*
X2347065Y-9412504D02*
X2372065Y-9437504D01*
X2372065Y-9412504D02*
X2347065Y-9437504D01*
D12*
X2670937Y-9316488D02*
X2689985Y-9316488D01*
X2689985Y-9316488D02*
X2709032Y-9326012D01*
X2709032Y-9326012D02*
X2718556Y-9335535D01*
X2718556Y-9335535D02*
X2728080Y-9354583D01*
X2728080Y-9354583D02*
X2737604Y-9392678D01*
X2737604Y-9392678D02*
X2737604Y-9440297D01*
X2737604Y-9440297D02*
X2728080Y-9478393D01*
X2728080Y-9478393D02*
X2718556Y-9497440D01*
X2718556Y-9497440D02*
X2709032Y-9506964D01*
X2709032Y-9506964D02*
X2689985Y-9516488D01*
X2689985Y-9516488D02*
X2670937Y-9516488D01*
X2670937Y-9516488D02*
X2651889Y-9506964D01*
X2651889Y-9506964D02*
X2642365Y-9497440D01*
X2642365Y-9497440D02*
X2632842Y-9478393D01*
X2632842Y-9478393D02*
X2623318Y-9440297D01*
X2623318Y-9440297D02*
X2623318Y-9392678D01*
X2623318Y-9392678D02*
X2632842Y-9354583D01*
X2632842Y-9354583D02*
X2642365Y-9335535D01*
X2642365Y-9335535D02*
X2651889Y-9326012D01*
X2651889Y-9326012D02*
X2670937Y-9316488D01*
X2823318Y-9497440D02*
X2832842Y-9506964D01*
X2832842Y-9506964D02*
X2823318Y-9516488D01*
X2823318Y-9516488D02*
X2813794Y-9506964D01*
X2813794Y-9506964D02*
X2823318Y-9497440D01*
X2823318Y-9497440D02*
X2823318Y-9516488D01*
X2909032Y-9335535D02*
X2918556Y-9326012D01*
X2918556Y-9326012D02*
X2937603Y-9316488D01*
X2937603Y-9316488D02*
X2985223Y-9316488D01*
X2985223Y-9316488D02*
X3004270Y-9326012D01*
X3004270Y-9326012D02*
X3013794Y-9335535D01*
X3013794Y-9335535D02*
X3023318Y-9354583D01*
X3023318Y-9354583D02*
X3023318Y-9373631D01*
X3023318Y-9373631D02*
X3013794Y-9402202D01*
X3013794Y-9402202D02*
X2899508Y-9516488D01*
X2899508Y-9516488D02*
X3023318Y-9516488D01*
X3204270Y-9316488D02*
X3109032Y-9316488D01*
X3109032Y-9316488D02*
X3099508Y-9411726D01*
X3099508Y-9411726D02*
X3109032Y-9402202D01*
X3109032Y-9402202D02*
X3128080Y-9392678D01*
X3128080Y-9392678D02*
X3175699Y-9392678D01*
X3175699Y-9392678D02*
X3194746Y-9402202D01*
X3194746Y-9402202D02*
X3204270Y-9411726D01*
X3204270Y-9411726D02*
X3213794Y-9430774D01*
X3213794Y-9430774D02*
X3213794Y-9478393D01*
X3213794Y-9478393D02*
X3204270Y-9497440D01*
X3204270Y-9497440D02*
X3194746Y-9506964D01*
X3194746Y-9506964D02*
X3175699Y-9516488D01*
X3175699Y-9516488D02*
X3128080Y-9516488D01*
X3128080Y-9516488D02*
X3109032Y-9506964D01*
X3109032Y-9506964D02*
X3099508Y-9497440D01*
X3337603Y-9316488D02*
X3356651Y-9316488D01*
X3356651Y-9316488D02*
X3375699Y-9326012D01*
X3375699Y-9326012D02*
X3385223Y-9335535D01*
X3385223Y-9335535D02*
X3394746Y-9354583D01*
X3394746Y-9354583D02*
X3404270Y-9392678D01*
X3404270Y-9392678D02*
X3404270Y-9440297D01*
X3404270Y-9440297D02*
X3394746Y-9478393D01*
X3394746Y-9478393D02*
X3385223Y-9497440D01*
X3385223Y-9497440D02*
X3375699Y-9506964D01*
X3375699Y-9506964D02*
X3356651Y-9516488D01*
X3356651Y-9516488D02*
X3337603Y-9516488D01*
X3337603Y-9516488D02*
X3318556Y-9506964D01*
X3318556Y-9506964D02*
X3309032Y-9497440D01*
X3309032Y-9497440D02*
X3299508Y-9478393D01*
X3299508Y-9478393D02*
X3289984Y-9440297D01*
X3289984Y-9440297D02*
X3289984Y-9392678D01*
X3289984Y-9392678D02*
X3299508Y-9354583D01*
X3299508Y-9354583D02*
X3309032Y-9335535D01*
X3309032Y-9335535D02*
X3318556Y-9326012D01*
X3318556Y-9326012D02*
X3337603Y-9316488D01*
X3489984Y-9516488D02*
X3489984Y-9383154D01*
X3489984Y-9402202D02*
X3499508Y-9392678D01*
X3499508Y-9392678D02*
X3518556Y-9383154D01*
X3518556Y-9383154D02*
X3547127Y-9383154D01*
X3547127Y-9383154D02*
X3566175Y-9392678D01*
X3566175Y-9392678D02*
X3575699Y-9411726D01*
X3575699Y-9411726D02*
X3575699Y-9516488D01*
X3575699Y-9411726D02*
X3585223Y-9392678D01*
X3585223Y-9392678D02*
X3604270Y-9383154D01*
X3604270Y-9383154D02*
X3632842Y-9383154D01*
X3632842Y-9383154D02*
X3651889Y-9392678D01*
X3651889Y-9392678D02*
X3661413Y-9411726D01*
X3661413Y-9411726D02*
X3661413Y-9516488D01*
X3756651Y-9516488D02*
X3756651Y-9383154D01*
X3756651Y-9402202D02*
X3766175Y-9392678D01*
X3766175Y-9392678D02*
X3785223Y-9383154D01*
X3785223Y-9383154D02*
X3813794Y-9383154D01*
X3813794Y-9383154D02*
X3832842Y-9392678D01*
X3832842Y-9392678D02*
X3842365Y-9411726D01*
X3842365Y-9411726D02*
X3842365Y-9516488D01*
X3842365Y-9411726D02*
X3851889Y-9392678D01*
X3851889Y-9392678D02*
X3870937Y-9383154D01*
X3870937Y-9383154D02*
X3899508Y-9383154D01*
X3899508Y-9383154D02*
X3918556Y-9392678D01*
X3918556Y-9392678D02*
X3928080Y-9411726D01*
X3928080Y-9411726D02*
X3928080Y-9516488D01*
X4318556Y-9306964D02*
X4147127Y-9564107D01*
X4575699Y-9316488D02*
X4594747Y-9316488D01*
X4594747Y-9316488D02*
X4613794Y-9326012D01*
X4613794Y-9326012D02*
X4623318Y-9335535D01*
X4623318Y-9335535D02*
X4632842Y-9354583D01*
X4632842Y-9354583D02*
X4642366Y-9392678D01*
X4642366Y-9392678D02*
X4642366Y-9440297D01*
X4642366Y-9440297D02*
X4632842Y-9478393D01*
X4632842Y-9478393D02*
X4623318Y-9497440D01*
X4623318Y-9497440D02*
X4613794Y-9506964D01*
X4613794Y-9506964D02*
X4594747Y-9516488D01*
X4594747Y-9516488D02*
X4575699Y-9516488D01*
X4575699Y-9516488D02*
X4556651Y-9506964D01*
X4556651Y-9506964D02*
X4547128Y-9497440D01*
X4547128Y-9497440D02*
X4537604Y-9478393D01*
X4537604Y-9478393D02*
X4528080Y-9440297D01*
X4528080Y-9440297D02*
X4528080Y-9392678D01*
X4528080Y-9392678D02*
X4537604Y-9354583D01*
X4537604Y-9354583D02*
X4547128Y-9335535D01*
X4547128Y-9335535D02*
X4556651Y-9326012D01*
X4556651Y-9326012D02*
X4575699Y-9316488D01*
X4728080Y-9497440D02*
X4737604Y-9506964D01*
X4737604Y-9506964D02*
X4728080Y-9516488D01*
X4728080Y-9516488D02*
X4718556Y-9506964D01*
X4718556Y-9506964D02*
X4728080Y-9497440D01*
X4728080Y-9497440D02*
X4728080Y-9516488D01*
X4861413Y-9316488D02*
X4880461Y-9316488D01*
X4880461Y-9316488D02*
X4899509Y-9326012D01*
X4899509Y-9326012D02*
X4909032Y-9335535D01*
X4909032Y-9335535D02*
X4918556Y-9354583D01*
X4918556Y-9354583D02*
X4928080Y-9392678D01*
X4928080Y-9392678D02*
X4928080Y-9440297D01*
X4928080Y-9440297D02*
X4918556Y-9478393D01*
X4918556Y-9478393D02*
X4909032Y-9497440D01*
X4909032Y-9497440D02*
X4899509Y-9506964D01*
X4899509Y-9506964D02*
X4880461Y-9516488D01*
X4880461Y-9516488D02*
X4861413Y-9516488D01*
X4861413Y-9516488D02*
X4842366Y-9506964D01*
X4842366Y-9506964D02*
X4832842Y-9497440D01*
X4832842Y-9497440D02*
X4823318Y-9478393D01*
X4823318Y-9478393D02*
X4813794Y-9440297D01*
X4813794Y-9440297D02*
X4813794Y-9392678D01*
X4813794Y-9392678D02*
X4823318Y-9354583D01*
X4823318Y-9354583D02*
X4832842Y-9335535D01*
X4832842Y-9335535D02*
X4842366Y-9326012D01*
X4842366Y-9326012D02*
X4861413Y-9316488D01*
X5051889Y-9316488D02*
X5070937Y-9316488D01*
X5070937Y-9316488D02*
X5089985Y-9326012D01*
X5089985Y-9326012D02*
X5099509Y-9335535D01*
X5099509Y-9335535D02*
X5109032Y-9354583D01*
X5109032Y-9354583D02*
X5118556Y-9392678D01*
X5118556Y-9392678D02*
X5118556Y-9440297D01*
X5118556Y-9440297D02*
X5109032Y-9478393D01*
X5109032Y-9478393D02*
X5099509Y-9497440D01*
X5099509Y-9497440D02*
X5089985Y-9506964D01*
X5089985Y-9506964D02*
X5070937Y-9516488D01*
X5070937Y-9516488D02*
X5051889Y-9516488D01*
X5051889Y-9516488D02*
X5032842Y-9506964D01*
X5032842Y-9506964D02*
X5023318Y-9497440D01*
X5023318Y-9497440D02*
X5013794Y-9478393D01*
X5013794Y-9478393D02*
X5004270Y-9440297D01*
X5004270Y-9440297D02*
X5004270Y-9392678D01*
X5004270Y-9392678D02*
X5013794Y-9354583D01*
X5013794Y-9354583D02*
X5023318Y-9335535D01*
X5023318Y-9335535D02*
X5032842Y-9326012D01*
X5032842Y-9326012D02*
X5051889Y-9316488D01*
X5213794Y-9516488D02*
X5251889Y-9516488D01*
X5251889Y-9516488D02*
X5270937Y-9506964D01*
X5270937Y-9506964D02*
X5280461Y-9497440D01*
X5280461Y-9497440D02*
X5299509Y-9468869D01*
X5299509Y-9468869D02*
X5309032Y-9430774D01*
X5309032Y-9430774D02*
X5309032Y-9354583D01*
X5309032Y-9354583D02*
X5299509Y-9335535D01*
X5299509Y-9335535D02*
X5289985Y-9326012D01*
X5289985Y-9326012D02*
X5270937Y-9316488D01*
X5270937Y-9316488D02*
X5232842Y-9316488D01*
X5232842Y-9316488D02*
X5213794Y-9326012D01*
X5213794Y-9326012D02*
X5204270Y-9335535D01*
X5204270Y-9335535D02*
X5194747Y-9354583D01*
X5194747Y-9354583D02*
X5194747Y-9402202D01*
X5194747Y-9402202D02*
X5204270Y-9421250D01*
X5204270Y-9421250D02*
X5213794Y-9430774D01*
X5213794Y-9430774D02*
X5232842Y-9440297D01*
X5232842Y-9440297D02*
X5270937Y-9440297D01*
X5270937Y-9440297D02*
X5289985Y-9430774D01*
X5289985Y-9430774D02*
X5299509Y-9421250D01*
X5299509Y-9421250D02*
X5309032Y-9402202D01*
X5423318Y-9402202D02*
X5404270Y-9392678D01*
X5404270Y-9392678D02*
X5394747Y-9383154D01*
X5394747Y-9383154D02*
X5385223Y-9364107D01*
X5385223Y-9364107D02*
X5385223Y-9354583D01*
X5385223Y-9354583D02*
X5394747Y-9335535D01*
X5394747Y-9335535D02*
X5404270Y-9326012D01*
X5404270Y-9326012D02*
X5423318Y-9316488D01*
X5423318Y-9316488D02*
X5461413Y-9316488D01*
X5461413Y-9316488D02*
X5480461Y-9326012D01*
X5480461Y-9326012D02*
X5489985Y-9335535D01*
X5489985Y-9335535D02*
X5499509Y-9354583D01*
X5499509Y-9354583D02*
X5499509Y-9364107D01*
X5499509Y-9364107D02*
X5489985Y-9383154D01*
X5489985Y-9383154D02*
X5480461Y-9392678D01*
X5480461Y-9392678D02*
X5461413Y-9402202D01*
X5461413Y-9402202D02*
X5423318Y-9402202D01*
X5423318Y-9402202D02*
X5404270Y-9411726D01*
X5404270Y-9411726D02*
X5394747Y-9421250D01*
X5394747Y-9421250D02*
X5385223Y-9440297D01*
X5385223Y-9440297D02*
X5385223Y-9478393D01*
X5385223Y-9478393D02*
X5394747Y-9497440D01*
X5394747Y-9497440D02*
X5404270Y-9506964D01*
X5404270Y-9506964D02*
X5423318Y-9516488D01*
X5423318Y-9516488D02*
X5461413Y-9516488D01*
X5461413Y-9516488D02*
X5480461Y-9506964D01*
X5480461Y-9506964D02*
X5489985Y-9497440D01*
X5489985Y-9497440D02*
X5499509Y-9478393D01*
X5499509Y-9478393D02*
X5499509Y-9440297D01*
X5499509Y-9440297D02*
X5489985Y-9421250D01*
X5489985Y-9421250D02*
X5480461Y-9411726D01*
X5480461Y-9411726D02*
X5461413Y-9402202D01*
X5575699Y-9316488D02*
X5575699Y-9354583D01*
X5651889Y-9316488D02*
X5651889Y-9354583D01*
X5947128Y-9592678D02*
X5937604Y-9583154D01*
X5937604Y-9583154D02*
X5918556Y-9554583D01*
X5918556Y-9554583D02*
X5909032Y-9535535D01*
X5909032Y-9535535D02*
X5899509Y-9506964D01*
X5899509Y-9506964D02*
X5889985Y-9459345D01*
X5889985Y-9459345D02*
X5889985Y-9421250D01*
X5889985Y-9421250D02*
X5899509Y-9373631D01*
X5899509Y-9373631D02*
X5909032Y-9345059D01*
X5909032Y-9345059D02*
X5918556Y-9326012D01*
X5918556Y-9326012D02*
X5937604Y-9297440D01*
X5937604Y-9297440D02*
X5947128Y-9287916D01*
X6013794Y-9335535D02*
X6023318Y-9326012D01*
X6023318Y-9326012D02*
X6042366Y-9316488D01*
X6042366Y-9316488D02*
X6089985Y-9316488D01*
X6089985Y-9316488D02*
X6109032Y-9326012D01*
X6109032Y-9326012D02*
X6118556Y-9335535D01*
X6118556Y-9335535D02*
X6128080Y-9354583D01*
X6128080Y-9354583D02*
X6128080Y-9373631D01*
X6128080Y-9373631D02*
X6118556Y-9402202D01*
X6118556Y-9402202D02*
X6004270Y-9516488D01*
X6004270Y-9516488D02*
X6128080Y-9516488D01*
X6251889Y-9316488D02*
X6270937Y-9316488D01*
X6270937Y-9316488D02*
X6289985Y-9326012D01*
X6289985Y-9326012D02*
X6299509Y-9335535D01*
X6299509Y-9335535D02*
X6309032Y-9354583D01*
X6309032Y-9354583D02*
X6318556Y-9392678D01*
X6318556Y-9392678D02*
X6318556Y-9440297D01*
X6318556Y-9440297D02*
X6309032Y-9478393D01*
X6309032Y-9478393D02*
X6299509Y-9497440D01*
X6299509Y-9497440D02*
X6289985Y-9506964D01*
X6289985Y-9506964D02*
X6270937Y-9516488D01*
X6270937Y-9516488D02*
X6251889Y-9516488D01*
X6251889Y-9516488D02*
X6232842Y-9506964D01*
X6232842Y-9506964D02*
X6223318Y-9497440D01*
X6223318Y-9497440D02*
X6213794Y-9478393D01*
X6213794Y-9478393D02*
X6204270Y-9440297D01*
X6204270Y-9440297D02*
X6204270Y-9392678D01*
X6204270Y-9392678D02*
X6213794Y-9354583D01*
X6213794Y-9354583D02*
X6223318Y-9335535D01*
X6223318Y-9335535D02*
X6232842Y-9326012D01*
X6232842Y-9326012D02*
X6251889Y-9316488D01*
X6489985Y-9383154D02*
X6489985Y-9516488D01*
X6442366Y-9306964D02*
X6394747Y-9449821D01*
X6394747Y-9449821D02*
X6518556Y-9449821D01*
X6747128Y-9516488D02*
X6747128Y-9316488D01*
X6832842Y-9516488D02*
X6832842Y-9411726D01*
X6832842Y-9411726D02*
X6823318Y-9392678D01*
X6823318Y-9392678D02*
X6804271Y-9383154D01*
X6804271Y-9383154D02*
X6775699Y-9383154D01*
X6775699Y-9383154D02*
X6756651Y-9392678D01*
X6756651Y-9392678D02*
X6747128Y-9402202D01*
X6956651Y-9516488D02*
X6937604Y-9506964D01*
X6937604Y-9506964D02*
X6928080Y-9497440D01*
X6928080Y-9497440D02*
X6918556Y-9478393D01*
X6918556Y-9478393D02*
X6918556Y-9421250D01*
X6918556Y-9421250D02*
X6928080Y-9402202D01*
X6928080Y-9402202D02*
X6937604Y-9392678D01*
X6937604Y-9392678D02*
X6956651Y-9383154D01*
X6956651Y-9383154D02*
X6985223Y-9383154D01*
X6985223Y-9383154D02*
X7004271Y-9392678D01*
X7004271Y-9392678D02*
X7013794Y-9402202D01*
X7013794Y-9402202D02*
X7023318Y-9421250D01*
X7023318Y-9421250D02*
X7023318Y-9478393D01*
X7023318Y-9478393D02*
X7013794Y-9497440D01*
X7013794Y-9497440D02*
X7004271Y-9506964D01*
X7004271Y-9506964D02*
X6985223Y-9516488D01*
X6985223Y-9516488D02*
X6956651Y-9516488D01*
X7137604Y-9516488D02*
X7118556Y-9506964D01*
X7118556Y-9506964D02*
X7109032Y-9487916D01*
X7109032Y-9487916D02*
X7109032Y-9316488D01*
X7289985Y-9506964D02*
X7270937Y-9516488D01*
X7270937Y-9516488D02*
X7232842Y-9516488D01*
X7232842Y-9516488D02*
X7213794Y-9506964D01*
X7213794Y-9506964D02*
X7204271Y-9487916D01*
X7204271Y-9487916D02*
X7204271Y-9411726D01*
X7204271Y-9411726D02*
X7213794Y-9392678D01*
X7213794Y-9392678D02*
X7232842Y-9383154D01*
X7232842Y-9383154D02*
X7270937Y-9383154D01*
X7270937Y-9383154D02*
X7289985Y-9392678D01*
X7289985Y-9392678D02*
X7299509Y-9411726D01*
X7299509Y-9411726D02*
X7299509Y-9430774D01*
X7299509Y-9430774D02*
X7204271Y-9449821D01*
X7375699Y-9506964D02*
X7394747Y-9516488D01*
X7394747Y-9516488D02*
X7432842Y-9516488D01*
X7432842Y-9516488D02*
X7451890Y-9506964D01*
X7451890Y-9506964D02*
X7461413Y-9487916D01*
X7461413Y-9487916D02*
X7461413Y-9478393D01*
X7461413Y-9478393D02*
X7451890Y-9459345D01*
X7451890Y-9459345D02*
X7432842Y-9449821D01*
X7432842Y-9449821D02*
X7404271Y-9449821D01*
X7404271Y-9449821D02*
X7385223Y-9440297D01*
X7385223Y-9440297D02*
X7375699Y-9421250D01*
X7375699Y-9421250D02*
X7375699Y-9411726D01*
X7375699Y-9411726D02*
X7385223Y-9392678D01*
X7385223Y-9392678D02*
X7404271Y-9383154D01*
X7404271Y-9383154D02*
X7432842Y-9383154D01*
X7432842Y-9383154D02*
X7451890Y-9392678D01*
X7528080Y-9592678D02*
X7537604Y-9583154D01*
X7537604Y-9583154D02*
X7556652Y-9554583D01*
X7556652Y-9554583D02*
X7566175Y-9535535D01*
X7566175Y-9535535D02*
X7575699Y-9506964D01*
X7575699Y-9506964D02*
X7585223Y-9459345D01*
X7585223Y-9459345D02*
X7585223Y-9421250D01*
X7585223Y-9421250D02*
X7575699Y-9373631D01*
X7575699Y-9373631D02*
X7566175Y-9345059D01*
X7566175Y-9345059D02*
X7556652Y-9326012D01*
X7556652Y-9326012D02*
X7537604Y-9297440D01*
X7537604Y-9297440D02*
X7528080Y-9287916D01*
M02*
