%TF.GenerationSoftware,KiCad,Pcbnew,8.0.3*%
%TF.CreationDate,2024-10-06T18:51:06+08:00*%
%TF.ProjectId,Neko_Wireless_Transmission,4e656b6f-5f57-4697-9265-6c6573735f54,rev?*%
%TF.SameCoordinates,Original*%
%TF.FileFunction,Copper,L2,Bot*%
%TF.FilePolarity,Positive*%
%FSLAX46Y46*%
G04 Gerber Fmt 4.6, Leading zero omitted, Abs format (unit mm)*
G04 Created by KiCad (PCBNEW 8.0.3) date 2024-10-06 18:51:06*
%MOMM*%
%LPD*%
G01*
G04 APERTURE LIST*
G04 Aperture macros list*
%AMRoundRect*
0 Rectangle with rounded corners*
0 $1 Rounding radius*
0 $2 $3 $4 $5 $6 $7 $8 $9 X,Y pos of 4 corners*
0 Add a 4 corners polygon primitive as box body*
4,1,4,$2,$3,$4,$5,$6,$7,$8,$9,$2,$3,0*
0 Add four circle primitives for the rounded corners*
1,1,$1+$1,$2,$3*
1,1,$1+$1,$4,$5*
1,1,$1+$1,$6,$7*
1,1,$1+$1,$8,$9*
0 Add four rect primitives between the rounded corners*
20,1,$1+$1,$2,$3,$4,$5,0*
20,1,$1+$1,$4,$5,$6,$7,0*
20,1,$1+$1,$6,$7,$8,$9,0*
20,1,$1+$1,$8,$9,$2,$3,0*%
G04 Aperture macros list end*
%TA.AperFunction,SMDPad,CuDef*%
%ADD10RoundRect,0.140000X-0.170000X0.140000X-0.170000X-0.140000X0.170000X-0.140000X0.170000X0.140000X0*%
%TD*%
%TA.AperFunction,SMDPad,CuDef*%
%ADD11RoundRect,0.140000X0.140000X0.170000X-0.140000X0.170000X-0.140000X-0.170000X0.140000X-0.170000X0*%
%TD*%
%TA.AperFunction,SMDPad,CuDef*%
%ADD12RoundRect,0.140000X-0.140000X-0.170000X0.140000X-0.170000X0.140000X0.170000X-0.140000X0.170000X0*%
%TD*%
%TA.AperFunction,SMDPad,CuDef*%
%ADD13RoundRect,0.140000X0.170000X-0.140000X0.170000X0.140000X-0.170000X0.140000X-0.170000X-0.140000X0*%
%TD*%
%TA.AperFunction,SMDPad,CuDef*%
%ADD14RoundRect,0.160000X-0.160000X0.222500X-0.160000X-0.222500X0.160000X-0.222500X0.160000X0.222500X0*%
%TD*%
%TA.AperFunction,SMDPad,CuDef*%
%ADD15RoundRect,0.135000X-0.135000X-0.185000X0.135000X-0.185000X0.135000X0.185000X-0.135000X0.185000X0*%
%TD*%
%TA.AperFunction,ViaPad*%
%ADD16C,0.450000*%
%TD*%
%TA.AperFunction,ViaPad*%
%ADD17C,2.000000*%
%TD*%
%TA.AperFunction,Conductor*%
%ADD18C,0.150000*%
%TD*%
%TA.AperFunction,Conductor*%
%ADD19C,0.200000*%
%TD*%
%TA.AperFunction,Conductor*%
%ADD20C,0.300000*%
%TD*%
%TA.AperFunction,Conductor*%
%ADD21C,0.100000*%
%TD*%
G04 APERTURE END LIST*
D10*
%TO.P,C15,1*%
%TO.N,+3.3V*%
X39410000Y-68360000D03*
%TO.P,C15,2*%
%TO.N,GND*%
X39410000Y-69320000D03*
%TD*%
D11*
%TO.P,C22,1*%
%TO.N,+3.3VADC*%
X36580000Y-70280000D03*
%TO.P,C22,2*%
%TO.N,GND*%
X35620000Y-70280000D03*
%TD*%
D10*
%TO.P,C18,1*%
%TO.N,+3.3V*%
X36550000Y-66440000D03*
%TO.P,C18,2*%
%TO.N,GND*%
X36550000Y-67400000D03*
%TD*%
D12*
%TO.P,C7,1*%
%TO.N,+3.3V*%
X35580000Y-71270000D03*
%TO.P,C7,2*%
%TO.N,GND*%
X36540000Y-71270000D03*
%TD*%
D13*
%TO.P,C9,1*%
%TO.N,+3.3V*%
X34620000Y-71300000D03*
%TO.P,C9,2*%
%TO.N,GND*%
X34620000Y-70340000D03*
%TD*%
D14*
%TO.P,L2,1,1*%
%TO.N,+3.3V*%
X35480000Y-68277500D03*
%TO.P,L2,2,2*%
%TO.N,+3.3VADC*%
X35480000Y-69422500D03*
%TD*%
D10*
%TO.P,C11,1*%
%TO.N,+3.3V*%
X37530000Y-66440000D03*
%TO.P,C11,2*%
%TO.N,GND*%
X37530000Y-67400000D03*
%TD*%
D13*
%TO.P,C1,1*%
%TO.N,+3.3VADC*%
X38430000Y-69320000D03*
%TO.P,C1,2*%
%TO.N,GND*%
X38430000Y-68360000D03*
%TD*%
%TO.P,C20,1*%
%TO.N,/CAP1*%
X39410000Y-71210000D03*
%TO.P,C20,2*%
%TO.N,GND*%
X39410000Y-70250000D03*
%TD*%
D11*
%TO.P,C8,1*%
%TO.N,+3.3V*%
X39440000Y-67410000D03*
%TO.P,C8,2*%
%TO.N,GND*%
X38480000Y-67410000D03*
%TD*%
D15*
%TO.P,R2,1*%
%TO.N,/CAP2*%
X37450000Y-71270000D03*
%TO.P,R2,2*%
%TO.N,/CAP1*%
X38470000Y-71270000D03*
%TD*%
D12*
%TO.P,C10,1*%
%TO.N,+3.3V*%
X38480000Y-66430000D03*
%TO.P,C10,2*%
%TO.N,GND*%
X39440000Y-66430000D03*
%TD*%
D13*
%TO.P,C5,1*%
%TO.N,+3.3VADC*%
X36470000Y-69330000D03*
%TO.P,C5,2*%
%TO.N,GND*%
X36470000Y-68370000D03*
%TD*%
D12*
%TO.P,C19,1*%
%TO.N,/CAP2*%
X37500000Y-70280000D03*
%TO.P,C19,2*%
%TO.N,/CAP1*%
X38460000Y-70280000D03*
%TD*%
D13*
%TO.P,C2,1*%
%TO.N,+3.3VADC*%
X37450000Y-69330000D03*
%TO.P,C2,2*%
%TO.N,GND*%
X37450000Y-68370000D03*
%TD*%
D16*
%TO.N,/CSI_MCLK*%
X30830000Y-82560000D03*
X37021574Y-85604028D03*
X26960000Y-85680000D03*
X34950000Y-65330000D03*
X32470000Y-70430000D03*
%TO.N,/CAP2*%
X38550000Y-72540000D03*
%TO.N,+3.3V*%
X35930000Y-82180000D03*
X39160000Y-81450000D03*
X30760000Y-81610000D03*
X41235000Y-70005000D03*
X34410000Y-72530000D03*
X36550000Y-65330000D03*
D17*
X50770000Y-82860000D03*
D16*
X42870000Y-82210000D03*
X42870000Y-73110000D03*
X41220000Y-81400000D03*
%TO.N,/CSI_D0*%
X31250000Y-83440000D03*
X34010000Y-85650000D03*
%TO.N,/CSI_PCLK*%
X35040000Y-85240000D03*
X33143417Y-82975019D03*
%TO.N,/SDIO_D3*%
X29500000Y-69980000D03*
X30450000Y-67880000D03*
%TO.N,/CSI_D4*%
X43430000Y-71190000D03*
X42270000Y-71220000D03*
X42610000Y-69830000D03*
X43120000Y-76880000D03*
X40750000Y-76230000D03*
X34505091Y-76692054D03*
%TO.N,+3.3VADC*%
X36940000Y-73000000D03*
%TO.N,/CAM_PWR*%
X46590000Y-72960000D03*
X39880118Y-65444205D03*
%TO.N,/CSI_HSYNC*%
X33706278Y-86167452D03*
X32180000Y-82960000D03*
%TO.N,/CSI_D1*%
X33010000Y-83560000D03*
X31850000Y-83560000D03*
%TO.N,/CSI_D7*%
X42320000Y-72660000D03*
X34160000Y-78540000D03*
X37520000Y-85270000D03*
X42240000Y-76380000D03*
X38050000Y-81160000D03*
X40175671Y-65966366D03*
%TO.N,/U0RXD*%
X34190000Y-73760000D03*
D17*
X23770000Y-82840000D03*
D16*
%TO.N,/CSI_D5*%
X41336684Y-76355718D03*
X42770000Y-71860000D03*
X43470000Y-70220000D03*
X34220000Y-77220000D03*
%TO.N,/U0TXD*%
X35970000Y-73070000D03*
D17*
X23760000Y-85190000D03*
D16*
%TO.N,/CSI_D6*%
X36530000Y-85260000D03*
X40750000Y-66140000D03*
X34150000Y-77930000D03*
X41780000Y-75850000D03*
X41820000Y-72310000D03*
X36470000Y-81140000D03*
%TO.N,GND*%
X33990000Y-81570000D03*
X26610000Y-77320000D03*
X31760000Y-65730000D03*
X38950000Y-80820000D03*
X39010000Y-65180000D03*
X35170000Y-80280000D03*
X35760000Y-85410000D03*
X26610000Y-77990000D03*
X30750000Y-70970000D03*
X35860000Y-67480000D03*
X37960000Y-68820000D03*
X37570000Y-78020000D03*
D17*
X50760000Y-85210000D03*
D16*
X31780000Y-66430000D03*
X26610000Y-76650000D03*
X34540000Y-80270000D03*
X40210000Y-81160000D03*
X34790000Y-68880000D03*
X37540000Y-78540000D03*
X35850000Y-66970000D03*
X30750000Y-71560000D03*
X28390000Y-82920000D03*
X28910000Y-82920000D03*
X35340000Y-85760000D03*
X34790000Y-69380000D03*
%TO.N,/SDIO_CLK*%
X29435000Y-66930000D03*
X29440000Y-68460000D03*
%TO.N,/CAP1*%
X39150003Y-72540000D03*
%TO.N,/CSI_VSYNC*%
X40016541Y-64859918D03*
X42220000Y-85510000D03*
%TO.N,CSI_1.8V*%
X38520000Y-85520000D03*
X36980000Y-79210000D03*
%TO.N,/PSRAM_CS*%
X31570000Y-70610000D03*
X33830000Y-66240000D03*
X27520000Y-82890000D03*
X28810000Y-78930000D03*
%TO.N,/TWI_SCL*%
X43010000Y-80930000D03*
X41200000Y-64670000D03*
%TO.N,/PSRAM_CLK*%
X32440000Y-67480000D03*
X32030000Y-71040000D03*
%TO.N,/TWI_SDA*%
X42420000Y-81140000D03*
X40600000Y-64720000D03*
%TO.N,CSI_2.8V*%
X41500000Y-85240000D03*
X42860000Y-79180000D03*
%TD*%
D18*
%TO.N,/CSI_MCLK*%
X31310000Y-86670000D02*
X36660000Y-86670000D01*
X37021574Y-86308426D02*
X37021574Y-85604028D01*
D19*
X26980000Y-85660000D02*
X30300000Y-85660000D01*
D18*
X30300000Y-83090000D02*
X30300000Y-85660000D01*
X30300000Y-85660000D02*
X31310000Y-86670000D01*
D19*
X26960000Y-85680000D02*
X26980000Y-85660000D01*
D18*
X34200000Y-67720000D02*
X32470000Y-69450000D01*
X36660000Y-86670000D02*
X37021574Y-86308426D01*
X34950000Y-65330000D02*
X34950000Y-66970000D01*
X34950000Y-66970000D02*
X34200000Y-67720000D01*
X30830000Y-82560000D02*
X30300000Y-83090000D01*
X32470000Y-69450000D02*
X32470000Y-70430000D01*
%TO.N,/CAP2*%
X38550000Y-72540000D02*
X38220000Y-72540000D01*
X38220000Y-72540000D02*
X37990000Y-72310000D01*
X37500000Y-70280000D02*
X37500000Y-71220000D01*
X37990000Y-71330000D02*
X37930000Y-71270000D01*
X37990000Y-72310000D02*
X37990000Y-71330000D01*
X37930000Y-71270000D02*
X37450000Y-71270000D01*
X37500000Y-71220000D02*
X37450000Y-71270000D01*
%TO.N,+3.3V*%
X35480000Y-68277500D02*
X35480000Y-68740000D01*
X38480000Y-66430000D02*
X38480000Y-66450000D01*
X34135000Y-68685000D02*
X34542500Y-68277500D01*
X41235000Y-69575000D02*
X40020000Y-68360000D01*
D19*
X40530000Y-78740000D02*
X41630000Y-77640000D01*
D18*
X41235000Y-70005000D02*
X41235000Y-69575000D01*
X36550000Y-66440000D02*
X38470000Y-66440000D01*
X37035321Y-68025321D02*
X37035321Y-66934679D01*
X34620000Y-71300000D02*
X35550000Y-71300000D01*
D19*
X41630000Y-77640000D02*
X41651752Y-77640000D01*
D18*
X34620000Y-71300000D02*
X34135000Y-70815000D01*
X36780000Y-68840000D02*
X36960000Y-68660000D01*
D19*
X41651752Y-77640000D02*
X42880000Y-76411752D01*
X41235000Y-70005000D02*
X41235000Y-72415000D01*
D18*
X37035321Y-66934679D02*
X37530000Y-66440000D01*
D19*
X42845000Y-73135000D02*
X42870000Y-73110000D01*
D18*
X35550000Y-71300000D02*
X35580000Y-71270000D01*
X39410000Y-68360000D02*
X39410000Y-67440000D01*
X36550000Y-65330000D02*
X36550000Y-66440000D01*
D20*
X45200000Y-82210000D02*
X45850000Y-82860000D01*
D18*
X34135000Y-70815000D02*
X34135000Y-68685000D01*
X34410000Y-72530000D02*
X34410000Y-71510000D01*
D19*
X39940000Y-80670000D02*
X39160000Y-81450000D01*
X41235000Y-72415000D02*
X41955000Y-73135000D01*
X41220000Y-81400000D02*
X41220000Y-81360000D01*
D18*
X34410000Y-71510000D02*
X34620000Y-71300000D01*
X35580000Y-68840000D02*
X36780000Y-68840000D01*
D19*
X34620000Y-80870000D02*
X31500000Y-80870000D01*
X35930000Y-82180000D02*
X34620000Y-80870000D01*
D18*
X40020000Y-68360000D02*
X39410000Y-68360000D01*
D19*
X42880000Y-73120000D02*
X42870000Y-73110000D01*
D18*
X35480000Y-68740000D02*
X35580000Y-68840000D01*
X36960000Y-68100642D02*
X37035321Y-68025321D01*
D19*
X40530000Y-80670000D02*
X39940000Y-80670000D01*
D18*
X39410000Y-67440000D02*
X39440000Y-67410000D01*
D19*
X31500000Y-80870000D02*
X30760000Y-81610000D01*
D18*
X34542500Y-68277500D02*
X35480000Y-68277500D01*
X38470000Y-66440000D02*
X38480000Y-66430000D01*
X36960000Y-68660000D02*
X36960000Y-68100642D01*
D20*
X45850000Y-82860000D02*
X50740000Y-82860000D01*
X42870000Y-82210000D02*
X45200000Y-82210000D01*
D18*
X38480000Y-66450000D02*
X39440000Y-67410000D01*
D19*
X41955000Y-73135000D02*
X42845000Y-73135000D01*
X40530000Y-80670000D02*
X40530000Y-78740000D01*
X41220000Y-81360000D02*
X40530000Y-80670000D01*
X42880000Y-76411752D02*
X42880000Y-73120000D01*
D18*
%TO.N,/CSI_D0*%
X31250000Y-83440000D02*
X31250000Y-85330000D01*
X31580000Y-85660000D02*
X34000000Y-85660000D01*
X31250000Y-85330000D02*
X31580000Y-85660000D01*
X34000000Y-85660000D02*
X34010000Y-85650000D01*
%TO.N,/CSI_PCLK*%
X33143417Y-82975019D02*
X33460000Y-83291602D01*
X33740000Y-85200000D02*
X35000000Y-85200000D01*
X33460000Y-84920000D02*
X33740000Y-85200000D01*
X33460000Y-83291602D02*
X33460000Y-84920000D01*
X35000000Y-85200000D02*
X35040000Y-85240000D01*
%TO.N,/SDIO_D3*%
X30010000Y-68320000D02*
X30450000Y-67880000D01*
X30010000Y-69470000D02*
X30010000Y-68320000D01*
X29500000Y-69980000D02*
X30010000Y-69470000D01*
%TO.N,/CSI_D4*%
X42270000Y-71220000D02*
X42270000Y-70170000D01*
X43120000Y-76880000D02*
X43430000Y-76570000D01*
X43430000Y-76570000D02*
X43430000Y-71190000D01*
X34505091Y-76692054D02*
X35327284Y-76692054D01*
X42270000Y-70170000D02*
X42610000Y-69830000D01*
X35589338Y-76430000D02*
X40550000Y-76430000D01*
X40550000Y-76430000D02*
X40750000Y-76230000D01*
X35327284Y-76692054D02*
X35589338Y-76430000D01*
%TO.N,+3.3VADC*%
X36470000Y-70170000D02*
X36580000Y-70280000D01*
X37460000Y-69320000D02*
X37450000Y-69330000D01*
X37005000Y-72935000D02*
X37005000Y-70705000D01*
X35480000Y-69422500D02*
X36377500Y-69422500D01*
X37005000Y-70705000D02*
X36580000Y-70280000D01*
X36940000Y-73000000D02*
X37005000Y-72935000D01*
X38430000Y-69320000D02*
X37460000Y-69320000D01*
X36377500Y-69422500D02*
X36470000Y-69330000D01*
X36470000Y-69330000D02*
X37450000Y-69330000D01*
X36470000Y-69330000D02*
X36470000Y-70170000D01*
%TO.N,/CAM_PWR*%
X44960000Y-72660000D02*
X45260000Y-72960000D01*
X42200000Y-68086446D02*
X42303554Y-68190000D01*
X41376397Y-64210000D02*
X41650000Y-64483603D01*
X41650000Y-64989387D02*
X42200000Y-65539387D01*
X39880118Y-65444205D02*
X39440000Y-65004087D01*
X43267059Y-68190000D02*
X44960000Y-69882941D01*
X42303554Y-68190000D02*
X43267059Y-68190000D01*
X39440000Y-65004087D02*
X39440000Y-64450000D01*
X39680000Y-64210000D02*
X41376397Y-64210000D01*
X42200000Y-65539387D02*
X42200000Y-68086446D01*
X44960000Y-69882941D02*
X44960000Y-72660000D01*
X45260000Y-72960000D02*
X46590000Y-72960000D01*
X41650000Y-64483603D02*
X41650000Y-64989387D01*
X39440000Y-64450000D02*
X39680000Y-64210000D01*
%TO.N,/CSI_HSYNC*%
X32180000Y-82960000D02*
X31093603Y-82960000D01*
X30800000Y-83253603D02*
X30800000Y-85510000D01*
X31093603Y-82960000D02*
X30800000Y-83253603D01*
X31457452Y-86167452D02*
X33706278Y-86167452D01*
X31330000Y-86040000D02*
X31457452Y-86167452D01*
X30800000Y-85510000D02*
X31330000Y-86040000D01*
%TO.N,/CSI_D1*%
X33010000Y-83560000D02*
X31850000Y-83560000D01*
%TO.N,/CSI_D7*%
X41935000Y-69551446D02*
X41935000Y-70294950D01*
X42240000Y-76380000D02*
X42240000Y-76473553D01*
X41760000Y-71613603D02*
X42320000Y-72173603D01*
X34540000Y-78540000D02*
X34160000Y-78540000D01*
X38050000Y-81160000D02*
X37800000Y-81160000D01*
X40563603Y-65690000D02*
X40936397Y-65690000D01*
X40300000Y-65953603D02*
X40563603Y-65690000D01*
X41533553Y-77180000D02*
X35900000Y-77180000D01*
X41200000Y-68816446D02*
X41935000Y-69551446D01*
X41200000Y-65953603D02*
X41200000Y-68816446D01*
X35900000Y-77180000D02*
X34540000Y-78540000D01*
X40936397Y-65690000D02*
X41200000Y-65953603D01*
X37520000Y-81440000D02*
X37520000Y-85270000D01*
X42320000Y-72173603D02*
X42320000Y-72660000D01*
X40175671Y-65966366D02*
X40300000Y-65966366D01*
X40300000Y-65966366D02*
X40300000Y-65953603D01*
X37800000Y-81160000D02*
X37520000Y-81440000D01*
X41935000Y-70294950D02*
X41760000Y-70469950D01*
X41760000Y-70469950D02*
X41760000Y-71613603D01*
X42240000Y-76473553D02*
X41533553Y-77180000D01*
%TO.N,/U0RXD*%
X26740000Y-82610000D02*
X26510000Y-82840000D01*
X34190000Y-73760000D02*
X32190000Y-73760000D01*
X26740000Y-79210000D02*
X26740000Y-82610000D01*
X26510000Y-82840000D02*
X24350000Y-82840000D01*
X32190000Y-73760000D02*
X26740000Y-79210000D01*
%TO.N,/CSI_D5*%
X43470000Y-70490000D02*
X42770000Y-71190000D01*
X40936397Y-76680000D02*
X41260679Y-76355718D01*
X43470000Y-70220000D02*
X43470000Y-70490000D01*
X42770000Y-71190000D02*
X42770000Y-71860000D01*
X35692892Y-76680000D02*
X40936397Y-76680000D01*
X34220000Y-77220000D02*
X35152892Y-77220000D01*
X35152892Y-77220000D02*
X35692892Y-76680000D01*
X41260679Y-76355718D02*
X41336684Y-76355718D01*
%TO.N,/U0TXD*%
X26280000Y-85190000D02*
X24340000Y-85190000D01*
X27070000Y-79530000D02*
X27070000Y-84400000D01*
X34760000Y-74280000D02*
X32320000Y-74280000D01*
X27070000Y-84400000D02*
X26280000Y-85190000D01*
X32320000Y-74280000D02*
X27070000Y-79530000D01*
X35970000Y-73070000D02*
X34760000Y-74280000D01*
%TO.N,/CSI_D6*%
X41685000Y-69671446D02*
X41685000Y-70191397D01*
X41510000Y-70366397D02*
X41510000Y-72000000D01*
X41510000Y-72000000D02*
X41810000Y-72300000D01*
X34150000Y-77930000D02*
X34796446Y-77930000D01*
D21*
X41810000Y-72300000D02*
X41820000Y-72310000D01*
D18*
X41786684Y-76542115D02*
X41786684Y-75856684D01*
X34796446Y-77930000D02*
X35796446Y-76930000D01*
X36470000Y-85200000D02*
X36530000Y-85260000D01*
X41685000Y-70191397D02*
X41510000Y-70366397D01*
X35796446Y-76930000D02*
X41398799Y-76930000D01*
X41398799Y-76930000D02*
X41786684Y-76542115D01*
X40750000Y-66140000D02*
X40750000Y-68736446D01*
X41786684Y-75856684D02*
X41780000Y-75850000D01*
X40750000Y-68736446D02*
X41685000Y-69671446D01*
X36470000Y-81140000D02*
X36470000Y-85200000D01*
%TO.N,GND*%
X39440000Y-66430000D02*
X39440000Y-65610000D01*
X39440000Y-65610000D02*
X39010000Y-65180000D01*
%TO.N,/SDIO_CLK*%
X29440000Y-68460000D02*
X29440000Y-66935000D01*
X29440000Y-66935000D02*
X29435000Y-66930000D01*
%TO.N,/CAP1*%
X39150003Y-71950003D02*
X39150003Y-72540000D01*
X38530000Y-71210000D02*
X38470000Y-71270000D01*
X38470000Y-71270000D02*
X39150003Y-71950003D01*
X38460000Y-70280000D02*
X38460000Y-71260000D01*
X38460000Y-71260000D02*
X38470000Y-71270000D01*
X39410000Y-71210000D02*
X38530000Y-71210000D01*
%TO.N,/CSI_VSYNC*%
X44200000Y-79032892D02*
X43002892Y-80230000D01*
X41820000Y-68940000D02*
X42956397Y-68940000D01*
X40016541Y-64859918D02*
X40596623Y-65440000D01*
X42693603Y-80230000D02*
X41970000Y-80953603D01*
X41450000Y-68570000D02*
X41820000Y-68940000D01*
X42956397Y-68940000D02*
X44200000Y-70183603D01*
X41970000Y-80953603D02*
X41970000Y-85260000D01*
X41450000Y-65850049D02*
X41450000Y-68570000D01*
X43002892Y-80230000D02*
X42693603Y-80230000D01*
X44200000Y-70183603D02*
X44200000Y-79032892D01*
X40596623Y-65440000D02*
X41039951Y-65440000D01*
X41039951Y-65440000D02*
X41450000Y-65850049D01*
X41970000Y-85260000D02*
X42220000Y-85510000D01*
D19*
%TO.N,CSI_1.8V*%
X38070000Y-79210000D02*
X36980000Y-79210000D01*
X38525000Y-79665000D02*
X38300000Y-79440000D01*
X38525000Y-85515000D02*
X38525000Y-79665000D01*
X38520000Y-85520000D02*
X38525000Y-85515000D01*
X38300000Y-79440000D02*
X38070000Y-79210000D01*
D18*
%TO.N,/PSRAM_CS*%
X28810000Y-78930000D02*
X28320000Y-78930000D01*
X32040000Y-66940000D02*
X32740000Y-66240000D01*
X32740000Y-66240000D02*
X33830000Y-66240000D01*
X27520000Y-79730000D02*
X27520000Y-82890000D01*
X28320000Y-78930000D02*
X27520000Y-79730000D01*
X31570000Y-67410000D02*
X32040000Y-66940000D01*
X31570000Y-70610000D02*
X31570000Y-67410000D01*
%TO.N,/TWI_SCL*%
X42200000Y-68440000D02*
X41950000Y-68190000D01*
X44700000Y-79240000D02*
X44700000Y-69976495D01*
X41200000Y-64892941D02*
X41200000Y-64670000D01*
X41950000Y-68190000D02*
X41950000Y-65642941D01*
X43010000Y-80930000D02*
X44700000Y-79240000D01*
X43163505Y-68440000D02*
X42200000Y-68440000D01*
X41950000Y-65642941D02*
X41200000Y-64892941D01*
X44700000Y-69976495D02*
X43163505Y-68440000D01*
%TO.N,/PSRAM_CLK*%
X32020000Y-67900000D02*
X32020000Y-71030000D01*
X32020000Y-71030000D02*
X32030000Y-71040000D01*
X32440000Y-67480000D02*
X32020000Y-67900000D01*
%TO.N,/TWI_SDA*%
X41700000Y-65746495D02*
X41700000Y-68370000D01*
X42420000Y-80883603D02*
X42420000Y-81140000D01*
X43106446Y-80480000D02*
X42823603Y-80480000D01*
X42823603Y-80480000D02*
X42420000Y-80883603D01*
X43059951Y-68690000D02*
X44450000Y-70080049D01*
X40760000Y-65120000D02*
X41073505Y-65120000D01*
X42020000Y-68690000D02*
X43059951Y-68690000D01*
X41700000Y-68370000D02*
X42020000Y-68690000D01*
X44450000Y-79136446D02*
X43106446Y-80480000D01*
X44450000Y-70080049D02*
X44450000Y-79136446D01*
X40600000Y-64960000D02*
X40760000Y-65120000D01*
X41073505Y-65120000D02*
X41700000Y-65746495D01*
X40600000Y-64720000D02*
X40600000Y-64960000D01*
D19*
%TO.N,CSI_2.8V*%
X41500000Y-85240000D02*
X41695000Y-85045000D01*
X41695000Y-85045000D02*
X41695000Y-80345000D01*
X41695000Y-80345000D02*
X42860000Y-79180000D01*
%TD*%
%TA.AperFunction,Conductor*%
%TO.N,GND*%
G36*
X35045148Y-68467352D02*
G01*
X35059500Y-68502000D01*
X35059500Y-68525654D01*
X35071763Y-68587305D01*
X35074615Y-68601642D01*
X35132189Y-68687810D01*
X35160841Y-68706954D01*
X35218358Y-68745385D01*
X35273220Y-68756297D01*
X35304402Y-68777133D01*
X35308929Y-68785603D01*
X35331218Y-68839413D01*
X35331219Y-68839414D01*
X35331220Y-68839416D01*
X35347656Y-68855852D01*
X35362008Y-68890500D01*
X35347656Y-68925148D01*
X35313008Y-68939500D01*
X35294346Y-68939500D01*
X35244073Y-68949500D01*
X35218357Y-68954615D01*
X35132189Y-69012189D01*
X35074615Y-69098357D01*
X35073512Y-69103904D01*
X35059500Y-69174346D01*
X35059500Y-69174347D01*
X35059500Y-69174349D01*
X35059500Y-69546571D01*
X35045148Y-69581219D01*
X35010500Y-69595571D01*
X34996830Y-69593625D01*
X34890917Y-69562855D01*
X34890913Y-69562854D01*
X34870000Y-69561208D01*
X34870000Y-70030000D01*
X35821000Y-70030000D01*
X35855648Y-70044352D01*
X35870000Y-70079000D01*
X35870000Y-70481000D01*
X35855648Y-70515648D01*
X35821000Y-70530000D01*
X35473000Y-70530000D01*
X35473000Y-70541000D01*
X35458648Y-70575648D01*
X35424000Y-70590000D01*
X34359500Y-70590000D01*
X34324852Y-70575648D01*
X34310500Y-70541000D01*
X34310500Y-70139000D01*
X34324852Y-70104352D01*
X34359500Y-70090000D01*
X34370000Y-70090000D01*
X34370000Y-69561209D01*
X34369999Y-69561208D01*
X34363344Y-69561732D01*
X34327677Y-69550142D01*
X34310651Y-69516727D01*
X34310500Y-69512883D01*
X34310500Y-68777991D01*
X34324852Y-68743343D01*
X34600843Y-68467352D01*
X34635491Y-68453000D01*
X35010500Y-68453000D01*
X35045148Y-68467352D01*
G37*
%TD.AperFunction*%
%TA.AperFunction,Conductor*%
G36*
X38376846Y-67160000D02*
G01*
X38681000Y-67160000D01*
X38715648Y-67174352D01*
X38730000Y-67209000D01*
X38730000Y-68214000D01*
X38715648Y-68248648D01*
X38681000Y-68263000D01*
X38680000Y-68263000D01*
X38680000Y-68561000D01*
X38665648Y-68595648D01*
X38631000Y-68610000D01*
X38296846Y-68610000D01*
X38272704Y-68620000D01*
X37184500Y-68620000D01*
X37149852Y-68605648D01*
X37135500Y-68571000D01*
X37135500Y-68193633D01*
X37149852Y-68158985D01*
X37174486Y-68134351D01*
X37193541Y-68126458D01*
X37200000Y-68120000D01*
X37200000Y-68110000D01*
X37780000Y-68110000D01*
X38180000Y-68110000D01*
X38180000Y-67660000D01*
X37780000Y-67660000D01*
X37780000Y-68110000D01*
X37200000Y-68110000D01*
X37200000Y-68096101D01*
X37203730Y-68077349D01*
X37210821Y-68060230D01*
X37210821Y-67990412D01*
X37210821Y-67199000D01*
X37225173Y-67164352D01*
X37259821Y-67150000D01*
X38352704Y-67150000D01*
X38376846Y-67160000D01*
G37*
%TD.AperFunction*%
%TA.AperFunction,Conductor*%
G36*
X49271452Y-63351347D02*
G01*
X49438618Y-63365976D01*
X49447026Y-63367458D01*
X49607041Y-63410338D01*
X49615052Y-63413253D01*
X49765195Y-63483267D01*
X49772589Y-63487537D01*
X49908284Y-63582553D01*
X49914826Y-63588043D01*
X50031956Y-63705173D01*
X50037446Y-63711715D01*
X50132462Y-63847410D01*
X50136733Y-63854807D01*
X50206743Y-64004940D01*
X50209664Y-64012966D01*
X50252540Y-64172971D01*
X50254023Y-64181382D01*
X50268652Y-64348536D01*
X50268839Y-64352808D01*
X50268839Y-81848636D01*
X50254487Y-81883284D01*
X50245634Y-81890297D01*
X50103957Y-81978020D01*
X50088940Y-81991711D01*
X50055928Y-82004500D01*
X49343995Y-82004500D01*
X49321574Y-82006910D01*
X49321570Y-82006911D01*
X49270064Y-82018116D01*
X49223400Y-82041474D01*
X49170597Y-82087228D01*
X49138457Y-82137239D01*
X49118773Y-82204276D01*
X49114500Y-82233997D01*
X49114500Y-82560500D01*
X49100148Y-82595148D01*
X49065500Y-82609500D01*
X45974056Y-82609500D01*
X45939408Y-82595148D01*
X45341899Y-81997637D01*
X45323896Y-81990180D01*
X45294537Y-81978019D01*
X45249829Y-81959500D01*
X45249828Y-81959500D01*
X43170834Y-81959500D01*
X43136186Y-81945148D01*
X43093465Y-81902427D01*
X43093458Y-81902422D01*
X42987484Y-81848427D01*
X42987483Y-81848426D01*
X42987482Y-81848426D01*
X42870000Y-81829819D01*
X42752518Y-81848426D01*
X42752516Y-81848426D01*
X42752515Y-81848427D01*
X42646541Y-81902422D01*
X42646534Y-81902427D01*
X42562427Y-81986534D01*
X42562422Y-81986541D01*
X42508427Y-82092515D01*
X42508426Y-82092516D01*
X42508426Y-82092518D01*
X42489819Y-82210000D01*
X42508426Y-82327482D01*
X42508426Y-82327483D01*
X42508427Y-82327484D01*
X42562422Y-82433458D01*
X42562427Y-82433465D01*
X42646534Y-82517572D01*
X42646541Y-82517577D01*
X42713429Y-82551657D01*
X42752518Y-82571574D01*
X42870000Y-82590181D01*
X42987482Y-82571574D01*
X43060988Y-82534120D01*
X43093458Y-82517577D01*
X43093460Y-82517575D01*
X43093465Y-82517573D01*
X43136186Y-82474852D01*
X43170834Y-82460500D01*
X45075943Y-82460500D01*
X45110591Y-82474852D01*
X45634840Y-82999100D01*
X45634843Y-82999104D01*
X45708100Y-83072362D01*
X45708101Y-83072362D01*
X45708103Y-83072364D01*
X45800172Y-83110500D01*
X49065500Y-83110500D01*
X49100148Y-83124852D01*
X49114500Y-83159500D01*
X49114500Y-83506005D01*
X49116910Y-83528425D01*
X49116911Y-83528427D01*
X49128117Y-83579938D01*
X49151474Y-83626599D01*
X49197229Y-83679403D01*
X49223892Y-83696538D01*
X49247239Y-83711542D01*
X49282791Y-83721981D01*
X49314276Y-83731226D01*
X49344000Y-83735500D01*
X50079550Y-83735500D01*
X50105344Y-83742838D01*
X50213333Y-83809702D01*
X50245634Y-83829702D01*
X50267537Y-83860144D01*
X50268839Y-83871363D01*
X50268839Y-84460000D01*
X49210000Y-84460000D01*
X49210000Y-85980000D01*
X50268839Y-85980000D01*
X50268839Y-88347191D01*
X50268652Y-88351463D01*
X50254024Y-88518617D01*
X50252541Y-88527028D01*
X50209665Y-88687034D01*
X50206744Y-88695060D01*
X50136731Y-88845196D01*
X50132460Y-88852592D01*
X50037449Y-88988281D01*
X50031959Y-88994824D01*
X49914824Y-89111959D01*
X49908281Y-89117449D01*
X49772592Y-89212460D01*
X49765196Y-89216731D01*
X49615060Y-89286744D01*
X49607034Y-89289665D01*
X49447028Y-89332541D01*
X49438617Y-89334024D01*
X49271464Y-89348653D01*
X49267192Y-89348840D01*
X25272808Y-89348840D01*
X25268536Y-89348653D01*
X25101382Y-89334024D01*
X25092971Y-89332541D01*
X24932965Y-89289665D01*
X24924939Y-89286744D01*
X24774803Y-89216731D01*
X24767407Y-89212460D01*
X24631718Y-89117449D01*
X24625175Y-89111959D01*
X24508040Y-88994824D01*
X24502550Y-88988281D01*
X24407539Y-88852592D01*
X24403268Y-88845196D01*
X24384511Y-88804974D01*
X24333252Y-88695052D01*
X24330337Y-88687042D01*
X24287457Y-88527026D01*
X24285975Y-88518617D01*
X24271347Y-88351463D01*
X24271160Y-88347191D01*
X24271160Y-86195172D01*
X24285512Y-86160524D01*
X24294365Y-86153511D01*
X24317134Y-86139413D01*
X24424655Y-86072838D01*
X24450450Y-86065500D01*
X25196005Y-86065500D01*
X25212019Y-86063777D01*
X25218427Y-86063089D01*
X25269938Y-86051883D01*
X25316599Y-86028526D01*
X25369403Y-85982771D01*
X25401541Y-85932763D01*
X25421226Y-85865724D01*
X25425500Y-85836000D01*
X25425500Y-85680000D01*
X26579819Y-85680000D01*
X26598426Y-85797482D01*
X26598426Y-85797483D01*
X26598427Y-85797484D01*
X26652422Y-85903458D01*
X26652427Y-85903465D01*
X26736534Y-85987572D01*
X26736541Y-85987577D01*
X26806418Y-86023180D01*
X26842518Y-86041574D01*
X26960000Y-86060181D01*
X27077482Y-86041574D01*
X27174871Y-85991952D01*
X27183458Y-85987577D01*
X27183460Y-85987575D01*
X27183465Y-85987573D01*
X27267573Y-85903465D01*
X27275833Y-85887253D01*
X27304351Y-85862898D01*
X27319492Y-85860500D01*
X30232009Y-85860500D01*
X30266657Y-85874852D01*
X31210584Y-86818780D01*
X31210585Y-86818781D01*
X31210586Y-86818781D01*
X31210587Y-86818782D01*
X31275091Y-86845501D01*
X31275093Y-86845501D01*
X31350610Y-86845501D01*
X31350618Y-86845500D01*
X36694907Y-86845500D01*
X36694909Y-86845500D01*
X36759413Y-86818782D01*
X36759415Y-86818780D01*
X36759416Y-86818780D01*
X37170354Y-86407842D01*
X37170354Y-86407841D01*
X37170356Y-86407839D01*
X37197074Y-86343335D01*
X37197074Y-86273517D01*
X37197074Y-85966067D01*
X37211426Y-85931419D01*
X37223828Y-85922408D01*
X37245039Y-85911601D01*
X37329147Y-85827493D01*
X37334200Y-85817577D01*
X37371965Y-85743458D01*
X37383148Y-85721510D01*
X37389852Y-85679180D01*
X37409447Y-85647203D01*
X37445913Y-85638447D01*
X37520000Y-85650181D01*
X37637482Y-85631574D01*
X37720548Y-85589250D01*
X37743458Y-85577577D01*
X37743460Y-85577575D01*
X37743465Y-85577573D01*
X37827573Y-85493465D01*
X37832669Y-85483465D01*
X37856188Y-85437305D01*
X37881574Y-85387482D01*
X37900181Y-85270000D01*
X37881574Y-85152518D01*
X37863573Y-85117190D01*
X37827577Y-85046541D01*
X37827572Y-85046534D01*
X37743468Y-84962430D01*
X37743465Y-84962427D01*
X37722252Y-84951618D01*
X37697898Y-84923101D01*
X37695500Y-84907960D01*
X37695500Y-81532990D01*
X37709851Y-81498343D01*
X37748930Y-81459263D01*
X37783578Y-81444912D01*
X37818226Y-81459264D01*
X37826534Y-81467572D01*
X37826541Y-81467577D01*
X37888773Y-81499285D01*
X37932518Y-81521574D01*
X38050000Y-81540181D01*
X38167482Y-81521574D01*
X38224514Y-81492515D01*
X38253255Y-81477871D01*
X38290642Y-81474928D01*
X38319159Y-81499285D01*
X38324500Y-81521530D01*
X38324500Y-85168151D01*
X38310148Y-85202799D01*
X38297747Y-85211809D01*
X38296540Y-85212423D01*
X38296531Y-85212430D01*
X38212427Y-85296534D01*
X38212422Y-85296541D01*
X38158427Y-85402515D01*
X38158426Y-85402516D01*
X38158426Y-85402518D01*
X38139819Y-85520000D01*
X38158426Y-85637482D01*
X38158426Y-85637483D01*
X38158427Y-85637484D01*
X38212422Y-85743458D01*
X38212427Y-85743465D01*
X38296534Y-85827572D01*
X38296541Y-85827577D01*
X38359939Y-85859879D01*
X38402518Y-85881574D01*
X38520000Y-85900181D01*
X38637482Y-85881574D01*
X38710988Y-85844120D01*
X38743458Y-85827577D01*
X38743460Y-85827575D01*
X38743465Y-85827573D01*
X38827573Y-85743465D01*
X38832669Y-85733465D01*
X38859910Y-85680000D01*
X38881574Y-85637482D01*
X38900181Y-85520000D01*
X38881574Y-85402518D01*
X38862410Y-85364906D01*
X38827577Y-85296541D01*
X38827571Y-85296533D01*
X38740739Y-85209700D01*
X38742158Y-85208280D01*
X38726100Y-85182052D01*
X38725500Y-85174407D01*
X38725500Y-81628456D01*
X38739852Y-81593808D01*
X38774500Y-81579456D01*
X38809148Y-81593808D01*
X38818157Y-81606208D01*
X38826951Y-81623465D01*
X38852425Y-81673462D01*
X38852427Y-81673465D01*
X38936534Y-81757572D01*
X38936541Y-81757577D01*
X39007190Y-81793573D01*
X39042518Y-81811574D01*
X39160000Y-81830181D01*
X39277482Y-81811574D01*
X39375617Y-81761572D01*
X39383458Y-81757577D01*
X39383460Y-81757575D01*
X39383465Y-81757573D01*
X39467573Y-81673465D01*
X39521574Y-81567482D01*
X39540181Y-81450000D01*
X39530873Y-81391237D01*
X39539628Y-81354773D01*
X39544615Y-81348933D01*
X40008698Y-80884852D01*
X40043346Y-80870500D01*
X40426654Y-80870500D01*
X40461302Y-80884852D01*
X40840846Y-81264395D01*
X40855198Y-81299043D01*
X40854595Y-81306704D01*
X40839819Y-81400000D01*
X40858426Y-81517482D01*
X40858426Y-81517483D01*
X40858427Y-81517484D01*
X40912422Y-81623458D01*
X40912427Y-81623465D01*
X40996534Y-81707572D01*
X40996541Y-81707577D01*
X41058773Y-81739285D01*
X41102518Y-81761574D01*
X41220000Y-81780181D01*
X41337482Y-81761574D01*
X41394393Y-81732575D01*
X41423255Y-81717871D01*
X41460642Y-81714928D01*
X41489159Y-81739285D01*
X41494500Y-81761530D01*
X41494500Y-84818840D01*
X41480148Y-84853488D01*
X41453165Y-84867236D01*
X41382518Y-84878426D01*
X41382516Y-84878426D01*
X41382515Y-84878427D01*
X41276541Y-84932422D01*
X41276534Y-84932427D01*
X41192427Y-85016534D01*
X41192422Y-85016541D01*
X41138427Y-85122515D01*
X41138426Y-85122516D01*
X41138426Y-85122518D01*
X41119819Y-85240000D01*
X41138426Y-85357482D01*
X41138426Y-85357483D01*
X41138427Y-85357484D01*
X41192422Y-85463458D01*
X41192427Y-85463465D01*
X41276534Y-85547572D01*
X41276541Y-85547577D01*
X41335411Y-85577572D01*
X41382518Y-85601574D01*
X41500000Y-85620181D01*
X41617482Y-85601574D01*
X41699543Y-85559762D01*
X41723458Y-85547577D01*
X41723459Y-85547575D01*
X41723465Y-85547573D01*
X41761048Y-85509989D01*
X41795693Y-85495639D01*
X41830342Y-85509990D01*
X41844091Y-85536973D01*
X41858426Y-85627482D01*
X41858426Y-85627483D01*
X41858427Y-85627485D01*
X41912422Y-85733458D01*
X41912427Y-85733465D01*
X41996534Y-85817572D01*
X41996541Y-85817577D01*
X42059886Y-85849852D01*
X42102518Y-85871574D01*
X42220000Y-85890181D01*
X42337482Y-85871574D01*
X42440280Y-85819196D01*
X42443458Y-85817577D01*
X42443460Y-85817575D01*
X42443465Y-85817573D01*
X42527573Y-85733465D01*
X42533663Y-85721514D01*
X42544120Y-85700988D01*
X42581574Y-85627482D01*
X42600181Y-85510000D01*
X42581574Y-85392518D01*
X42563573Y-85357190D01*
X42527577Y-85286541D01*
X42527572Y-85286534D01*
X42443465Y-85202427D01*
X42443458Y-85202422D01*
X42337484Y-85148427D01*
X42337483Y-85148426D01*
X42337482Y-85148426D01*
X42220000Y-85129819D01*
X42219998Y-85129819D01*
X42202163Y-85132643D01*
X42165697Y-85123886D01*
X42146103Y-85091909D01*
X42145500Y-85084246D01*
X42145500Y-81501530D01*
X42159852Y-81466882D01*
X42194500Y-81452530D01*
X42216745Y-81457871D01*
X42235785Y-81467572D01*
X42302518Y-81501574D01*
X42420000Y-81520181D01*
X42537482Y-81501574D01*
X42623254Y-81457871D01*
X42643458Y-81447577D01*
X42643460Y-81447575D01*
X42643465Y-81447573D01*
X42727573Y-81363465D01*
X42768405Y-81283327D01*
X42796920Y-81258972D01*
X42834306Y-81261913D01*
X42834308Y-81261914D01*
X42834308Y-81261915D01*
X42853205Y-81271543D01*
X42892518Y-81291574D01*
X43010000Y-81310181D01*
X43127482Y-81291574D01*
X43212165Y-81248426D01*
X43233458Y-81237577D01*
X43233460Y-81237575D01*
X43233465Y-81237573D01*
X43317573Y-81153465D01*
X43371574Y-81047482D01*
X43390181Y-80930000D01*
X43376039Y-80840717D01*
X43384794Y-80804252D01*
X43389782Y-80798411D01*
X44848782Y-79339413D01*
X44875500Y-79274909D01*
X44875500Y-79205091D01*
X44875500Y-72941991D01*
X44889852Y-72907343D01*
X44924500Y-72892991D01*
X44959148Y-72907343D01*
X45111218Y-73059413D01*
X45160587Y-73108782D01*
X45225091Y-73135500D01*
X46227961Y-73135500D01*
X46262609Y-73149852D01*
X46271621Y-73162256D01*
X46282425Y-73183462D01*
X46282428Y-73183466D01*
X46366534Y-73267572D01*
X46366541Y-73267577D01*
X46437190Y-73303573D01*
X46472518Y-73321574D01*
X46590000Y-73340181D01*
X46707482Y-73321574D01*
X46780988Y-73284120D01*
X46813458Y-73267577D01*
X46813460Y-73267575D01*
X46813465Y-73267573D01*
X46897573Y-73183465D01*
X46951574Y-73077482D01*
X46970181Y-72960000D01*
X46951574Y-72842518D01*
X46931144Y-72802422D01*
X46897577Y-72736541D01*
X46897572Y-72736534D01*
X46813465Y-72652427D01*
X46813458Y-72652422D01*
X46707484Y-72598427D01*
X46707483Y-72598426D01*
X46707482Y-72598426D01*
X46590000Y-72579819D01*
X46472518Y-72598426D01*
X46472516Y-72598426D01*
X46472515Y-72598427D01*
X46366541Y-72652422D01*
X46366534Y-72652427D01*
X46282428Y-72736533D01*
X46282425Y-72736537D01*
X46276368Y-72748426D01*
X46273805Y-72753458D01*
X46271621Y-72757744D01*
X46243104Y-72782101D01*
X46227961Y-72784500D01*
X45352991Y-72784500D01*
X45318343Y-72770148D01*
X45149852Y-72601657D01*
X45135500Y-72567009D01*
X45135500Y-69848034D01*
X45135499Y-69848030D01*
X45124096Y-69820500D01*
X45108782Y-69783528D01*
X45059413Y-69734159D01*
X44215754Y-68890500D01*
X43366474Y-68041219D01*
X43357051Y-68037316D01*
X43337810Y-68029346D01*
X43301969Y-68014500D01*
X43301968Y-68014500D01*
X42424500Y-68014500D01*
X42389852Y-68000148D01*
X42375500Y-67965500D01*
X42375500Y-65504480D01*
X42375499Y-65504476D01*
X42348782Y-65439974D01*
X42299413Y-65390605D01*
X42299411Y-65390604D01*
X42296620Y-65387812D01*
X42296616Y-65387809D01*
X41839852Y-64931044D01*
X41825500Y-64896396D01*
X41825500Y-64448696D01*
X41825499Y-64448692D01*
X41824606Y-64446535D01*
X41798782Y-64384190D01*
X41749413Y-64334821D01*
X41634121Y-64219529D01*
X41475812Y-64061219D01*
X41411307Y-64034500D01*
X41411306Y-64034500D01*
X39645091Y-64034500D01*
X39645089Y-64034500D01*
X39580586Y-64061218D01*
X39555902Y-64085902D01*
X39531218Y-64110587D01*
X39531217Y-64110588D01*
X39333695Y-64308109D01*
X39291219Y-64350585D01*
X39291218Y-64350586D01*
X39291218Y-64350587D01*
X39290299Y-64352805D01*
X39264500Y-64415089D01*
X39264500Y-64415091D01*
X39264500Y-64969178D01*
X39264500Y-65038996D01*
X39291218Y-65103500D01*
X39291219Y-65103501D01*
X39291219Y-65103502D01*
X39500328Y-65312610D01*
X39514680Y-65347258D01*
X39514077Y-65354923D01*
X39508868Y-65387813D01*
X39499937Y-65444205D01*
X39518544Y-65561687D01*
X39518544Y-65561688D01*
X39518545Y-65561689D01*
X39572540Y-65667663D01*
X39572545Y-65667670D01*
X39656653Y-65751778D01*
X39663244Y-65755136D01*
X39687601Y-65783652D01*
X39690000Y-65798796D01*
X39690000Y-66180000D01*
X39837971Y-66180000D01*
X39872619Y-66194352D01*
X39952205Y-66273938D01*
X39952212Y-66273943D01*
X40022861Y-66309939D01*
X40058189Y-66327940D01*
X40175671Y-66346547D01*
X40293153Y-66327940D01*
X40353630Y-66297124D01*
X40391017Y-66294182D01*
X40419535Y-66318538D01*
X40419535Y-66318539D01*
X40442422Y-66363458D01*
X40442427Y-66363465D01*
X40526535Y-66447573D01*
X40547744Y-66458379D01*
X40572101Y-66486896D01*
X40574500Y-66502039D01*
X40574500Y-68548008D01*
X40560148Y-68582656D01*
X40525500Y-68597008D01*
X40490852Y-68582656D01*
X40119416Y-68211220D01*
X40119414Y-68211219D01*
X40119413Y-68211218D01*
X40081628Y-68195567D01*
X40054910Y-68184500D01*
X40054909Y-68184500D01*
X39858364Y-68184500D01*
X39823716Y-68170148D01*
X39810306Y-68145060D01*
X39806546Y-68126162D01*
X39806546Y-68126161D01*
X39766171Y-68065735D01*
X39753391Y-68046608D01*
X39679867Y-67997482D01*
X39673839Y-67993454D01*
X39673838Y-67993453D01*
X39673837Y-67993453D01*
X39624940Y-67983726D01*
X39593758Y-67962890D01*
X39585500Y-67935668D01*
X39585500Y-67864331D01*
X39599852Y-67829683D01*
X39624941Y-67816273D01*
X39673836Y-67806547D01*
X39673836Y-67806546D01*
X39673839Y-67806546D01*
X39753391Y-67753391D01*
X39806546Y-67673839D01*
X39809989Y-67656534D01*
X39820499Y-67603693D01*
X39820500Y-67603688D01*
X39820500Y-67229263D01*
X39834852Y-67194615D01*
X39844557Y-67187087D01*
X39975373Y-67109722D01*
X39975378Y-67109718D01*
X40089718Y-66995378D01*
X40089722Y-66995373D01*
X40172030Y-66856198D01*
X40217145Y-66700914D01*
X40217145Y-66700913D01*
X40218791Y-66680000D01*
X39239000Y-66680000D01*
X39204352Y-66665648D01*
X39190000Y-66631000D01*
X39190000Y-65625494D01*
X39189999Y-65625493D01*
X39043801Y-65667969D01*
X38904626Y-65750277D01*
X38904621Y-65750281D01*
X38790281Y-65864621D01*
X38790277Y-65864626D01*
X38710573Y-65999398D01*
X38680583Y-66021916D01*
X38658840Y-66022513D01*
X38643688Y-66019500D01*
X38316312Y-66019500D01*
X38316306Y-66019500D01*
X38246163Y-66033452D01*
X38166608Y-66086608D01*
X38130541Y-66140588D01*
X38113454Y-66166161D01*
X38101738Y-66225060D01*
X38080903Y-66256242D01*
X38053680Y-66264500D01*
X37978364Y-66264500D01*
X37943716Y-66250148D01*
X37930306Y-66225060D01*
X37926546Y-66206162D01*
X37926546Y-66206161D01*
X37899819Y-66166161D01*
X37873391Y-66126608D01*
X37793836Y-66073452D01*
X37723693Y-66059500D01*
X37723688Y-66059500D01*
X37336312Y-66059500D01*
X37336306Y-66059500D01*
X37266163Y-66073452D01*
X37186608Y-66126608D01*
X37133453Y-66206162D01*
X37129694Y-66225060D01*
X37108858Y-66256242D01*
X37081636Y-66264500D01*
X36998364Y-66264500D01*
X36963716Y-66250148D01*
X36950306Y-66225060D01*
X36946546Y-66206162D01*
X36946546Y-66206161D01*
X36919819Y-66166161D01*
X36893391Y-66126608D01*
X36829395Y-66083848D01*
X36813839Y-66073454D01*
X36813838Y-66073453D01*
X36813837Y-66073453D01*
X36764940Y-66063726D01*
X36733758Y-66042890D01*
X36725500Y-66015668D01*
X36725500Y-65692039D01*
X36739852Y-65657391D01*
X36752254Y-65648380D01*
X36773465Y-65637573D01*
X36857573Y-65553465D01*
X36860109Y-65548489D01*
X36882534Y-65504476D01*
X36911574Y-65447482D01*
X36930181Y-65330000D01*
X36911574Y-65212518D01*
X36893573Y-65177190D01*
X36857577Y-65106541D01*
X36857572Y-65106534D01*
X36773465Y-65022427D01*
X36773458Y-65022422D01*
X36667484Y-64968427D01*
X36667483Y-64968426D01*
X36667482Y-64968426D01*
X36550000Y-64949819D01*
X36432518Y-64968426D01*
X36432516Y-64968426D01*
X36432515Y-64968427D01*
X36326541Y-65022422D01*
X36326534Y-65022427D01*
X36242427Y-65106534D01*
X36242422Y-65106541D01*
X36188427Y-65212515D01*
X36188426Y-65212516D01*
X36188426Y-65212518D01*
X36169819Y-65330000D01*
X36188426Y-65447482D01*
X36188426Y-65447483D01*
X36188427Y-65447484D01*
X36242422Y-65553458D01*
X36242427Y-65553465D01*
X36326535Y-65637573D01*
X36347744Y-65648379D01*
X36372101Y-65676896D01*
X36374500Y-65692039D01*
X36374500Y-66015668D01*
X36360148Y-66050316D01*
X36335060Y-66063726D01*
X36286162Y-66073453D01*
X36206608Y-66126608D01*
X36153452Y-66206163D01*
X36139500Y-66276306D01*
X36139500Y-66276312D01*
X36139500Y-66603688D01*
X36141850Y-66615500D01*
X36142514Y-66618838D01*
X36135197Y-66655620D01*
X36119398Y-66670573D01*
X35984626Y-66750277D01*
X35984621Y-66750281D01*
X35870281Y-66864621D01*
X35870277Y-66864626D01*
X35787968Y-67003802D01*
X35745494Y-67149999D01*
X35745495Y-67150000D01*
X36810821Y-67150000D01*
X36845469Y-67164352D01*
X36859821Y-67199000D01*
X36859821Y-67601000D01*
X36845469Y-67635648D01*
X36810821Y-67650000D01*
X36800000Y-67650000D01*
X36800000Y-68018565D01*
X36796270Y-68037316D01*
X36784501Y-68065728D01*
X36784500Y-68065735D01*
X36784500Y-68567009D01*
X36770148Y-68601657D01*
X36766157Y-68605648D01*
X36731509Y-68620000D01*
X36269000Y-68620000D01*
X36234352Y-68605648D01*
X36220000Y-68571000D01*
X36220000Y-67650000D01*
X35745495Y-67650000D01*
X35772441Y-67742751D01*
X35768326Y-67780027D01*
X35739057Y-67803475D01*
X35715828Y-67804480D01*
X35696250Y-67800586D01*
X35665654Y-67794500D01*
X35294346Y-67794500D01*
X35237355Y-67805836D01*
X35218357Y-67809615D01*
X35132189Y-67867189D01*
X35074615Y-67953357D01*
X35072719Y-67962890D01*
X35059500Y-68029346D01*
X35059500Y-68029349D01*
X35059500Y-68053000D01*
X35045148Y-68087648D01*
X35010500Y-68102000D01*
X34507589Y-68102000D01*
X34443085Y-68128719D01*
X34443084Y-68128719D01*
X34118805Y-68453000D01*
X34035587Y-68536218D01*
X34010902Y-68560902D01*
X33986218Y-68585586D01*
X33959500Y-68650089D01*
X33959500Y-69765107D01*
X33945148Y-69799755D01*
X33940281Y-69804621D01*
X33940277Y-69804626D01*
X33857968Y-69943802D01*
X33815494Y-70089999D01*
X33815495Y-70090000D01*
X33910500Y-70090000D01*
X33945148Y-70104352D01*
X33959500Y-70139000D01*
X33959500Y-70541000D01*
X33945148Y-70575648D01*
X33910500Y-70590000D01*
X33815495Y-70590000D01*
X33857968Y-70736197D01*
X33940277Y-70875373D01*
X33940281Y-70875378D01*
X34054619Y-70989716D01*
X34054622Y-70989718D01*
X34066184Y-70996556D01*
X34075890Y-71004085D01*
X34195148Y-71123343D01*
X34209500Y-71157991D01*
X34209500Y-71463693D01*
X34223452Y-71533835D01*
X34223453Y-71533837D01*
X34223453Y-71533838D01*
X34223454Y-71533839D01*
X34226241Y-71538010D01*
X34234500Y-71565234D01*
X34234500Y-72167960D01*
X34220148Y-72202608D01*
X34207748Y-72211617D01*
X34197168Y-72217009D01*
X34186535Y-72222427D01*
X34186531Y-72222430D01*
X34102427Y-72306534D01*
X34102422Y-72306541D01*
X34048427Y-72412515D01*
X34048426Y-72412516D01*
X34048426Y-72412518D01*
X34029819Y-72530000D01*
X34048426Y-72647482D01*
X34048426Y-72647483D01*
X34048427Y-72647484D01*
X34102422Y-72753458D01*
X34102427Y-72753465D01*
X34186534Y-72837572D01*
X34186541Y-72837577D01*
X34257190Y-72873573D01*
X34292518Y-72891574D01*
X34410000Y-72910181D01*
X34527482Y-72891574D01*
X34613843Y-72847571D01*
X34633458Y-72837577D01*
X34633460Y-72837575D01*
X34633465Y-72837573D01*
X34717573Y-72753465D01*
X34720025Y-72748654D01*
X34736918Y-72715499D01*
X34771574Y-72647482D01*
X34790181Y-72530000D01*
X34771574Y-72412518D01*
X34737126Y-72344909D01*
X34717577Y-72306541D01*
X34717572Y-72306534D01*
X34633468Y-72222430D01*
X34633465Y-72222427D01*
X34612252Y-72211618D01*
X34587898Y-72183101D01*
X34585500Y-72167960D01*
X34585500Y-71729500D01*
X34599852Y-71694852D01*
X34634500Y-71680500D01*
X34813688Y-71680500D01*
X34814625Y-71680313D01*
X34883836Y-71666547D01*
X34883836Y-71666546D01*
X34883839Y-71666546D01*
X34963391Y-71613391D01*
X35016546Y-71533839D01*
X35018624Y-71523391D01*
X35020306Y-71514940D01*
X35041142Y-71483758D01*
X35068364Y-71475500D01*
X35161636Y-71475500D01*
X35196284Y-71489852D01*
X35209694Y-71514940D01*
X35213453Y-71533837D01*
X35213453Y-71533838D01*
X35213454Y-71533839D01*
X35222173Y-71546888D01*
X35266608Y-71613391D01*
X35301245Y-71636534D01*
X35346161Y-71666546D01*
X35346163Y-71666547D01*
X35416306Y-71680499D01*
X35416312Y-71680500D01*
X35743687Y-71680500D01*
X35743688Y-71680500D01*
X35758837Y-71677486D01*
X35795618Y-71684800D01*
X35810573Y-71700601D01*
X35890277Y-71835373D01*
X35890281Y-71835378D01*
X36004621Y-71949718D01*
X36004626Y-71949722D01*
X36143802Y-72032031D01*
X36289999Y-72074505D01*
X36290000Y-72074504D01*
X36290000Y-71069000D01*
X36304352Y-71034352D01*
X36339000Y-71020000D01*
X36741000Y-71020000D01*
X36775648Y-71034352D01*
X36790000Y-71069000D01*
X36790000Y-72074504D01*
X36809579Y-72089205D01*
X36808406Y-72090766D01*
X36827520Y-72114501D01*
X36829500Y-72128290D01*
X36829500Y-72604840D01*
X36815148Y-72639488D01*
X36802746Y-72648499D01*
X36716539Y-72692423D01*
X36716534Y-72692427D01*
X36632427Y-72776534D01*
X36632422Y-72776541D01*
X36578427Y-72882515D01*
X36578426Y-72882516D01*
X36578426Y-72882518D01*
X36559819Y-73000000D01*
X36578426Y-73117482D01*
X36578426Y-73117483D01*
X36578427Y-73117484D01*
X36632422Y-73223458D01*
X36632427Y-73223465D01*
X36716534Y-73307572D01*
X36716541Y-73307577D01*
X36787190Y-73343573D01*
X36822518Y-73361574D01*
X36940000Y-73380181D01*
X37057482Y-73361574D01*
X37130988Y-73324120D01*
X37163458Y-73307577D01*
X37163460Y-73307575D01*
X37163465Y-73307573D01*
X37247573Y-73223465D01*
X37301574Y-73117482D01*
X37320181Y-73000000D01*
X37301574Y-72882518D01*
X37281193Y-72842518D01*
X37247577Y-72776541D01*
X37247572Y-72776534D01*
X37194852Y-72723814D01*
X37180500Y-72689166D01*
X37180500Y-71864039D01*
X37189197Y-71838651D01*
X37188150Y-71838032D01*
X37261173Y-71714557D01*
X37291163Y-71692039D01*
X37303349Y-71690500D01*
X37608196Y-71690500D01*
X37676888Y-71676836D01*
X37738277Y-71635816D01*
X37775060Y-71628501D01*
X37806242Y-71649336D01*
X37814500Y-71676559D01*
X37814500Y-72275091D01*
X37814500Y-72344909D01*
X37841218Y-72409413D01*
X37841219Y-72409414D01*
X37841220Y-72409416D01*
X38120584Y-72688780D01*
X38120585Y-72688780D01*
X38120587Y-72688782D01*
X38185091Y-72715500D01*
X38187961Y-72715500D01*
X38222609Y-72729852D01*
X38231621Y-72742256D01*
X38242425Y-72763462D01*
X38242428Y-72763466D01*
X38326534Y-72847572D01*
X38326541Y-72847577D01*
X38395113Y-72882515D01*
X38432518Y-72901574D01*
X38550000Y-72920181D01*
X38667482Y-72901574D01*
X38740012Y-72864617D01*
X38773460Y-72847576D01*
X38773462Y-72847574D01*
X38773465Y-72847573D01*
X38815352Y-72805684D01*
X38850000Y-72791332D01*
X38884648Y-72805683D01*
X38926537Y-72847572D01*
X38926544Y-72847577D01*
X38995116Y-72882515D01*
X39032521Y-72901574D01*
X39150003Y-72920181D01*
X39267485Y-72901574D01*
X39340991Y-72864120D01*
X39373461Y-72847577D01*
X39373463Y-72847575D01*
X39373468Y-72847573D01*
X39457576Y-72763465D01*
X39458108Y-72762422D01*
X39485619Y-72708427D01*
X39511577Y-72657482D01*
X39530184Y-72540000D01*
X39511577Y-72422518D01*
X39487426Y-72375118D01*
X39457580Y-72316541D01*
X39457575Y-72316534D01*
X39373471Y-72232430D01*
X39373468Y-72232427D01*
X39352255Y-72221618D01*
X39327901Y-72193101D01*
X39325503Y-72177960D01*
X39325503Y-71915096D01*
X39325502Y-71915092D01*
X39307540Y-71871727D01*
X39298785Y-71850590D01*
X39249416Y-71801221D01*
X39249414Y-71801220D01*
X39246623Y-71798428D01*
X39246619Y-71798425D01*
X39108810Y-71660616D01*
X39094458Y-71625968D01*
X39108810Y-71591320D01*
X39143458Y-71576968D01*
X39153018Y-71577910D01*
X39216312Y-71590500D01*
X39603688Y-71590500D01*
X39604625Y-71590313D01*
X39673836Y-71576547D01*
X39673836Y-71576546D01*
X39673839Y-71576546D01*
X39753391Y-71523391D01*
X39806546Y-71443839D01*
X39806621Y-71443465D01*
X39820499Y-71373693D01*
X39820500Y-71373688D01*
X39820500Y-71046312D01*
X39817486Y-71031161D01*
X39824801Y-70994381D01*
X39840601Y-70979426D01*
X39975373Y-70899722D01*
X39975378Y-70899718D01*
X40089718Y-70785378D01*
X40089722Y-70785373D01*
X40172031Y-70646197D01*
X40214505Y-70500000D01*
X39209000Y-70500000D01*
X39174352Y-70485648D01*
X39160000Y-70451000D01*
X39160000Y-70000000D01*
X39660000Y-70000000D01*
X40214505Y-70000000D01*
X40214505Y-69999999D01*
X40172032Y-69853804D01*
X40146091Y-69809944D01*
X40140806Y-69772816D01*
X40146091Y-69760056D01*
X40172032Y-69716195D01*
X40214505Y-69570000D01*
X39660000Y-69570000D01*
X39660000Y-70000000D01*
X39160000Y-70000000D01*
X39160000Y-69119000D01*
X39174352Y-69084352D01*
X39209000Y-69070000D01*
X40214505Y-69070000D01*
X40214505Y-69069999D01*
X40172031Y-68923802D01*
X40132718Y-68857327D01*
X40127433Y-68820198D01*
X40149951Y-68790208D01*
X40187080Y-68784923D01*
X40209540Y-68797734D01*
X40507967Y-69096161D01*
X41028567Y-69616761D01*
X41042919Y-69651409D01*
X41028567Y-69686057D01*
X41016165Y-69695068D01*
X41011538Y-69697425D01*
X41011531Y-69697430D01*
X40927427Y-69781534D01*
X40927422Y-69781541D01*
X40873427Y-69887515D01*
X40873426Y-69887516D01*
X40873426Y-69887518D01*
X40854819Y-70005000D01*
X40873426Y-70122482D01*
X40873426Y-70122483D01*
X40873427Y-70122484D01*
X40927422Y-70228458D01*
X40927427Y-70228465D01*
X41011535Y-70312573D01*
X41011538Y-70312574D01*
X41014300Y-70314581D01*
X41033896Y-70346556D01*
X41034500Y-70354224D01*
X41034500Y-72375118D01*
X41034500Y-72454882D01*
X41065024Y-72528574D01*
X41065025Y-72528575D01*
X41065025Y-72528576D01*
X41785024Y-73248574D01*
X41841426Y-73304976D01*
X41915118Y-73335500D01*
X42544166Y-73335500D01*
X42578814Y-73349852D01*
X42646535Y-73417573D01*
X42652742Y-73420735D01*
X42677101Y-73449251D01*
X42679500Y-73464396D01*
X42679500Y-76211356D01*
X42665148Y-76246004D01*
X42630500Y-76260356D01*
X42595852Y-76246004D01*
X42586841Y-76233601D01*
X42547577Y-76156541D01*
X42547572Y-76156534D01*
X42463465Y-76072427D01*
X42463458Y-76072422D01*
X42357484Y-76018427D01*
X42357483Y-76018426D01*
X42357482Y-76018426D01*
X42240000Y-75999819D01*
X42239999Y-75999819D01*
X42200399Y-76006091D01*
X42163932Y-75997336D01*
X42144337Y-75965359D01*
X42144337Y-75950036D01*
X42160181Y-75850000D01*
X42141574Y-75732518D01*
X42123573Y-75697190D01*
X42087577Y-75626541D01*
X42087572Y-75626534D01*
X42003465Y-75542427D01*
X42003458Y-75542422D01*
X41897484Y-75488427D01*
X41897483Y-75488426D01*
X41897482Y-75488426D01*
X41780000Y-75469819D01*
X41662518Y-75488426D01*
X41662516Y-75488426D01*
X41662515Y-75488427D01*
X41556541Y-75542422D01*
X41556534Y-75542427D01*
X41472427Y-75626534D01*
X41472422Y-75626541D01*
X41418427Y-75732515D01*
X41418426Y-75732516D01*
X41418426Y-75732518D01*
X41399819Y-75850000D01*
X41402737Y-75868427D01*
X41411288Y-75922411D01*
X41402533Y-75958878D01*
X41370556Y-75978473D01*
X41355228Y-75978473D01*
X41336685Y-75975537D01*
X41336684Y-75975537D01*
X41219202Y-75994144D01*
X41219200Y-75994144D01*
X41219199Y-75994145D01*
X41129532Y-76039832D01*
X41092145Y-76042775D01*
X41063628Y-76018418D01*
X41057573Y-76006535D01*
X40973465Y-75922427D01*
X40973458Y-75922422D01*
X40867484Y-75868427D01*
X40867483Y-75868426D01*
X40867482Y-75868426D01*
X40750000Y-75849819D01*
X40632518Y-75868426D01*
X40632516Y-75868426D01*
X40632515Y-75868427D01*
X40526541Y-75922422D01*
X40526534Y-75922427D01*
X40442427Y-76006534D01*
X40442422Y-76006541D01*
X40388427Y-76112515D01*
X40388426Y-76112516D01*
X40388426Y-76112518D01*
X40372485Y-76213166D01*
X40352891Y-76245142D01*
X40324089Y-76254500D01*
X35554427Y-76254500D01*
X35489924Y-76281218D01*
X35465240Y-76305902D01*
X35440556Y-76330587D01*
X35268941Y-76502202D01*
X35234293Y-76516554D01*
X34867130Y-76516554D01*
X34832482Y-76502202D01*
X34823470Y-76489798D01*
X34812665Y-76468591D01*
X34812664Y-76468589D01*
X34728556Y-76384481D01*
X34728549Y-76384476D01*
X34622575Y-76330481D01*
X34622574Y-76330480D01*
X34622573Y-76330480D01*
X34505091Y-76311873D01*
X34387609Y-76330480D01*
X34387607Y-76330480D01*
X34387606Y-76330481D01*
X34281632Y-76384476D01*
X34281625Y-76384481D01*
X34197518Y-76468588D01*
X34197513Y-76468595D01*
X34143518Y-76574569D01*
X34143517Y-76574570D01*
X34143517Y-76574572D01*
X34138712Y-76604910D01*
X34124910Y-76692054D01*
X34142402Y-76802498D01*
X34133647Y-76838965D01*
X34105794Y-76856038D01*
X34106183Y-76857235D01*
X34102515Y-76858426D01*
X33996541Y-76912422D01*
X33996534Y-76912427D01*
X33912427Y-76996534D01*
X33912422Y-76996541D01*
X33858427Y-77102515D01*
X33858426Y-77102516D01*
X33858426Y-77102518D01*
X33839819Y-77220000D01*
X33858426Y-77337482D01*
X33858426Y-77337483D01*
X33858427Y-77337484D01*
X33912422Y-77443458D01*
X33912427Y-77443465D01*
X33988054Y-77519092D01*
X34002406Y-77553740D01*
X33988054Y-77588388D01*
X33975652Y-77597399D01*
X33926539Y-77622423D01*
X33926534Y-77622427D01*
X33842427Y-77706534D01*
X33842422Y-77706541D01*
X33788427Y-77812515D01*
X33788426Y-77812516D01*
X33788426Y-77812518D01*
X33769819Y-77930000D01*
X33788426Y-78047482D01*
X33788426Y-78047483D01*
X33788427Y-78047484D01*
X33842422Y-78153458D01*
X33842427Y-78153465D01*
X33894313Y-78205351D01*
X33908665Y-78239999D01*
X33894314Y-78274646D01*
X33852428Y-78316533D01*
X33852422Y-78316541D01*
X33798427Y-78422515D01*
X33798426Y-78422516D01*
X33798426Y-78422518D01*
X33779819Y-78540000D01*
X33798426Y-78657482D01*
X33798426Y-78657483D01*
X33798427Y-78657484D01*
X33852422Y-78763458D01*
X33852427Y-78763465D01*
X33936534Y-78847572D01*
X33936541Y-78847577D01*
X34007190Y-78883573D01*
X34042518Y-78901574D01*
X34160000Y-78920181D01*
X34277482Y-78901574D01*
X34350988Y-78864120D01*
X34383458Y-78847577D01*
X34383460Y-78847575D01*
X34383465Y-78847573D01*
X34467573Y-78763465D01*
X34478379Y-78742255D01*
X34506896Y-78717899D01*
X34522039Y-78715500D01*
X34574907Y-78715500D01*
X34574909Y-78715500D01*
X34639413Y-78688782D01*
X35958342Y-77369851D01*
X35992990Y-77355500D01*
X41534405Y-77355500D01*
X41569053Y-77369852D01*
X41583405Y-77404500D01*
X41569053Y-77439148D01*
X41569051Y-77439150D01*
X41560448Y-77447752D01*
X41544555Y-77458372D01*
X41516423Y-77470025D01*
X40680715Y-78305735D01*
X40416426Y-78570024D01*
X40388225Y-78598225D01*
X40360024Y-78626425D01*
X40329500Y-78700116D01*
X40329500Y-80420500D01*
X40315148Y-80455148D01*
X40280500Y-80469500D01*
X39900116Y-80469500D01*
X39826424Y-80500025D01*
X39826422Y-80500026D01*
X39261072Y-81065376D01*
X39226424Y-81079728D01*
X39218759Y-81079125D01*
X39160000Y-81069819D01*
X39042518Y-81088426D01*
X39042516Y-81088426D01*
X39042515Y-81088427D01*
X38936541Y-81142422D01*
X38936534Y-81142427D01*
X38852427Y-81226534D01*
X38852422Y-81226541D01*
X38818159Y-81293788D01*
X38789642Y-81318145D01*
X38752255Y-81315202D01*
X38727898Y-81286685D01*
X38725500Y-81271543D01*
X38725500Y-79625120D01*
X38725499Y-79625116D01*
X38694976Y-79551426D01*
X38638574Y-79495024D01*
X38413574Y-79270024D01*
X38318639Y-79175089D01*
X38183576Y-79040025D01*
X38109883Y-79009500D01*
X38109882Y-79009500D01*
X37329225Y-79009500D01*
X37294577Y-78995148D01*
X37289585Y-78989304D01*
X37287572Y-78986534D01*
X37203465Y-78902427D01*
X37203458Y-78902422D01*
X37097484Y-78848427D01*
X37097483Y-78848426D01*
X37097482Y-78848426D01*
X36980000Y-78829819D01*
X36862518Y-78848426D01*
X36862516Y-78848426D01*
X36862515Y-78848427D01*
X36756541Y-78902422D01*
X36756534Y-78902427D01*
X36672427Y-78986534D01*
X36672422Y-78986541D01*
X36618427Y-79092515D01*
X36618426Y-79092516D01*
X36618426Y-79092518D01*
X36599819Y-79210000D01*
X36618426Y-79327482D01*
X36618426Y-79327483D01*
X36618427Y-79327484D01*
X36672422Y-79433458D01*
X36672427Y-79433465D01*
X36756534Y-79517572D01*
X36756541Y-79517577D01*
X36821890Y-79550873D01*
X36862518Y-79571574D01*
X36980000Y-79590181D01*
X37097482Y-79571574D01*
X37170988Y-79534120D01*
X37203458Y-79517577D01*
X37203460Y-79517575D01*
X37203465Y-79517573D01*
X37287573Y-79433465D01*
X37287577Y-79433458D01*
X37289585Y-79430696D01*
X37321563Y-79411103D01*
X37329225Y-79410500D01*
X37966654Y-79410500D01*
X38001302Y-79424852D01*
X38310148Y-79733698D01*
X38324500Y-79768346D01*
X38324500Y-80798469D01*
X38310148Y-80833117D01*
X38275500Y-80847469D01*
X38253255Y-80842129D01*
X38167482Y-80798426D01*
X38050000Y-80779819D01*
X37932518Y-80798426D01*
X37932516Y-80798426D01*
X37932515Y-80798427D01*
X37826541Y-80852422D01*
X37826534Y-80852427D01*
X37742430Y-80936531D01*
X37742425Y-80936538D01*
X37711831Y-80996581D01*
X37702820Y-81008983D01*
X37486429Y-81225376D01*
X37420587Y-81291218D01*
X37405097Y-81306708D01*
X37371218Y-81340586D01*
X37344500Y-81405089D01*
X37344500Y-84907960D01*
X37330148Y-84942608D01*
X37317748Y-84951617D01*
X37316161Y-84952427D01*
X37296535Y-84962427D01*
X37296531Y-84962430D01*
X37212427Y-85046534D01*
X37212422Y-85046541D01*
X37158427Y-85152514D01*
X37151721Y-85194850D01*
X37132124Y-85226826D01*
X37095659Y-85235580D01*
X37021574Y-85223847D01*
X36955717Y-85234277D01*
X36919250Y-85225521D01*
X36899656Y-85193546D01*
X36891574Y-85142518D01*
X36873573Y-85107190D01*
X36837577Y-85036541D01*
X36837572Y-85036534D01*
X36753465Y-84952427D01*
X36753460Y-84952423D01*
X36672254Y-84911047D01*
X36647898Y-84882530D01*
X36645500Y-84867388D01*
X36645500Y-81502039D01*
X36659852Y-81467391D01*
X36672254Y-81458380D01*
X36693465Y-81447573D01*
X36777573Y-81363465D01*
X36789231Y-81340586D01*
X36802164Y-81315202D01*
X36831574Y-81257482D01*
X36850181Y-81140000D01*
X36831574Y-81022518D01*
X36813573Y-80987190D01*
X36777577Y-80916541D01*
X36777572Y-80916534D01*
X36693465Y-80832427D01*
X36693458Y-80832422D01*
X36587484Y-80778427D01*
X36587483Y-80778426D01*
X36587482Y-80778426D01*
X36470000Y-80759819D01*
X36352518Y-80778426D01*
X36352516Y-80778426D01*
X36352515Y-80778427D01*
X36246541Y-80832422D01*
X36246534Y-80832427D01*
X36162427Y-80916534D01*
X36162422Y-80916541D01*
X36108427Y-81022515D01*
X36108426Y-81022516D01*
X36108426Y-81022518D01*
X36089819Y-81140000D01*
X36108426Y-81257482D01*
X36108426Y-81257483D01*
X36108427Y-81257484D01*
X36162422Y-81363458D01*
X36162425Y-81363462D01*
X36162427Y-81363465D01*
X36246535Y-81447573D01*
X36267744Y-81458379D01*
X36292101Y-81486896D01*
X36294500Y-81502039D01*
X36294500Y-81895166D01*
X36280148Y-81929814D01*
X36245500Y-81944166D01*
X36210852Y-81929814D01*
X36153465Y-81872427D01*
X36153458Y-81872422D01*
X36047484Y-81818427D01*
X36047483Y-81818426D01*
X36047482Y-81818426D01*
X35930000Y-81799819D01*
X35929999Y-81799819D01*
X35871238Y-81809125D01*
X35834772Y-81800369D01*
X35828926Y-81795376D01*
X34733576Y-80700025D01*
X34659883Y-80669500D01*
X34659882Y-80669500D01*
X31539882Y-80669500D01*
X31460118Y-80669500D01*
X31460116Y-80669500D01*
X31386424Y-80700025D01*
X31386422Y-80700026D01*
X30861072Y-81225376D01*
X30826424Y-81239728D01*
X30818759Y-81239125D01*
X30760000Y-81229819D01*
X30642518Y-81248426D01*
X30642516Y-81248426D01*
X30642515Y-81248427D01*
X30536541Y-81302422D01*
X30536534Y-81302427D01*
X30452427Y-81386534D01*
X30452422Y-81386541D01*
X30398427Y-81492515D01*
X30398426Y-81492516D01*
X30398426Y-81492518D01*
X30379819Y-81610000D01*
X30398426Y-81727482D01*
X30398426Y-81727483D01*
X30398427Y-81727484D01*
X30452422Y-81833458D01*
X30452427Y-81833465D01*
X30536534Y-81917572D01*
X30536541Y-81917577D01*
X30590654Y-81945148D01*
X30642518Y-81971574D01*
X30760000Y-81990181D01*
X30877482Y-81971574D01*
X30959441Y-81929814D01*
X30983458Y-81917577D01*
X30983460Y-81917575D01*
X30983465Y-81917573D01*
X31067573Y-81833465D01*
X31069247Y-81830181D01*
X31086980Y-81795376D01*
X31121574Y-81727482D01*
X31140181Y-81610000D01*
X31130873Y-81551237D01*
X31139628Y-81514773D01*
X31144615Y-81508933D01*
X31568698Y-81084852D01*
X31603346Y-81070500D01*
X34516654Y-81070500D01*
X34551302Y-81084852D01*
X35545376Y-82078926D01*
X35559728Y-82113574D01*
X35559125Y-82121238D01*
X35556144Y-82140062D01*
X35549819Y-82180000D01*
X35568426Y-82297482D01*
X35568426Y-82297483D01*
X35568427Y-82297484D01*
X35622422Y-82403458D01*
X35622427Y-82403465D01*
X35706534Y-82487572D01*
X35706541Y-82487577D01*
X35764306Y-82517009D01*
X35812518Y-82541574D01*
X35930000Y-82560181D01*
X36047482Y-82541574D01*
X36120988Y-82504120D01*
X36153458Y-82487577D01*
X36153460Y-82487575D01*
X36153465Y-82487573D01*
X36210852Y-82430186D01*
X36245500Y-82415834D01*
X36280148Y-82430186D01*
X36294500Y-82464834D01*
X36294500Y-84944166D01*
X36280148Y-84978814D01*
X36222427Y-85036534D01*
X36222422Y-85036541D01*
X36168427Y-85142515D01*
X36168426Y-85142516D01*
X36168426Y-85142518D01*
X36149819Y-85260000D01*
X36168426Y-85377482D01*
X36168426Y-85377483D01*
X36168427Y-85377484D01*
X36222422Y-85483458D01*
X36222427Y-85483465D01*
X36306534Y-85567572D01*
X36306541Y-85567577D01*
X36365810Y-85597775D01*
X36412518Y-85621574D01*
X36530000Y-85640181D01*
X36595856Y-85629750D01*
X36632321Y-85638505D01*
X36651917Y-85670480D01*
X36660001Y-85721514D01*
X36660001Y-85721515D01*
X36713996Y-85827486D01*
X36714001Y-85827493D01*
X36798109Y-85911601D01*
X36819318Y-85922407D01*
X36843675Y-85950924D01*
X36846074Y-85966067D01*
X36846074Y-86215435D01*
X36831722Y-86250083D01*
X36601657Y-86480148D01*
X36567009Y-86494500D01*
X34028564Y-86494500D01*
X33993916Y-86480148D01*
X33979564Y-86445500D01*
X33993916Y-86410852D01*
X33996929Y-86407839D01*
X34013851Y-86390917D01*
X34067852Y-86284934D01*
X34086459Y-86167452D01*
X34071043Y-86070120D01*
X34079798Y-86033657D01*
X34111773Y-86014061D01*
X34127482Y-86011574D01*
X34216795Y-85966067D01*
X34233458Y-85957577D01*
X34233460Y-85957575D01*
X34233465Y-85957573D01*
X34317573Y-85873465D01*
X34321518Y-85865724D01*
X34340956Y-85827573D01*
X34371574Y-85767482D01*
X34390181Y-85650000D01*
X34371574Y-85532518D01*
X34336390Y-85463465D01*
X34327871Y-85446745D01*
X34324929Y-85409358D01*
X34349286Y-85380840D01*
X34371531Y-85375500D01*
X34657580Y-85375500D01*
X34692228Y-85389852D01*
X34701237Y-85402251D01*
X34715077Y-85429413D01*
X34732426Y-85463464D01*
X34816534Y-85547572D01*
X34816541Y-85547577D01*
X34875411Y-85577572D01*
X34922518Y-85601574D01*
X35040000Y-85620181D01*
X35157482Y-85601574D01*
X35239543Y-85559762D01*
X35263458Y-85547577D01*
X35263460Y-85547575D01*
X35263465Y-85547573D01*
X35347573Y-85463465D01*
X35349594Y-85459500D01*
X35378627Y-85402518D01*
X35401574Y-85357482D01*
X35420181Y-85240000D01*
X35401574Y-85122518D01*
X35362859Y-85046535D01*
X35347577Y-85016541D01*
X35347572Y-85016534D01*
X35263465Y-84932427D01*
X35263458Y-84932422D01*
X35157484Y-84878427D01*
X35157483Y-84878426D01*
X35157482Y-84878426D01*
X35040000Y-84859819D01*
X34922518Y-84878426D01*
X34922516Y-84878426D01*
X34922515Y-84878427D01*
X34816541Y-84932422D01*
X34816534Y-84932427D01*
X34738814Y-85010148D01*
X34704166Y-85024500D01*
X33832991Y-85024500D01*
X33798343Y-85010148D01*
X33649852Y-84861657D01*
X33635500Y-84827009D01*
X33635500Y-83256695D01*
X33635499Y-83256691D01*
X33633733Y-83252427D01*
X33608782Y-83192189D01*
X33559413Y-83142820D01*
X33523205Y-83106612D01*
X33508853Y-83071964D01*
X33509455Y-83064309D01*
X33523598Y-82975019D01*
X33504991Y-82857537D01*
X33467777Y-82784500D01*
X33450994Y-82751560D01*
X33450989Y-82751553D01*
X33366882Y-82667446D01*
X33366875Y-82667441D01*
X33260901Y-82613446D01*
X33260900Y-82613445D01*
X33260899Y-82613445D01*
X33143417Y-82594838D01*
X33025935Y-82613445D01*
X33025933Y-82613445D01*
X33025932Y-82613446D01*
X32919958Y-82667441D01*
X32919951Y-82667446D01*
X32835844Y-82751553D01*
X32835839Y-82751560D01*
X32781844Y-82857534D01*
X32781843Y-82857535D01*
X32781843Y-82857537D01*
X32763236Y-82975019D01*
X32781843Y-83092501D01*
X32781843Y-83092502D01*
X32781844Y-83092503D01*
X32825255Y-83177704D01*
X32828198Y-83215091D01*
X32803842Y-83243608D01*
X32786535Y-83252427D01*
X32786533Y-83252428D01*
X32786531Y-83252430D01*
X32702428Y-83336533D01*
X32702425Y-83336537D01*
X32691621Y-83357744D01*
X32663104Y-83382101D01*
X32647961Y-83384500D01*
X32378083Y-83384500D01*
X32343435Y-83370148D01*
X32329083Y-83335500D01*
X32343435Y-83300852D01*
X32355838Y-83291841D01*
X32403458Y-83267577D01*
X32403460Y-83267575D01*
X32403465Y-83267573D01*
X32487573Y-83183465D01*
X32487626Y-83183362D01*
X32512012Y-83135500D01*
X32541574Y-83077482D01*
X32560181Y-82960000D01*
X32541574Y-82842518D01*
X32523573Y-82807190D01*
X32487577Y-82736541D01*
X32487572Y-82736534D01*
X32403465Y-82652427D01*
X32403458Y-82652422D01*
X32297484Y-82598427D01*
X32297483Y-82598426D01*
X32297482Y-82598426D01*
X32180000Y-82579819D01*
X32062518Y-82598426D01*
X32062516Y-82598426D01*
X32062515Y-82598427D01*
X31956541Y-82652422D01*
X31956534Y-82652427D01*
X31872428Y-82736533D01*
X31872425Y-82736537D01*
X31861621Y-82757744D01*
X31833104Y-82782101D01*
X31817961Y-82784500D01*
X31217006Y-82784500D01*
X31182358Y-82770148D01*
X31168006Y-82735500D01*
X31173347Y-82713254D01*
X31182338Y-82695608D01*
X31191574Y-82677482D01*
X31210181Y-82560000D01*
X31191574Y-82442518D01*
X31171672Y-82403458D01*
X31137577Y-82336541D01*
X31137572Y-82336534D01*
X31053465Y-82252427D01*
X31053458Y-82252422D01*
X30947484Y-82198427D01*
X30947483Y-82198426D01*
X30947482Y-82198426D01*
X30830000Y-82179819D01*
X30712518Y-82198426D01*
X30712516Y-82198426D01*
X30712515Y-82198427D01*
X30606541Y-82252422D01*
X30606534Y-82252427D01*
X30522427Y-82336534D01*
X30522422Y-82336541D01*
X30468427Y-82442515D01*
X30468426Y-82442516D01*
X30468426Y-82442518D01*
X30451293Y-82550696D01*
X30449819Y-82560000D01*
X30463959Y-82649281D01*
X30455204Y-82685748D01*
X30450210Y-82691594D01*
X30151219Y-82990585D01*
X30124500Y-83055089D01*
X30124500Y-85410500D01*
X30110148Y-85445148D01*
X30075500Y-85459500D01*
X27290835Y-85459500D01*
X27256187Y-85445148D01*
X27183466Y-85372428D01*
X27183458Y-85372422D01*
X27077484Y-85318427D01*
X27077483Y-85318426D01*
X27077482Y-85318426D01*
X26960000Y-85299819D01*
X26842518Y-85318426D01*
X26842516Y-85318426D01*
X26842515Y-85318427D01*
X26736541Y-85372422D01*
X26736534Y-85372427D01*
X26652427Y-85456534D01*
X26652422Y-85456541D01*
X26598427Y-85562515D01*
X26598426Y-85562516D01*
X26598426Y-85562518D01*
X26579819Y-85680000D01*
X25425500Y-85680000D01*
X25425500Y-85414500D01*
X25439852Y-85379852D01*
X25474500Y-85365500D01*
X26314907Y-85365500D01*
X26314909Y-85365500D01*
X26379413Y-85338782D01*
X26379415Y-85338780D01*
X26379416Y-85338780D01*
X27218780Y-84499416D01*
X27218781Y-84499414D01*
X27218782Y-84499413D01*
X27245501Y-84434909D01*
X27245501Y-84365091D01*
X27245501Y-84361148D01*
X27245500Y-84361134D01*
X27245500Y-83251530D01*
X27259852Y-83216882D01*
X27294500Y-83202530D01*
X27316745Y-83207871D01*
X27335791Y-83217575D01*
X27402518Y-83251574D01*
X27520000Y-83270181D01*
X27637482Y-83251574D01*
X27723254Y-83207871D01*
X27743458Y-83197577D01*
X27743460Y-83197575D01*
X27743465Y-83197573D01*
X27827573Y-83113465D01*
X27829085Y-83110499D01*
X27863434Y-83043083D01*
X27881574Y-83007482D01*
X27900181Y-82890000D01*
X27881574Y-82772518D01*
X27851378Y-82713254D01*
X27827577Y-82666541D01*
X27827572Y-82666534D01*
X27743468Y-82582430D01*
X27743465Y-82582427D01*
X27722252Y-82571618D01*
X27697898Y-82543101D01*
X27695500Y-82527960D01*
X27695500Y-79822991D01*
X27709852Y-79788343D01*
X28378343Y-79119852D01*
X28412991Y-79105500D01*
X28447961Y-79105500D01*
X28482609Y-79119852D01*
X28491621Y-79132256D01*
X28502425Y-79153462D01*
X28502428Y-79153466D01*
X28586534Y-79237572D01*
X28586541Y-79237577D01*
X28650224Y-79270024D01*
X28692518Y-79291574D01*
X28810000Y-79310181D01*
X28927482Y-79291574D01*
X29000988Y-79254120D01*
X29033458Y-79237577D01*
X29033460Y-79237575D01*
X29033465Y-79237573D01*
X29117573Y-79153465D01*
X29171574Y-79047482D01*
X29190181Y-78930000D01*
X29171574Y-78812518D01*
X29146577Y-78763458D01*
X29117577Y-78706541D01*
X29117572Y-78706534D01*
X29033465Y-78622427D01*
X29033458Y-78622422D01*
X28927484Y-78568427D01*
X28927483Y-78568426D01*
X28927482Y-78568426D01*
X28810000Y-78549819D01*
X28692518Y-78568426D01*
X28692516Y-78568426D01*
X28692515Y-78568427D01*
X28586541Y-78622422D01*
X28586534Y-78622427D01*
X28502428Y-78706533D01*
X28502425Y-78706537D01*
X28491621Y-78727744D01*
X28463104Y-78752101D01*
X28447961Y-78754500D01*
X28285089Y-78754500D01*
X28220585Y-78781219D01*
X28220584Y-78781219D01*
X27598347Y-79403458D01*
X27420587Y-79581218D01*
X27399111Y-79602694D01*
X27371218Y-79630586D01*
X27344500Y-79695089D01*
X27344500Y-82527960D01*
X27330148Y-82562608D01*
X27317727Y-82571629D01*
X27316727Y-82572138D01*
X27279339Y-82575064D01*
X27250831Y-82550696D01*
X27245500Y-82528469D01*
X27245500Y-79622990D01*
X27259852Y-79588342D01*
X32378342Y-74469852D01*
X32412990Y-74455500D01*
X34794907Y-74455500D01*
X34794909Y-74455500D01*
X34859413Y-74428782D01*
X35838405Y-73449787D01*
X35873052Y-73435436D01*
X35880709Y-73436038D01*
X35970000Y-73450181D01*
X36087482Y-73431574D01*
X36188347Y-73380181D01*
X36193458Y-73377577D01*
X36193460Y-73377575D01*
X36193465Y-73377573D01*
X36277573Y-73293465D01*
X36331574Y-73187482D01*
X36350181Y-73070000D01*
X36331574Y-72952518D01*
X36301842Y-72894166D01*
X36277577Y-72846541D01*
X36277572Y-72846534D01*
X36193465Y-72762427D01*
X36193458Y-72762422D01*
X36087484Y-72708427D01*
X36087483Y-72708426D01*
X36087482Y-72708426D01*
X35970000Y-72689819D01*
X35852518Y-72708426D01*
X35852516Y-72708426D01*
X35852515Y-72708427D01*
X35746541Y-72762422D01*
X35746534Y-72762427D01*
X35662427Y-72846534D01*
X35662422Y-72846541D01*
X35608427Y-72952515D01*
X35608426Y-72952516D01*
X35608426Y-72952518D01*
X35607241Y-72960000D01*
X35589819Y-73070000D01*
X35603959Y-73159281D01*
X35595204Y-73195748D01*
X35590210Y-73201594D01*
X34701657Y-74090148D01*
X34667009Y-74104500D01*
X34494834Y-74104500D01*
X34460186Y-74090148D01*
X34445834Y-74055500D01*
X34460186Y-74020852D01*
X34497573Y-73983465D01*
X34551574Y-73877482D01*
X34570181Y-73760000D01*
X34551574Y-73642518D01*
X34533573Y-73607190D01*
X34497577Y-73536541D01*
X34497572Y-73536534D01*
X34413465Y-73452427D01*
X34413458Y-73452422D01*
X34307484Y-73398427D01*
X34307483Y-73398426D01*
X34307482Y-73398426D01*
X34190000Y-73379819D01*
X34072518Y-73398426D01*
X34072516Y-73398426D01*
X34072515Y-73398427D01*
X33966541Y-73452422D01*
X33966534Y-73452427D01*
X33882428Y-73536533D01*
X33882425Y-73536537D01*
X33871621Y-73557744D01*
X33843104Y-73582101D01*
X33827961Y-73584500D01*
X32155089Y-73584500D01*
X32090585Y-73611219D01*
X32090584Y-73611219D01*
X27995272Y-77706533D01*
X26640587Y-79061218D01*
X26615902Y-79085902D01*
X26591218Y-79110586D01*
X26564500Y-79175089D01*
X26564500Y-82517009D01*
X26550148Y-82551657D01*
X26451657Y-82650148D01*
X26417009Y-82664500D01*
X25484500Y-82664500D01*
X25449852Y-82650148D01*
X25435500Y-82615500D01*
X25435500Y-82213994D01*
X25433089Y-82191574D01*
X25433088Y-82191570D01*
X25421883Y-82140064D01*
X25421883Y-82140062D01*
X25398526Y-82093401D01*
X25352771Y-82040597D01*
X25302763Y-82008459D01*
X25302760Y-82008457D01*
X25235723Y-81988773D01*
X25206002Y-81984500D01*
X25206000Y-81984500D01*
X24484072Y-81984500D01*
X24451060Y-81971711D01*
X24436039Y-81958017D01*
X24294365Y-81870295D01*
X24272461Y-81839853D01*
X24271160Y-81828635D01*
X24271160Y-70610000D01*
X31189819Y-70610000D01*
X31208426Y-70727482D01*
X31208426Y-70727483D01*
X31208427Y-70727484D01*
X31262422Y-70833458D01*
X31262427Y-70833465D01*
X31346534Y-70917572D01*
X31346541Y-70917577D01*
X31390185Y-70939814D01*
X31452518Y-70971574D01*
X31570000Y-70990181D01*
X31570000Y-70990180D01*
X31570002Y-70990181D01*
X31570003Y-70990181D01*
X31586370Y-70987587D01*
X31593352Y-70986482D01*
X31629819Y-70995235D01*
X31649415Y-71027211D01*
X31649417Y-71036144D01*
X31649819Y-71036144D01*
X31649819Y-71039998D01*
X31649819Y-71040000D01*
X31668426Y-71157482D01*
X31668426Y-71157483D01*
X31668427Y-71157484D01*
X31722422Y-71263458D01*
X31722427Y-71263465D01*
X31806534Y-71347572D01*
X31806541Y-71347577D01*
X31857798Y-71373693D01*
X31912518Y-71401574D01*
X32030000Y-71420181D01*
X32147482Y-71401574D01*
X32220988Y-71364120D01*
X32253458Y-71347577D01*
X32253460Y-71347575D01*
X32253465Y-71347573D01*
X32337573Y-71263465D01*
X32391574Y-71157482D01*
X32410181Y-71040000D01*
X32391574Y-70922518D01*
X32366084Y-70872492D01*
X32363142Y-70835106D01*
X32387498Y-70806589D01*
X32417407Y-70801851D01*
X32470000Y-70810181D01*
X32587482Y-70791574D01*
X32668844Y-70750118D01*
X32693458Y-70737577D01*
X32693460Y-70737575D01*
X32693465Y-70737573D01*
X32777573Y-70653465D01*
X32781277Y-70646197D01*
X32794120Y-70620988D01*
X32831574Y-70547482D01*
X32850181Y-70430000D01*
X32831574Y-70312518D01*
X32802928Y-70256297D01*
X32777577Y-70206541D01*
X32777572Y-70206534D01*
X32693468Y-70122430D01*
X32693465Y-70122427D01*
X32672252Y-70111618D01*
X32647898Y-70083101D01*
X32645500Y-70067960D01*
X32645500Y-69542989D01*
X32659851Y-69508342D01*
X34292520Y-67875672D01*
X34292523Y-67875671D01*
X34299412Y-67868782D01*
X34299413Y-67868782D01*
X35098782Y-67069413D01*
X35125500Y-67004909D01*
X35125500Y-66935091D01*
X35125500Y-65692039D01*
X35139852Y-65657391D01*
X35152254Y-65648380D01*
X35173465Y-65637573D01*
X35257573Y-65553465D01*
X35260109Y-65548489D01*
X35282534Y-65504476D01*
X35311574Y-65447482D01*
X35330181Y-65330000D01*
X35311574Y-65212518D01*
X35293573Y-65177190D01*
X35257577Y-65106541D01*
X35257572Y-65106534D01*
X35173465Y-65022427D01*
X35173458Y-65022422D01*
X35067484Y-64968427D01*
X35067483Y-64968426D01*
X35067482Y-64968426D01*
X34950000Y-64949819D01*
X34832518Y-64968426D01*
X34832516Y-64968426D01*
X34832515Y-64968427D01*
X34726541Y-65022422D01*
X34726534Y-65022427D01*
X34642427Y-65106534D01*
X34642422Y-65106541D01*
X34588427Y-65212515D01*
X34588426Y-65212516D01*
X34588426Y-65212518D01*
X34569819Y-65330000D01*
X34588426Y-65447482D01*
X34588426Y-65447483D01*
X34588427Y-65447484D01*
X34642422Y-65553458D01*
X34642427Y-65553465D01*
X34726535Y-65637573D01*
X34747744Y-65648379D01*
X34772101Y-65676896D01*
X34774500Y-65692039D01*
X34774500Y-66877009D01*
X34760148Y-66911657D01*
X34051217Y-67620588D01*
X32363695Y-69308109D01*
X32321219Y-69350585D01*
X32294500Y-69415089D01*
X32294500Y-70067960D01*
X32280148Y-70102608D01*
X32267727Y-70111629D01*
X32266727Y-70112138D01*
X32229339Y-70115064D01*
X32200831Y-70090696D01*
X32195500Y-70068469D01*
X32195500Y-67992990D01*
X32209851Y-67958343D01*
X32308406Y-67859787D01*
X32343053Y-67845436D01*
X32350709Y-67846038D01*
X32440000Y-67860181D01*
X32557482Y-67841574D01*
X32649870Y-67794500D01*
X32663458Y-67787577D01*
X32663460Y-67787575D01*
X32663465Y-67787573D01*
X32747573Y-67703465D01*
X32801574Y-67597482D01*
X32820181Y-67480000D01*
X32801574Y-67362518D01*
X32758355Y-67277695D01*
X32747577Y-67256541D01*
X32747572Y-67256534D01*
X32663465Y-67172427D01*
X32663458Y-67172422D01*
X32557484Y-67118427D01*
X32557483Y-67118426D01*
X32557482Y-67118426D01*
X32440000Y-67099819D01*
X32322518Y-67118426D01*
X32322516Y-67118426D01*
X32322515Y-67118427D01*
X32216541Y-67172422D01*
X32216534Y-67172427D01*
X32132427Y-67256534D01*
X32132422Y-67256541D01*
X32078427Y-67362515D01*
X32078426Y-67362516D01*
X32078426Y-67362518D01*
X32076435Y-67375089D01*
X32059819Y-67480000D01*
X32073959Y-67569280D01*
X32065204Y-67605747D01*
X32060210Y-67611593D01*
X31929054Y-67742751D01*
X31920587Y-67751218D01*
X31895902Y-67775902D01*
X31871218Y-67800586D01*
X31844500Y-67865089D01*
X31844500Y-70248469D01*
X31830148Y-70283117D01*
X31795500Y-70297469D01*
X31773273Y-70292138D01*
X31772273Y-70291629D01*
X31747905Y-70263121D01*
X31745500Y-70247960D01*
X31745500Y-67502989D01*
X31759851Y-67468342D01*
X32132520Y-67095672D01*
X32132523Y-67095671D01*
X32139412Y-67088782D01*
X32139413Y-67088782D01*
X32798342Y-66429851D01*
X32832990Y-66415500D01*
X33467961Y-66415500D01*
X33502609Y-66429852D01*
X33511621Y-66442256D01*
X33522425Y-66463462D01*
X33522428Y-66463466D01*
X33606534Y-66547572D01*
X33606541Y-66547577D01*
X33647461Y-66568426D01*
X33712518Y-66601574D01*
X33830000Y-66620181D01*
X33947482Y-66601574D01*
X34020988Y-66564120D01*
X34053458Y-66547577D01*
X34053460Y-66547575D01*
X34053465Y-66547573D01*
X34137573Y-66463465D01*
X34140165Y-66458379D01*
X34171674Y-66396538D01*
X34191574Y-66357482D01*
X34210181Y-66240000D01*
X34191574Y-66122518D01*
X34166000Y-66072326D01*
X34137577Y-66016541D01*
X34137572Y-66016534D01*
X34053465Y-65932427D01*
X34053458Y-65932422D01*
X33947484Y-65878427D01*
X33947483Y-65878426D01*
X33947482Y-65878426D01*
X33830000Y-65859819D01*
X33712518Y-65878426D01*
X33712516Y-65878426D01*
X33712515Y-65878427D01*
X33606541Y-65932422D01*
X33606534Y-65932427D01*
X33522428Y-66016533D01*
X33522425Y-66016537D01*
X33514483Y-66032124D01*
X33513807Y-66033454D01*
X33511621Y-66037744D01*
X33483104Y-66062101D01*
X33467961Y-66064500D01*
X32774909Y-66064500D01*
X32705090Y-66064500D01*
X32686197Y-66072325D01*
X32669348Y-66079304D01*
X32640587Y-66091217D01*
X32615903Y-66115902D01*
X32591218Y-66140587D01*
X31891217Y-66840588D01*
X31463695Y-67268109D01*
X31421219Y-67310585D01*
X31394500Y-67375089D01*
X31394500Y-70247960D01*
X31380148Y-70282608D01*
X31367748Y-70291617D01*
X31346535Y-70302427D01*
X31346531Y-70302430D01*
X31262427Y-70386534D01*
X31262422Y-70386541D01*
X31208427Y-70492515D01*
X31208426Y-70492516D01*
X31208426Y-70492518D01*
X31189819Y-70610000D01*
X24271160Y-70610000D01*
X24271160Y-66930000D01*
X29054819Y-66930000D01*
X29073426Y-67047482D01*
X29073426Y-67047483D01*
X29073427Y-67047484D01*
X29127422Y-67153458D01*
X29127427Y-67153465D01*
X29211535Y-67237573D01*
X29237744Y-67250927D01*
X29262101Y-67279442D01*
X29264500Y-67294586D01*
X29264500Y-68097960D01*
X29250148Y-68132608D01*
X29237748Y-68141617D01*
X29216535Y-68152427D01*
X29216531Y-68152430D01*
X29132427Y-68236534D01*
X29132422Y-68236541D01*
X29078427Y-68342515D01*
X29078426Y-68342516D01*
X29078426Y-68342518D01*
X29059819Y-68460000D01*
X29078426Y-68577482D01*
X29078426Y-68577483D01*
X29078427Y-68577484D01*
X29132422Y-68683458D01*
X29132427Y-68683465D01*
X29216534Y-68767572D01*
X29216541Y-68767577D01*
X29275733Y-68797736D01*
X29322518Y-68821574D01*
X29440000Y-68840181D01*
X29557482Y-68821574D01*
X29643019Y-68777991D01*
X29663458Y-68767577D01*
X29663460Y-68767575D01*
X29663465Y-68767573D01*
X29747573Y-68683465D01*
X29747573Y-68683464D01*
X29750300Y-68680738D01*
X29751767Y-68682205D01*
X29777828Y-68666230D01*
X29814296Y-68674980D01*
X29833896Y-68706954D01*
X29834500Y-68714626D01*
X29834500Y-69377008D01*
X29820148Y-69411656D01*
X29631593Y-69600210D01*
X29596945Y-69614562D01*
X29589280Y-69613959D01*
X29500000Y-69599819D01*
X29382518Y-69618426D01*
X29382516Y-69618426D01*
X29382515Y-69618427D01*
X29276541Y-69672422D01*
X29276534Y-69672427D01*
X29192427Y-69756534D01*
X29192422Y-69756541D01*
X29138427Y-69862515D01*
X29138426Y-69862516D01*
X29138426Y-69862518D01*
X29119819Y-69980000D01*
X29138426Y-70097482D01*
X29138426Y-70097483D01*
X29138427Y-70097484D01*
X29192422Y-70203458D01*
X29192427Y-70203465D01*
X29276534Y-70287572D01*
X29276541Y-70287577D01*
X29325486Y-70312515D01*
X29382518Y-70341574D01*
X29500000Y-70360181D01*
X29617482Y-70341574D01*
X29690988Y-70304120D01*
X29723458Y-70287577D01*
X29723460Y-70287575D01*
X29723465Y-70287573D01*
X29807573Y-70203465D01*
X29813347Y-70192134D01*
X29835380Y-70148890D01*
X29861574Y-70097482D01*
X29880181Y-69980000D01*
X29866039Y-69890717D01*
X29874794Y-69854252D01*
X29879781Y-69848412D01*
X30158782Y-69569413D01*
X30185500Y-69504909D01*
X30185500Y-69435091D01*
X30185500Y-68412990D01*
X30199851Y-68378343D01*
X30318406Y-68259787D01*
X30353053Y-68245436D01*
X30360709Y-68246038D01*
X30450000Y-68260181D01*
X30567482Y-68241574D01*
X30661572Y-68193633D01*
X30673458Y-68187577D01*
X30673460Y-68187575D01*
X30673465Y-68187573D01*
X30757573Y-68103465D01*
X30758320Y-68102000D01*
X30783286Y-68053000D01*
X30811574Y-67997482D01*
X30830181Y-67880000D01*
X30811574Y-67762518D01*
X30781485Y-67703465D01*
X30757577Y-67656541D01*
X30757572Y-67656534D01*
X30673465Y-67572427D01*
X30673458Y-67572422D01*
X30567484Y-67518427D01*
X30567483Y-67518426D01*
X30567482Y-67518426D01*
X30450000Y-67499819D01*
X30332518Y-67518426D01*
X30332516Y-67518426D01*
X30332515Y-67518427D01*
X30226541Y-67572422D01*
X30226534Y-67572427D01*
X30142427Y-67656534D01*
X30142422Y-67656541D01*
X30088427Y-67762515D01*
X30088426Y-67762516D01*
X30088426Y-67762518D01*
X30075905Y-67841572D01*
X30069819Y-67880000D01*
X30083959Y-67969280D01*
X30075204Y-68005747D01*
X30070210Y-68011593D01*
X29949197Y-68132608D01*
X29910587Y-68171218D01*
X29897305Y-68184500D01*
X29861218Y-68220586D01*
X29847290Y-68254212D01*
X29820771Y-68280730D01*
X29783268Y-68280730D01*
X29758361Y-68257706D01*
X29747576Y-68236539D01*
X29747572Y-68236534D01*
X29663468Y-68152430D01*
X29663465Y-68152427D01*
X29642252Y-68141618D01*
X29617898Y-68113101D01*
X29615500Y-68097960D01*
X29615500Y-67289491D01*
X29629852Y-67254843D01*
X29642253Y-67245833D01*
X29658465Y-67237573D01*
X29742573Y-67153465D01*
X29796574Y-67047482D01*
X29815181Y-66930000D01*
X29796574Y-66812518D01*
X29776638Y-66773391D01*
X29742577Y-66706541D01*
X29742572Y-66706534D01*
X29658465Y-66622427D01*
X29658458Y-66622422D01*
X29552484Y-66568427D01*
X29552483Y-66568426D01*
X29552482Y-66568426D01*
X29435000Y-66549819D01*
X29317518Y-66568426D01*
X29317516Y-66568426D01*
X29317515Y-66568427D01*
X29211541Y-66622422D01*
X29211534Y-66622427D01*
X29127427Y-66706534D01*
X29127422Y-66706541D01*
X29073427Y-66812515D01*
X29073426Y-66812516D01*
X29073426Y-66812518D01*
X29054819Y-66930000D01*
X24271160Y-66930000D01*
X24271160Y-64352805D01*
X24271346Y-64348535D01*
X24276925Y-64284768D01*
X24285972Y-64181356D01*
X24287453Y-64172962D01*
X24330328Y-64012947D01*
X24333245Y-64004932D01*
X24403262Y-63854781D01*
X24407519Y-63847408D01*
X24502544Y-63711699D01*
X24508023Y-63705169D01*
X24625169Y-63588023D01*
X24631699Y-63582544D01*
X24767408Y-63487519D01*
X24774781Y-63483262D01*
X24924932Y-63413245D01*
X24932947Y-63410328D01*
X25092962Y-63367453D01*
X25101354Y-63365972D01*
X25268533Y-63351345D01*
X25272804Y-63351160D01*
X49267180Y-63351160D01*
X49271452Y-63351347D01*
G37*
%TD.AperFunction*%
%TD*%
%TA.AperFunction,Conductor*%
%TO.N,/U0TXD*%
G36*
X25263039Y-84459685D02*
G01*
X25308794Y-84512489D01*
X25320000Y-84564000D01*
X25320000Y-85836000D01*
X25300315Y-85903039D01*
X25247511Y-85948794D01*
X25196000Y-85960000D01*
X24395160Y-85960000D01*
X24328121Y-85940315D01*
X24282366Y-85887511D01*
X24271160Y-85836000D01*
X24271160Y-84564000D01*
X24290845Y-84496961D01*
X24343649Y-84451206D01*
X24395160Y-84440000D01*
X25196000Y-84440000D01*
X25263039Y-84459685D01*
G37*
%TD.AperFunction*%
%TD*%
%TA.AperFunction,Conductor*%
%TO.N,GND*%
G36*
X50268840Y-85980000D02*
G01*
X49210000Y-85980000D01*
X49210000Y-84460000D01*
X50268840Y-84460000D01*
X50268840Y-85980000D01*
G37*
%TD.AperFunction*%
%TD*%
%TA.AperFunction,Conductor*%
%TO.N,+3.3V*%
G36*
X50211879Y-82129685D02*
G01*
X50257634Y-82182489D01*
X50268840Y-82234000D01*
X50268840Y-83506000D01*
X50249155Y-83573039D01*
X50196351Y-83618794D01*
X50144840Y-83630000D01*
X49344000Y-83630000D01*
X49276961Y-83610315D01*
X49231206Y-83557511D01*
X49220000Y-83506000D01*
X49220000Y-82234000D01*
X49239685Y-82166961D01*
X49292489Y-82121206D01*
X49344000Y-82110000D01*
X50144840Y-82110000D01*
X50211879Y-82129685D01*
G37*
%TD.AperFunction*%
%TD*%
%TA.AperFunction,Conductor*%
%TO.N,/U0RXD*%
G36*
X25273039Y-82109685D02*
G01*
X25318794Y-82162489D01*
X25330000Y-82214000D01*
X25330000Y-83486000D01*
X25310315Y-83553039D01*
X25257511Y-83598794D01*
X25206000Y-83610000D01*
X24395160Y-83610000D01*
X24328121Y-83590315D01*
X24282366Y-83537511D01*
X24271160Y-83486000D01*
X24271160Y-82214000D01*
X24290845Y-82146961D01*
X24343649Y-82101206D01*
X24395160Y-82090000D01*
X25206000Y-82090000D01*
X25273039Y-82109685D01*
G37*
%TD.AperFunction*%
%TD*%
M02*
