%TF.GenerationSoftware,KiCad,Pcbnew,8.0.3*%
%TF.CreationDate,2024-10-06T18:51:06+08:00*%
%TF.ProjectId,Neko_Wireless_Transmission,4e656b6f-5f57-4697-9265-6c6573735f54,rev?*%
%TF.SameCoordinates,Original*%
%TF.FileFunction,Paste,Top*%
%TF.FilePolarity,Positive*%
%FSLAX46Y46*%
G04 Gerber Fmt 4.6, Leading zero omitted, Abs format (unit mm)*
G04 Created by KiCad (PCBNEW 8.0.3) date 2024-10-06 18:51:06*
%MOMM*%
%LPD*%
G01*
G04 APERTURE LIST*
G04 Aperture macros list*
%AMRoundRect*
0 Rectangle with rounded corners*
0 $1 Rounding radius*
0 $2 $3 $4 $5 $6 $7 $8 $9 X,Y pos of 4 corners*
0 Add a 4 corners polygon primitive as box body*
4,1,4,$2,$3,$4,$5,$6,$7,$8,$9,$2,$3,0*
0 Add four circle primitives for the rounded corners*
1,1,$1+$1,$2,$3*
1,1,$1+$1,$4,$5*
1,1,$1+$1,$6,$7*
1,1,$1+$1,$8,$9*
0 Add four rect primitives between the rounded corners*
20,1,$1+$1,$2,$3,$4,$5,0*
20,1,$1+$1,$4,$5,$6,$7,0*
20,1,$1+$1,$6,$7,$8,$9,0*
20,1,$1+$1,$8,$9,$2,$3,0*%
G04 Aperture macros list end*
%ADD10RoundRect,0.150000X-0.150000X0.512500X-0.150000X-0.512500X0.150000X-0.512500X0.150000X0.512500X0*%
%ADD11RoundRect,0.140000X0.170000X-0.140000X0.170000X0.140000X-0.170000X0.140000X-0.170000X-0.140000X0*%
%ADD12R,0.300000X1.100000*%
%ADD13R,2.300000X3.100000*%
%ADD14RoundRect,0.135000X-0.185000X0.135000X-0.185000X-0.135000X0.185000X-0.135000X0.185000X0.135000X0*%
%ADD15R,1.400000X1.200000*%
%ADD16RoundRect,0.135000X0.185000X-0.135000X0.185000X0.135000X-0.185000X0.135000X-0.185000X-0.135000X0*%
%ADD17RoundRect,0.160000X0.222500X0.160000X-0.222500X0.160000X-0.222500X-0.160000X0.222500X-0.160000X0*%
%ADD18RoundRect,0.225000X0.250000X-0.225000X0.250000X0.225000X-0.250000X0.225000X-0.250000X-0.225000X0*%
%ADD19RoundRect,0.225000X-0.250000X0.225000X-0.250000X-0.225000X0.250000X-0.225000X0.250000X0.225000X0*%
%ADD20RoundRect,0.140000X0.140000X0.170000X-0.140000X0.170000X-0.140000X-0.170000X0.140000X-0.170000X0*%
%ADD21R,0.700000X1.525000*%
%ADD22RoundRect,0.135000X0.135000X0.185000X-0.135000X0.185000X-0.135000X-0.185000X0.135000X-0.185000X0*%
%ADD23RoundRect,0.135000X-0.135000X-0.185000X0.135000X-0.185000X0.135000X0.185000X-0.135000X0.185000X0*%
%ADD24RoundRect,0.150000X-0.150000X0.587500X-0.150000X-0.587500X0.150000X-0.587500X0.150000X0.587500X0*%
%ADD25RoundRect,0.140000X-0.140000X-0.170000X0.140000X-0.170000X0.140000X0.170000X-0.140000X0.170000X0*%
%ADD26RoundRect,0.140000X-0.170000X0.140000X-0.170000X-0.140000X0.170000X-0.140000X0.170000X0.140000X0*%
%ADD27R,0.850000X0.200000*%
%ADD28R,0.200000X0.850000*%
%ADD29R,4.350000X4.350000*%
%ADD30R,1.000000X2.150000*%
%ADD31R,0.650000X1.650000*%
G04 APERTURE END LIST*
D10*
%TO.C,U2*%
X38440000Y-78035000D03*
X36540000Y-78035000D03*
X37490000Y-80310000D03*
%TD*%
D11*
%TO.C,C16*%
X32200000Y-66140000D03*
X32200000Y-65180000D03*
%TD*%
D12*
%TO.C,J1*%
X31520000Y-84510000D03*
X32020000Y-84510000D03*
X32520000Y-84510000D03*
X33020000Y-84510000D03*
X33520000Y-84510000D03*
X34020000Y-84510000D03*
X34520000Y-84510000D03*
X35020000Y-84510000D03*
X35520000Y-84510000D03*
X36020000Y-84510000D03*
X36520000Y-84510000D03*
X37020000Y-84510000D03*
X37520000Y-84510000D03*
X38020000Y-84510000D03*
X38520000Y-84510000D03*
X39020000Y-84510000D03*
X39520000Y-84510000D03*
X40020000Y-84510000D03*
X40520000Y-84510000D03*
X41020000Y-84510000D03*
X41520000Y-84510000D03*
X42020000Y-84510000D03*
X42520000Y-84510000D03*
X43020000Y-84510000D03*
D13*
X29850000Y-86210000D03*
X44690000Y-86210000D03*
%TD*%
D11*
%TO.C,C23*%
X40212855Y-82800000D03*
X40212855Y-81840000D03*
%TD*%
D14*
%TO.C,R3*%
X41281426Y-81810000D03*
X41281426Y-82830000D03*
%TD*%
D11*
%TO.C,C3*%
X45570000Y-68620000D03*
X45570000Y-67660000D03*
%TD*%
D15*
%TO.C,Y1*%
X36310000Y-76080000D03*
X38510000Y-76080000D03*
X38510000Y-74380000D03*
X36310000Y-74380000D03*
%TD*%
D16*
%TO.C,R8*%
X41640000Y-74710000D03*
X41640000Y-73690000D03*
%TD*%
D17*
%TO.C,L1*%
X44480000Y-68590000D03*
X43335000Y-68590000D03*
%TD*%
D11*
%TO.C,C25*%
X36997142Y-82800000D03*
X36997142Y-81840000D03*
%TD*%
D18*
%TO.C,C28*%
X39920000Y-79375000D03*
X39920000Y-77825000D03*
%TD*%
D14*
%TO.C,R7*%
X39144284Y-81810000D03*
X39144284Y-82830000D03*
%TD*%
%TO.C,R4*%
X42360000Y-81810000D03*
X42360000Y-82830000D03*
%TD*%
D18*
%TO.C,C26*%
X46240000Y-79380000D03*
X46240000Y-77830000D03*
%TD*%
D16*
%TO.C,R1*%
X35928571Y-82830000D03*
X35928571Y-81810000D03*
%TD*%
D19*
%TO.C,C30*%
X35060000Y-77825000D03*
X35060000Y-79375000D03*
%TD*%
D20*
%TO.C,C6*%
X44390000Y-67570000D03*
X43430000Y-67570000D03*
%TD*%
D21*
%TO.C,IC3*%
X30730000Y-75140000D03*
X29460000Y-75140000D03*
X28190000Y-75140000D03*
X26920000Y-75140000D03*
X26920000Y-80564000D03*
X28190000Y-80564000D03*
X29460000Y-80564000D03*
X30730000Y-80564000D03*
%TD*%
D22*
%TO.C,R5*%
X42340000Y-66616666D03*
X41320000Y-66616666D03*
%TD*%
D23*
%TO.C,R10*%
X27010000Y-82150000D03*
X28030000Y-82150000D03*
%TD*%
D20*
%TO.C,C29*%
X29910000Y-82150000D03*
X28950000Y-82150000D03*
%TD*%
D24*
%TO.C,Q1*%
X44760000Y-74250000D03*
X42860000Y-74250000D03*
X43810000Y-76125000D03*
%TD*%
D25*
%TO.C,C14*%
X41350000Y-67613332D03*
X42310000Y-67613332D03*
%TD*%
D10*
%TO.C,U1*%
X44760000Y-78040000D03*
X42860000Y-78040000D03*
X43810000Y-80315000D03*
%TD*%
D26*
%TO.C,C12*%
X39930000Y-74750000D03*
X39930000Y-75710000D03*
%TD*%
D20*
%TO.C,C13*%
X42310000Y-68600000D03*
X41350000Y-68600000D03*
%TD*%
D27*
%TO.C,IC2*%
X39700000Y-71130000D03*
X39700000Y-70730000D03*
X39700000Y-70330000D03*
X39700000Y-69930000D03*
X39700000Y-69530000D03*
X39700000Y-69130000D03*
X39700000Y-68730000D03*
X39700000Y-68330000D03*
X39700000Y-67930000D03*
X39700000Y-67530000D03*
X39700000Y-67130000D03*
X39700000Y-66730000D03*
D28*
X38950000Y-65980000D03*
X38550000Y-65980000D03*
X38150000Y-65980000D03*
X37750000Y-65980000D03*
X37350000Y-65980000D03*
X36950000Y-65980000D03*
X36550000Y-65980000D03*
X36150000Y-65980000D03*
X35750000Y-65980000D03*
X35350000Y-65980000D03*
X34950000Y-65980000D03*
X34550000Y-65980000D03*
D27*
X33800000Y-66730000D03*
X33800000Y-67130000D03*
X33800000Y-67530000D03*
X33800000Y-67930000D03*
X33800000Y-68330000D03*
X33800000Y-68730000D03*
X33800000Y-69130000D03*
X33800000Y-69530000D03*
X33800000Y-69930000D03*
X33800000Y-70330000D03*
X33800000Y-70730000D03*
X33800000Y-71130000D03*
D28*
X34550000Y-71880000D03*
X34950000Y-71880000D03*
X35350000Y-71880000D03*
X35750000Y-71880000D03*
X36150000Y-71880000D03*
X36550000Y-71880000D03*
X36950000Y-71880000D03*
X37350000Y-71880000D03*
X37750000Y-71880000D03*
X38150000Y-71880000D03*
X38550000Y-71880000D03*
X38950000Y-71880000D03*
D29*
X36750000Y-68930000D03*
%TD*%
D26*
%TO.C,C4*%
X34900000Y-74760000D03*
X34900000Y-75720000D03*
%TD*%
D30*
%TO.C,ANT1*%
X43810000Y-65490000D03*
X48710000Y-65490000D03*
%TD*%
D16*
%TO.C,R6*%
X45980000Y-74710000D03*
X45980000Y-73690000D03*
%TD*%
%TO.C,R9*%
X38065713Y-82830000D03*
X38065713Y-81810000D03*
%TD*%
D19*
%TO.C,C27*%
X41380000Y-77830000D03*
X41380000Y-79380000D03*
%TD*%
D31*
%TO.C,IC1*%
X26895000Y-73030000D03*
X28165000Y-73030000D03*
X29435000Y-73030000D03*
X30705000Y-73030000D03*
X30705000Y-65830000D03*
X29435000Y-65830000D03*
X28165000Y-65830000D03*
X26895000Y-65830000D03*
%TD*%
D11*
%TO.C,C24*%
X34860000Y-82800000D03*
X34860000Y-81840000D03*
%TD*%
D25*
%TO.C,C21*%
X41350000Y-65620000D03*
X42310000Y-65620000D03*
%TD*%
D20*
%TO.C,C17*%
X27250000Y-64270000D03*
X26290000Y-64270000D03*
%TD*%
M02*
