M48
; DRILL file {KiCad 8.0.3} date 2024-10-06T18:51:09+0800
; FORMAT={-:-/ absolute / inch / decimal}
; #@! TF.CreationDate,2024-10-06T18:51:09+08:00
; #@! TF.GenerationSoftware,Kicad,Pcbnew,8.0.3
; #@! TF.FileFunction,Plated,1,2,PTH
FMAT,2
INCH
; #@! TA.AperFunction,Plated,PTH,ViaDrill
T1C0.0098
; #@! TA.AperFunction,Plated,PTH,ViaDrill
T2C0.0591
%
G90
G05
T1
X1.0476Y-3.0177
X1.0476Y-3.0441
X1.0476Y-3.0705
X1.0614Y-3.3732
X1.0835Y-3.2634
X1.1177Y-3.2646
X1.1343Y-3.1075
X1.1382Y-3.2646
X1.1589Y-2.635
X1.1591Y-2.6953
X1.1614Y-2.7551
X1.1988Y-2.6724
X1.2106Y-2.7941
X1.2106Y-2.8173
X1.211Y-3.213
X1.2138Y-3.2504
X1.2303Y-3.285
X1.2429Y-2.7799
X1.2504Y-2.5878
X1.2512Y-2.6154
X1.2539Y-3.2898
X1.261Y-2.7969
X1.2669Y-3.2661
X1.2772Y-2.6567
X1.2783Y-2.7728
X1.2996Y-3.2898
X1.3049Y-3.2667
X1.327Y-3.3924
X1.3319Y-2.6079
X1.3382Y-3.2114
X1.339Y-3.372
X1.3445Y-3.0681
X1.3449Y-3.0921
X1.3461Y-2.9039
X1.3472Y-3.0402
X1.3547Y-2.8555
X1.3585Y-3.0194
X1.3598Y-3.1602
X1.3697Y-2.7118
X1.3697Y-2.7315
X1.376Y-2.572
X1.3795Y-3.3559
X1.3846Y-3.1606
X1.3913Y-3.3764
X1.4079Y-3.3626
X1.4114Y-2.6366
X1.4118Y-2.6567
X1.4146Y-3.2354
X1.4161Y-2.8768
X1.4358Y-3.1945
X1.4382Y-3.3567
X1.439Y-2.572
X1.4543Y-2.874
X1.4559Y-3.1185
X1.4575Y-3.3702
X1.4772Y-3.3571
X1.478Y-3.0921
X1.4791Y-3.0717
X1.4945Y-2.7094
X1.498Y-3.1953
X1.5165Y-3.3669
X1.5177Y-2.8559
X1.5335Y-3.1819
X1.5358Y-2.5661
X1.5413Y-2.8559
X1.5417Y-3.2067
X1.5701Y-2.5765
X1.5755Y-2.5535
X1.5817Y-2.5971
X1.5831Y-3.1953
X1.5984Y-2.548
X1.6043Y-2.6039
X1.6043Y-3.0012
X1.622Y-2.5461
X1.6228Y-3.2047
X1.6234Y-2.7561
X1.6274Y-3.0061
X1.6339Y-3.3559
X1.6449Y-2.9862
X1.6465Y-2.8469
X1.6622Y-3.3665
X1.663Y-3.0071
X1.6642Y-2.8039
X1.6661Y-2.8606
X1.6701Y-3.1945
X1.6776Y-2.7492
X1.6839Y-2.8291
X1.6874Y-3.1173
X1.6878Y-2.8783
X1.6878Y-3.2366
X1.6933Y-3.1862
X1.6976Y-3.0268
X1.7098Y-2.8028
X1.7114Y-2.7646
X1.8343Y-2.8724
T2
X0.9354Y-3.3539
X0.9358Y-3.2614
X1.9984Y-3.3547
X1.9988Y-3.2622
M30
