%TF.GenerationSoftware,KiCad,Pcbnew,8.0.3*%
%TF.CreationDate,2024-10-06T18:51:10+08:00*%
%TF.ProjectId,Neko_Wireless_Transmission,4e656b6f-5f57-4697-9265-6c6573735f54,rev?*%
%TF.SameCoordinates,Original*%
%TF.FileFunction,Drillmap*%
%TF.FilePolarity,Positive*%
%FSLAX45Y45*%
G04 Gerber Fmt 4.5, Leading zero omitted, Abs format (unit mm)*
G04 Created by KiCad (PCBNEW 8.0.3) date 2024-10-06 18:51:10*
%MOMM*%
%LPD*%
G01*
G04 APERTURE LIST*
%ADD10C,0.050000*%
%ADD11C,0.100000*%
%ADD12C,0.200000*%
G04 APERTURE END LIST*
D10*
X2377066Y-6435066D02*
X2377066Y-8834934D01*
X4926934Y-6285066D02*
X2527066Y-6285066D01*
X5076934Y-8834934D02*
X5076934Y-6435066D01*
X2527066Y-8984934D02*
X4926934Y-8984934D01*
D11*
X5076934Y-8834934D02*
G75*
G02*
X4926934Y-8984934I-150000J0D01*
G01*
X2527066Y-8984934D02*
G75*
G02*
X2377066Y-8834934I0J150000D01*
G01*
X4926934Y-6285066D02*
G75*
G02*
X5076934Y-6435066I0J-150000D01*
G01*
X2377066Y-6435066D02*
G75*
G02*
X2527066Y-6285066I150000J0D01*
G01*
D12*
X2632843Y-9301418D02*
X2632843Y-9101418D01*
X2632843Y-9101418D02*
X2680462Y-9101418D01*
X2680462Y-9101418D02*
X2709033Y-9110942D01*
X2709033Y-9110942D02*
X2728081Y-9129989D01*
X2728081Y-9129989D02*
X2737605Y-9149037D01*
X2737605Y-9149037D02*
X2747129Y-9187132D01*
X2747129Y-9187132D02*
X2747129Y-9215704D01*
X2747129Y-9215704D02*
X2737605Y-9253799D01*
X2737605Y-9253799D02*
X2728081Y-9272846D01*
X2728081Y-9272846D02*
X2709033Y-9291894D01*
X2709033Y-9291894D02*
X2680462Y-9301418D01*
X2680462Y-9301418D02*
X2632843Y-9301418D01*
X2832843Y-9301418D02*
X2832843Y-9168084D01*
X2832843Y-9206180D02*
X2842367Y-9187132D01*
X2842367Y-9187132D02*
X2851890Y-9177608D01*
X2851890Y-9177608D02*
X2870938Y-9168084D01*
X2870938Y-9168084D02*
X2889986Y-9168084D01*
X2956652Y-9301418D02*
X2956652Y-9168084D01*
X2956652Y-9101418D02*
X2947128Y-9110942D01*
X2947128Y-9110942D02*
X2956652Y-9120465D01*
X2956652Y-9120465D02*
X2966176Y-9110942D01*
X2966176Y-9110942D02*
X2956652Y-9101418D01*
X2956652Y-9101418D02*
X2956652Y-9120465D01*
X3080462Y-9301418D02*
X3061414Y-9291894D01*
X3061414Y-9291894D02*
X3051890Y-9272846D01*
X3051890Y-9272846D02*
X3051890Y-9101418D01*
X3185224Y-9301418D02*
X3166176Y-9291894D01*
X3166176Y-9291894D02*
X3156652Y-9272846D01*
X3156652Y-9272846D02*
X3156652Y-9101418D01*
X3413795Y-9301418D02*
X3413795Y-9101418D01*
X3413795Y-9101418D02*
X3480462Y-9244275D01*
X3480462Y-9244275D02*
X3547128Y-9101418D01*
X3547128Y-9101418D02*
X3547128Y-9301418D01*
X3728081Y-9301418D02*
X3728081Y-9196656D01*
X3728081Y-9196656D02*
X3718557Y-9177608D01*
X3718557Y-9177608D02*
X3699509Y-9168084D01*
X3699509Y-9168084D02*
X3661414Y-9168084D01*
X3661414Y-9168084D02*
X3642367Y-9177608D01*
X3728081Y-9291894D02*
X3709033Y-9301418D01*
X3709033Y-9301418D02*
X3661414Y-9301418D01*
X3661414Y-9301418D02*
X3642367Y-9291894D01*
X3642367Y-9291894D02*
X3632843Y-9272846D01*
X3632843Y-9272846D02*
X3632843Y-9253799D01*
X3632843Y-9253799D02*
X3642367Y-9234751D01*
X3642367Y-9234751D02*
X3661414Y-9225227D01*
X3661414Y-9225227D02*
X3709033Y-9225227D01*
X3709033Y-9225227D02*
X3728081Y-9215704D01*
X3823319Y-9168084D02*
X3823319Y-9368084D01*
X3823319Y-9177608D02*
X3842367Y-9168084D01*
X3842367Y-9168084D02*
X3880462Y-9168084D01*
X3880462Y-9168084D02*
X3899509Y-9177608D01*
X3899509Y-9177608D02*
X3909033Y-9187132D01*
X3909033Y-9187132D02*
X3918557Y-9206180D01*
X3918557Y-9206180D02*
X3918557Y-9263323D01*
X3918557Y-9263323D02*
X3909033Y-9282370D01*
X3909033Y-9282370D02*
X3899509Y-9291894D01*
X3899509Y-9291894D02*
X3880462Y-9301418D01*
X3880462Y-9301418D02*
X3842367Y-9301418D01*
X3842367Y-9301418D02*
X3823319Y-9291894D01*
X4004271Y-9282370D02*
X4013795Y-9291894D01*
X4013795Y-9291894D02*
X4004271Y-9301418D01*
X4004271Y-9301418D02*
X3994748Y-9291894D01*
X3994748Y-9291894D02*
X4004271Y-9282370D01*
X4004271Y-9282370D02*
X4004271Y-9301418D01*
X4004271Y-9177608D02*
X4013795Y-9187132D01*
X4013795Y-9187132D02*
X4004271Y-9196656D01*
X4004271Y-9196656D02*
X3994748Y-9187132D01*
X3994748Y-9187132D02*
X4004271Y-9177608D01*
X4004271Y-9177608D02*
X4004271Y-9196656D01*
M02*
