G04 EasyEDA Pro v1.9.28, 2023-01-14 19:19:00*
G04 Gerber Generator version 0.3*%TF.GenerationSoftware,KiCad,Pcbnew,8.0.0*%
%TF.CreationDate,2024-10-10T01:47:14+08:00*%
%TF.ProjectId,Neko_Wireless_Transmission,4e656b6f-5f57-4697-9265-6c6573735f54,rev?*%
%TF.SameCoordinates,Original*%
%TF.FileFunction,Legend,Top*%
%TF.FilePolarity,Positive*%
%FSLAX46Y46*%
G04 Gerber Fmt 4.6, Leading zero omitted, Abs format (unit mm)*
G04 Created by KiCad (PCBNEW 8.0.0) date 2024-10-10 01:47:14*
%MOMM*%
%LPD*%
G01*
G04 APERTURE LIST*
%ADD10C,0.150000*%
%ADD11C,0.254000*%
%ADD12C,0.120000*%
%ADD13C,0.200000*%
G04 APERTURE END LIST*
D10*
X36607142Y-71969580D02*
X36559523Y-72017200D01*
X36559523Y-72017200D02*
X36416666Y-72064819D01*
X36416666Y-72064819D02*
X36321428Y-72064819D01*
X36321428Y-72064819D02*
X36178571Y-72017200D01*
X36178571Y-72017200D02*
X36083333Y-71921961D01*
X36083333Y-71921961D02*
X36035714Y-71826723D01*
X36035714Y-71826723D02*
X35988095Y-71636247D01*
X35988095Y-71636247D02*
X35988095Y-71493390D01*
X35988095Y-71493390D02*
X36035714Y-71302914D01*
X36035714Y-71302914D02*
X36083333Y-71207676D01*
X36083333Y-71207676D02*
X36178571Y-71112438D01*
X36178571Y-71112438D02*
X36321428Y-71064819D01*
X36321428Y-71064819D02*
X36416666Y-71064819D01*
X36416666Y-71064819D02*
X36559523Y-71112438D01*
X36559523Y-71112438D02*
X36607142Y-71160057D01*
X37559523Y-72064819D02*
X36988095Y-72064819D01*
X37273809Y-72064819D02*
X37273809Y-71064819D01*
X37273809Y-71064819D02*
X37178571Y-71207676D01*
X37178571Y-71207676D02*
X37083333Y-71302914D01*
X37083333Y-71302914D02*
X36988095Y-71350533D01*
X38178571Y-71064819D02*
X38273809Y-71064819D01*
X38273809Y-71064819D02*
X38369047Y-71112438D01*
X38369047Y-71112438D02*
X38416666Y-71160057D01*
X38416666Y-71160057D02*
X38464285Y-71255295D01*
X38464285Y-71255295D02*
X38511904Y-71445771D01*
X38511904Y-71445771D02*
X38511904Y-71683866D01*
X38511904Y-71683866D02*
X38464285Y-71874342D01*
X38464285Y-71874342D02*
X38416666Y-71969580D01*
X38416666Y-71969580D02*
X38369047Y-72017200D01*
X38369047Y-72017200D02*
X38273809Y-72064819D01*
X38273809Y-72064819D02*
X38178571Y-72064819D01*
X38178571Y-72064819D02*
X38083333Y-72017200D01*
X38083333Y-72017200D02*
X38035714Y-71969580D01*
X38035714Y-71969580D02*
X37988095Y-71874342D01*
X37988095Y-71874342D02*
X37940476Y-71683866D01*
X37940476Y-71683866D02*
X37940476Y-71445771D01*
X37940476Y-71445771D02*
X37988095Y-71255295D01*
X37988095Y-71255295D02*
X38035714Y-71160057D01*
X38035714Y-71160057D02*
X38083333Y-71112438D01*
X38083333Y-71112438D02*
X38178571Y-71064819D01*
X44427142Y-80569580D02*
X44379523Y-80617200D01*
X44379523Y-80617200D02*
X44236666Y-80664819D01*
X44236666Y-80664819D02*
X44141428Y-80664819D01*
X44141428Y-80664819D02*
X43998571Y-80617200D01*
X43998571Y-80617200D02*
X43903333Y-80521961D01*
X43903333Y-80521961D02*
X43855714Y-80426723D01*
X43855714Y-80426723D02*
X43808095Y-80236247D01*
X43808095Y-80236247D02*
X43808095Y-80093390D01*
X43808095Y-80093390D02*
X43855714Y-79902914D01*
X43855714Y-79902914D02*
X43903333Y-79807676D01*
X43903333Y-79807676D02*
X43998571Y-79712438D01*
X43998571Y-79712438D02*
X44141428Y-79664819D01*
X44141428Y-79664819D02*
X44236666Y-79664819D01*
X44236666Y-79664819D02*
X44379523Y-79712438D01*
X44379523Y-79712438D02*
X44427142Y-79760057D01*
X45379523Y-80664819D02*
X44808095Y-80664819D01*
X45093809Y-80664819D02*
X45093809Y-79664819D01*
X45093809Y-79664819D02*
X44998571Y-79807676D01*
X44998571Y-79807676D02*
X44903333Y-79902914D01*
X44903333Y-79902914D02*
X44808095Y-79950533D01*
X46331904Y-80664819D02*
X45760476Y-80664819D01*
X46046190Y-80664819D02*
X46046190Y-79664819D01*
X46046190Y-79664819D02*
X45950952Y-79807676D01*
X45950952Y-79807676D02*
X45855714Y-79902914D01*
X45855714Y-79902914D02*
X45760476Y-79950533D01*
X39123333Y-67579580D02*
X39075714Y-67627200D01*
X39075714Y-67627200D02*
X38932857Y-67674819D01*
X38932857Y-67674819D02*
X38837619Y-67674819D01*
X38837619Y-67674819D02*
X38694762Y-67627200D01*
X38694762Y-67627200D02*
X38599524Y-67531961D01*
X38599524Y-67531961D02*
X38551905Y-67436723D01*
X38551905Y-67436723D02*
X38504286Y-67246247D01*
X38504286Y-67246247D02*
X38504286Y-67103390D01*
X38504286Y-67103390D02*
X38551905Y-66912914D01*
X38551905Y-66912914D02*
X38599524Y-66817676D01*
X38599524Y-66817676D02*
X38694762Y-66722438D01*
X38694762Y-66722438D02*
X38837619Y-66674819D01*
X38837619Y-66674819D02*
X38932857Y-66674819D01*
X38932857Y-66674819D02*
X39075714Y-66722438D01*
X39075714Y-66722438D02*
X39123333Y-66770057D01*
X40075714Y-67674819D02*
X39504286Y-67674819D01*
X39790000Y-67674819D02*
X39790000Y-66674819D01*
X39790000Y-66674819D02*
X39694762Y-66817676D01*
X39694762Y-66817676D02*
X39599524Y-66912914D01*
X39599524Y-66912914D02*
X39504286Y-66960533D01*
D11*
X33750237Y-85104318D02*
X33750237Y-83834318D01*
X35080714Y-84983365D02*
X35020238Y-85043842D01*
X35020238Y-85043842D02*
X34838809Y-85104318D01*
X34838809Y-85104318D02*
X34717857Y-85104318D01*
X34717857Y-85104318D02*
X34536428Y-85043842D01*
X34536428Y-85043842D02*
X34415476Y-84922889D01*
X34415476Y-84922889D02*
X34354999Y-84801937D01*
X34354999Y-84801937D02*
X34294523Y-84560032D01*
X34294523Y-84560032D02*
X34294523Y-84378603D01*
X34294523Y-84378603D02*
X34354999Y-84136699D01*
X34354999Y-84136699D02*
X34415476Y-84015746D01*
X34415476Y-84015746D02*
X34536428Y-83894794D01*
X34536428Y-83894794D02*
X34717857Y-83834318D01*
X34717857Y-83834318D02*
X34838809Y-83834318D01*
X34838809Y-83834318D02*
X35020238Y-83894794D01*
X35020238Y-83894794D02*
X35080714Y-83955270D01*
X35504047Y-83834318D02*
X36290238Y-83834318D01*
X36290238Y-83834318D02*
X35866904Y-84318127D01*
X35866904Y-84318127D02*
X36048333Y-84318127D01*
X36048333Y-84318127D02*
X36169285Y-84378603D01*
X36169285Y-84378603D02*
X36229761Y-84439080D01*
X36229761Y-84439080D02*
X36290238Y-84560032D01*
X36290238Y-84560032D02*
X36290238Y-84862413D01*
X36290238Y-84862413D02*
X36229761Y-84983365D01*
X36229761Y-84983365D02*
X36169285Y-85043842D01*
X36169285Y-85043842D02*
X36048333Y-85104318D01*
X36048333Y-85104318D02*
X35685476Y-85104318D01*
X35685476Y-85104318D02*
X35564523Y-85043842D01*
X35564523Y-85043842D02*
X35504047Y-84983365D01*
D10*
X35183333Y-67804819D02*
X34850000Y-67328628D01*
X34611905Y-67804819D02*
X34611905Y-66804819D01*
X34611905Y-66804819D02*
X34992857Y-66804819D01*
X34992857Y-66804819D02*
X35088095Y-66852438D01*
X35088095Y-66852438D02*
X35135714Y-66900057D01*
X35135714Y-66900057D02*
X35183333Y-66995295D01*
X35183333Y-66995295D02*
X35183333Y-67138152D01*
X35183333Y-67138152D02*
X35135714Y-67233390D01*
X35135714Y-67233390D02*
X35088095Y-67281009D01*
X35088095Y-67281009D02*
X34992857Y-67328628D01*
X34992857Y-67328628D02*
X34611905Y-67328628D01*
X36040476Y-66804819D02*
X35850000Y-66804819D01*
X35850000Y-66804819D02*
X35754762Y-66852438D01*
X35754762Y-66852438D02*
X35707143Y-66900057D01*
X35707143Y-66900057D02*
X35611905Y-67042914D01*
X35611905Y-67042914D02*
X35564286Y-67233390D01*
X35564286Y-67233390D02*
X35564286Y-67614342D01*
X35564286Y-67614342D02*
X35611905Y-67709580D01*
X35611905Y-67709580D02*
X35659524Y-67757200D01*
X35659524Y-67757200D02*
X35754762Y-67804819D01*
X35754762Y-67804819D02*
X35945238Y-67804819D01*
X35945238Y-67804819D02*
X36040476Y-67757200D01*
X36040476Y-67757200D02*
X36088095Y-67709580D01*
X36088095Y-67709580D02*
X36135714Y-67614342D01*
X36135714Y-67614342D02*
X36135714Y-67376247D01*
X36135714Y-67376247D02*
X36088095Y-67281009D01*
X36088095Y-67281009D02*
X36040476Y-67233390D01*
X36040476Y-67233390D02*
X35945238Y-67185771D01*
X35945238Y-67185771D02*
X35754762Y-67185771D01*
X35754762Y-67185771D02*
X35659524Y-67233390D01*
X35659524Y-67233390D02*
X35611905Y-67281009D01*
X35611905Y-67281009D02*
X35564286Y-67376247D01*
X34717142Y-71009580D02*
X34669523Y-71057200D01*
X34669523Y-71057200D02*
X34526666Y-71104819D01*
X34526666Y-71104819D02*
X34431428Y-71104819D01*
X34431428Y-71104819D02*
X34288571Y-71057200D01*
X34288571Y-71057200D02*
X34193333Y-70961961D01*
X34193333Y-70961961D02*
X34145714Y-70866723D01*
X34145714Y-70866723D02*
X34098095Y-70676247D01*
X34098095Y-70676247D02*
X34098095Y-70533390D01*
X34098095Y-70533390D02*
X34145714Y-70342914D01*
X34145714Y-70342914D02*
X34193333Y-70247676D01*
X34193333Y-70247676D02*
X34288571Y-70152438D01*
X34288571Y-70152438D02*
X34431428Y-70104819D01*
X34431428Y-70104819D02*
X34526666Y-70104819D01*
X34526666Y-70104819D02*
X34669523Y-70152438D01*
X34669523Y-70152438D02*
X34717142Y-70200057D01*
X35669523Y-71104819D02*
X35098095Y-71104819D01*
X35383809Y-71104819D02*
X35383809Y-70104819D01*
X35383809Y-70104819D02*
X35288571Y-70247676D01*
X35288571Y-70247676D02*
X35193333Y-70342914D01*
X35193333Y-70342914D02*
X35098095Y-70390533D01*
X36002857Y-70104819D02*
X36621904Y-70104819D01*
X36621904Y-70104819D02*
X36288571Y-70485771D01*
X36288571Y-70485771D02*
X36431428Y-70485771D01*
X36431428Y-70485771D02*
X36526666Y-70533390D01*
X36526666Y-70533390D02*
X36574285Y-70581009D01*
X36574285Y-70581009D02*
X36621904Y-70676247D01*
X36621904Y-70676247D02*
X36621904Y-70914342D01*
X36621904Y-70914342D02*
X36574285Y-71009580D01*
X36574285Y-71009580D02*
X36526666Y-71057200D01*
X36526666Y-71057200D02*
X36431428Y-71104819D01*
X36431428Y-71104819D02*
X36145714Y-71104819D01*
X36145714Y-71104819D02*
X36050476Y-71057200D01*
X36050476Y-71057200D02*
X36002857Y-71009580D01*
X39123333Y-64459580D02*
X39075714Y-64507200D01*
X39075714Y-64507200D02*
X38932857Y-64554819D01*
X38932857Y-64554819D02*
X38837619Y-64554819D01*
X38837619Y-64554819D02*
X38694762Y-64507200D01*
X38694762Y-64507200D02*
X38599524Y-64411961D01*
X38599524Y-64411961D02*
X38551905Y-64316723D01*
X38551905Y-64316723D02*
X38504286Y-64126247D01*
X38504286Y-64126247D02*
X38504286Y-63983390D01*
X38504286Y-63983390D02*
X38551905Y-63792914D01*
X38551905Y-63792914D02*
X38599524Y-63697676D01*
X38599524Y-63697676D02*
X38694762Y-63602438D01*
X38694762Y-63602438D02*
X38837619Y-63554819D01*
X38837619Y-63554819D02*
X38932857Y-63554819D01*
X38932857Y-63554819D02*
X39075714Y-63602438D01*
X39075714Y-63602438D02*
X39123333Y-63650057D01*
X39980476Y-63554819D02*
X39790000Y-63554819D01*
X39790000Y-63554819D02*
X39694762Y-63602438D01*
X39694762Y-63602438D02*
X39647143Y-63650057D01*
X39647143Y-63650057D02*
X39551905Y-63792914D01*
X39551905Y-63792914D02*
X39504286Y-63983390D01*
X39504286Y-63983390D02*
X39504286Y-64364342D01*
X39504286Y-64364342D02*
X39551905Y-64459580D01*
X39551905Y-64459580D02*
X39599524Y-64507200D01*
X39599524Y-64507200D02*
X39694762Y-64554819D01*
X39694762Y-64554819D02*
X39885238Y-64554819D01*
X39885238Y-64554819D02*
X39980476Y-64507200D01*
X39980476Y-64507200D02*
X40028095Y-64459580D01*
X40028095Y-64459580D02*
X40075714Y-64364342D01*
X40075714Y-64364342D02*
X40075714Y-64126247D01*
X40075714Y-64126247D02*
X40028095Y-64031009D01*
X40028095Y-64031009D02*
X39980476Y-63983390D01*
X39980476Y-63983390D02*
X39885238Y-63935771D01*
X39885238Y-63935771D02*
X39694762Y-63935771D01*
X39694762Y-63935771D02*
X39599524Y-63983390D01*
X39599524Y-63983390D02*
X39551905Y-64031009D01*
X39551905Y-64031009D02*
X39504286Y-64126247D01*
X41017142Y-78939580D02*
X40969523Y-78987200D01*
X40969523Y-78987200D02*
X40826666Y-79034819D01*
X40826666Y-79034819D02*
X40731428Y-79034819D01*
X40731428Y-79034819D02*
X40588571Y-78987200D01*
X40588571Y-78987200D02*
X40493333Y-78891961D01*
X40493333Y-78891961D02*
X40445714Y-78796723D01*
X40445714Y-78796723D02*
X40398095Y-78606247D01*
X40398095Y-78606247D02*
X40398095Y-78463390D01*
X40398095Y-78463390D02*
X40445714Y-78272914D01*
X40445714Y-78272914D02*
X40493333Y-78177676D01*
X40493333Y-78177676D02*
X40588571Y-78082438D01*
X40588571Y-78082438D02*
X40731428Y-78034819D01*
X40731428Y-78034819D02*
X40826666Y-78034819D01*
X40826666Y-78034819D02*
X40969523Y-78082438D01*
X40969523Y-78082438D02*
X41017142Y-78130057D01*
X41969523Y-79034819D02*
X41398095Y-79034819D01*
X41683809Y-79034819D02*
X41683809Y-78034819D01*
X41683809Y-78034819D02*
X41588571Y-78177676D01*
X41588571Y-78177676D02*
X41493333Y-78272914D01*
X41493333Y-78272914D02*
X41398095Y-78320533D01*
X42302857Y-78034819D02*
X42969523Y-78034819D01*
X42969523Y-78034819D02*
X42540952Y-79034819D01*
X34717142Y-71979580D02*
X34669523Y-72027200D01*
X34669523Y-72027200D02*
X34526666Y-72074819D01*
X34526666Y-72074819D02*
X34431428Y-72074819D01*
X34431428Y-72074819D02*
X34288571Y-72027200D01*
X34288571Y-72027200D02*
X34193333Y-71931961D01*
X34193333Y-71931961D02*
X34145714Y-71836723D01*
X34145714Y-71836723D02*
X34098095Y-71646247D01*
X34098095Y-71646247D02*
X34098095Y-71503390D01*
X34098095Y-71503390D02*
X34145714Y-71312914D01*
X34145714Y-71312914D02*
X34193333Y-71217676D01*
X34193333Y-71217676D02*
X34288571Y-71122438D01*
X34288571Y-71122438D02*
X34431428Y-71074819D01*
X34431428Y-71074819D02*
X34526666Y-71074819D01*
X34526666Y-71074819D02*
X34669523Y-71122438D01*
X34669523Y-71122438D02*
X34717142Y-71170057D01*
X35669523Y-72074819D02*
X35098095Y-72074819D01*
X35383809Y-72074819D02*
X35383809Y-71074819D01*
X35383809Y-71074819D02*
X35288571Y-71217676D01*
X35288571Y-71217676D02*
X35193333Y-71312914D01*
X35193333Y-71312914D02*
X35098095Y-71360533D01*
X36526666Y-71408152D02*
X36526666Y-72074819D01*
X36288571Y-71027200D02*
X36050476Y-71741485D01*
X36050476Y-71741485D02*
X36669523Y-71741485D01*
D11*
X44709556Y-76544761D02*
X45314318Y-76544761D01*
X44044318Y-76968094D02*
X44709556Y-76544761D01*
X44709556Y-76544761D02*
X44044318Y-76121427D01*
X45314318Y-75032856D02*
X45314318Y-75758571D01*
X45314318Y-75395714D02*
X44044318Y-75395714D01*
X44044318Y-75395714D02*
X44225746Y-75516666D01*
X44225746Y-75516666D02*
X44346699Y-75637618D01*
X44346699Y-75637618D02*
X44407175Y-75758571D01*
D10*
X31112142Y-66199580D02*
X31064523Y-66247200D01*
X31064523Y-66247200D02*
X30921666Y-66294819D01*
X30921666Y-66294819D02*
X30826428Y-66294819D01*
X30826428Y-66294819D02*
X30683571Y-66247200D01*
X30683571Y-66247200D02*
X30588333Y-66151961D01*
X30588333Y-66151961D02*
X30540714Y-66056723D01*
X30540714Y-66056723D02*
X30493095Y-65866247D01*
X30493095Y-65866247D02*
X30493095Y-65723390D01*
X30493095Y-65723390D02*
X30540714Y-65532914D01*
X30540714Y-65532914D02*
X30588333Y-65437676D01*
X30588333Y-65437676D02*
X30683571Y-65342438D01*
X30683571Y-65342438D02*
X30826428Y-65294819D01*
X30826428Y-65294819D02*
X30921666Y-65294819D01*
X30921666Y-65294819D02*
X31064523Y-65342438D01*
X31064523Y-65342438D02*
X31112142Y-65390057D01*
X31493095Y-65390057D02*
X31540714Y-65342438D01*
X31540714Y-65342438D02*
X31635952Y-65294819D01*
X31635952Y-65294819D02*
X31874047Y-65294819D01*
X31874047Y-65294819D02*
X31969285Y-65342438D01*
X31969285Y-65342438D02*
X32016904Y-65390057D01*
X32016904Y-65390057D02*
X32064523Y-65485295D01*
X32064523Y-65485295D02*
X32064523Y-65580533D01*
X32064523Y-65580533D02*
X32016904Y-65723390D01*
X32016904Y-65723390D02*
X31445476Y-66294819D01*
X31445476Y-66294819D02*
X32064523Y-66294819D01*
X32397857Y-65294819D02*
X33064523Y-65294819D01*
X33064523Y-65294819D02*
X32635952Y-66294819D01*
D11*
X43118809Y-64686461D02*
X43723571Y-64686461D01*
X42997857Y-65049318D02*
X43421190Y-63779318D01*
X43421190Y-63779318D02*
X43844524Y-65049318D01*
X44267856Y-65049318D02*
X44267856Y-63779318D01*
X44267856Y-63779318D02*
X44993571Y-65049318D01*
X44993571Y-65049318D02*
X44993571Y-63779318D01*
X45416904Y-63779318D02*
X46142618Y-63779318D01*
X45779761Y-65049318D02*
X45779761Y-63779318D01*
X47231190Y-65049318D02*
X46505475Y-65049318D01*
X46868332Y-65049318D02*
X46868332Y-63779318D01*
X46868332Y-63779318D02*
X46747380Y-63960746D01*
X46747380Y-63960746D02*
X46626428Y-64081699D01*
X46626428Y-64081699D02*
X46505475Y-64142175D01*
D10*
X39943333Y-69659580D02*
X39895714Y-69707200D01*
X39895714Y-69707200D02*
X39752857Y-69754819D01*
X39752857Y-69754819D02*
X39657619Y-69754819D01*
X39657619Y-69754819D02*
X39514762Y-69707200D01*
X39514762Y-69707200D02*
X39419524Y-69611961D01*
X39419524Y-69611961D02*
X39371905Y-69516723D01*
X39371905Y-69516723D02*
X39324286Y-69326247D01*
X39324286Y-69326247D02*
X39324286Y-69183390D01*
X39324286Y-69183390D02*
X39371905Y-68992914D01*
X39371905Y-68992914D02*
X39419524Y-68897676D01*
X39419524Y-68897676D02*
X39514762Y-68802438D01*
X39514762Y-68802438D02*
X39657619Y-68754819D01*
X39657619Y-68754819D02*
X39752857Y-68754819D01*
X39752857Y-68754819D02*
X39895714Y-68802438D01*
X39895714Y-68802438D02*
X39943333Y-68850057D01*
X40324286Y-68850057D02*
X40371905Y-68802438D01*
X40371905Y-68802438D02*
X40467143Y-68754819D01*
X40467143Y-68754819D02*
X40705238Y-68754819D01*
X40705238Y-68754819D02*
X40800476Y-68802438D01*
X40800476Y-68802438D02*
X40848095Y-68850057D01*
X40848095Y-68850057D02*
X40895714Y-68945295D01*
X40895714Y-68945295D02*
X40895714Y-69040533D01*
X40895714Y-69040533D02*
X40848095Y-69183390D01*
X40848095Y-69183390D02*
X40276667Y-69754819D01*
X40276667Y-69754819D02*
X40895714Y-69754819D01*
X43364819Y-73056666D02*
X43364819Y-73532856D01*
X43364819Y-73532856D02*
X42364819Y-73532856D01*
X42460057Y-72770951D02*
X42412438Y-72723332D01*
X42412438Y-72723332D02*
X42364819Y-72628094D01*
X42364819Y-72628094D02*
X42364819Y-72389999D01*
X42364819Y-72389999D02*
X42412438Y-72294761D01*
X42412438Y-72294761D02*
X42460057Y-72247142D01*
X42460057Y-72247142D02*
X42555295Y-72199523D01*
X42555295Y-72199523D02*
X42650533Y-72199523D01*
X42650533Y-72199523D02*
X42793390Y-72247142D01*
X42793390Y-72247142D02*
X43364819Y-72818570D01*
X43364819Y-72818570D02*
X43364819Y-72199523D01*
X37083333Y-70999580D02*
X37035714Y-71047200D01*
X37035714Y-71047200D02*
X36892857Y-71094819D01*
X36892857Y-71094819D02*
X36797619Y-71094819D01*
X36797619Y-71094819D02*
X36654762Y-71047200D01*
X36654762Y-71047200D02*
X36559524Y-70951961D01*
X36559524Y-70951961D02*
X36511905Y-70856723D01*
X36511905Y-70856723D02*
X36464286Y-70666247D01*
X36464286Y-70666247D02*
X36464286Y-70523390D01*
X36464286Y-70523390D02*
X36511905Y-70332914D01*
X36511905Y-70332914D02*
X36559524Y-70237676D01*
X36559524Y-70237676D02*
X36654762Y-70142438D01*
X36654762Y-70142438D02*
X36797619Y-70094819D01*
X36797619Y-70094819D02*
X36892857Y-70094819D01*
X36892857Y-70094819D02*
X37035714Y-70142438D01*
X37035714Y-70142438D02*
X37083333Y-70190057D01*
X37654762Y-70523390D02*
X37559524Y-70475771D01*
X37559524Y-70475771D02*
X37511905Y-70428152D01*
X37511905Y-70428152D02*
X37464286Y-70332914D01*
X37464286Y-70332914D02*
X37464286Y-70285295D01*
X37464286Y-70285295D02*
X37511905Y-70190057D01*
X37511905Y-70190057D02*
X37559524Y-70142438D01*
X37559524Y-70142438D02*
X37654762Y-70094819D01*
X37654762Y-70094819D02*
X37845238Y-70094819D01*
X37845238Y-70094819D02*
X37940476Y-70142438D01*
X37940476Y-70142438D02*
X37988095Y-70190057D01*
X37988095Y-70190057D02*
X38035714Y-70285295D01*
X38035714Y-70285295D02*
X38035714Y-70332914D01*
X38035714Y-70332914D02*
X37988095Y-70428152D01*
X37988095Y-70428152D02*
X37940476Y-70475771D01*
X37940476Y-70475771D02*
X37845238Y-70523390D01*
X37845238Y-70523390D02*
X37654762Y-70523390D01*
X37654762Y-70523390D02*
X37559524Y-70571009D01*
X37559524Y-70571009D02*
X37511905Y-70618628D01*
X37511905Y-70618628D02*
X37464286Y-70713866D01*
X37464286Y-70713866D02*
X37464286Y-70904342D01*
X37464286Y-70904342D02*
X37511905Y-70999580D01*
X37511905Y-70999580D02*
X37559524Y-71047200D01*
X37559524Y-71047200D02*
X37654762Y-71094819D01*
X37654762Y-71094819D02*
X37845238Y-71094819D01*
X37845238Y-71094819D02*
X37940476Y-71047200D01*
X37940476Y-71047200D02*
X37988095Y-70999580D01*
X37988095Y-70999580D02*
X38035714Y-70904342D01*
X38035714Y-70904342D02*
X38035714Y-70713866D01*
X38035714Y-70713866D02*
X37988095Y-70618628D01*
X37988095Y-70618628D02*
X37940476Y-70571009D01*
X37940476Y-70571009D02*
X37845238Y-70523390D01*
X42744819Y-70136666D02*
X42268628Y-70469999D01*
X42744819Y-70708094D02*
X41744819Y-70708094D01*
X41744819Y-70708094D02*
X41744819Y-70327142D01*
X41744819Y-70327142D02*
X41792438Y-70231904D01*
X41792438Y-70231904D02*
X41840057Y-70184285D01*
X41840057Y-70184285D02*
X41935295Y-70136666D01*
X41935295Y-70136666D02*
X42078152Y-70136666D01*
X42078152Y-70136666D02*
X42173390Y-70184285D01*
X42173390Y-70184285D02*
X42221009Y-70231904D01*
X42221009Y-70231904D02*
X42268628Y-70327142D01*
X42268628Y-70327142D02*
X42268628Y-70708094D01*
X41840057Y-69755713D02*
X41792438Y-69708094D01*
X41792438Y-69708094D02*
X41744819Y-69612856D01*
X41744819Y-69612856D02*
X41744819Y-69374761D01*
X41744819Y-69374761D02*
X41792438Y-69279523D01*
X41792438Y-69279523D02*
X41840057Y-69231904D01*
X41840057Y-69231904D02*
X41935295Y-69184285D01*
X41935295Y-69184285D02*
X42030533Y-69184285D01*
X42030533Y-69184285D02*
X42173390Y-69231904D01*
X42173390Y-69231904D02*
X42744819Y-69803332D01*
X42744819Y-69803332D02*
X42744819Y-69184285D01*
X29705595Y-61844819D02*
X29705595Y-62654342D01*
X29705595Y-62654342D02*
X29753214Y-62749580D01*
X29753214Y-62749580D02*
X29800833Y-62797200D01*
X29800833Y-62797200D02*
X29896071Y-62844819D01*
X29896071Y-62844819D02*
X30086547Y-62844819D01*
X30086547Y-62844819D02*
X30181785Y-62797200D01*
X30181785Y-62797200D02*
X30229404Y-62749580D01*
X30229404Y-62749580D02*
X30277023Y-62654342D01*
X30277023Y-62654342D02*
X30277023Y-61844819D01*
X31277023Y-62844819D02*
X30705595Y-62844819D01*
X30991309Y-62844819D02*
X30991309Y-61844819D01*
X30991309Y-61844819D02*
X30896071Y-61987676D01*
X30896071Y-61987676D02*
X30800833Y-62082914D01*
X30800833Y-62082914D02*
X30705595Y-62130533D01*
X37083333Y-70029580D02*
X37035714Y-70077200D01*
X37035714Y-70077200D02*
X36892857Y-70124819D01*
X36892857Y-70124819D02*
X36797619Y-70124819D01*
X36797619Y-70124819D02*
X36654762Y-70077200D01*
X36654762Y-70077200D02*
X36559524Y-69981961D01*
X36559524Y-69981961D02*
X36511905Y-69886723D01*
X36511905Y-69886723D02*
X36464286Y-69696247D01*
X36464286Y-69696247D02*
X36464286Y-69553390D01*
X36464286Y-69553390D02*
X36511905Y-69362914D01*
X36511905Y-69362914D02*
X36559524Y-69267676D01*
X36559524Y-69267676D02*
X36654762Y-69172438D01*
X36654762Y-69172438D02*
X36797619Y-69124819D01*
X36797619Y-69124819D02*
X36892857Y-69124819D01*
X36892857Y-69124819D02*
X37035714Y-69172438D01*
X37035714Y-69172438D02*
X37083333Y-69220057D01*
X37416667Y-69124819D02*
X38083333Y-69124819D01*
X38083333Y-69124819D02*
X37654762Y-70124819D01*
X34442261Y-62940057D02*
X34347023Y-62892438D01*
X34347023Y-62892438D02*
X34251785Y-62797200D01*
X34251785Y-62797200D02*
X34108928Y-62654342D01*
X34108928Y-62654342D02*
X34013690Y-62606723D01*
X34013690Y-62606723D02*
X33918452Y-62606723D01*
X33966071Y-62844819D02*
X33870833Y-62797200D01*
X33870833Y-62797200D02*
X33775595Y-62701961D01*
X33775595Y-62701961D02*
X33727976Y-62511485D01*
X33727976Y-62511485D02*
X33727976Y-62178152D01*
X33727976Y-62178152D02*
X33775595Y-61987676D01*
X33775595Y-61987676D02*
X33870833Y-61892438D01*
X33870833Y-61892438D02*
X33966071Y-61844819D01*
X33966071Y-61844819D02*
X34156547Y-61844819D01*
X34156547Y-61844819D02*
X34251785Y-61892438D01*
X34251785Y-61892438D02*
X34347023Y-61987676D01*
X34347023Y-61987676D02*
X34394642Y-62178152D01*
X34394642Y-62178152D02*
X34394642Y-62511485D01*
X34394642Y-62511485D02*
X34347023Y-62701961D01*
X34347023Y-62701961D02*
X34251785Y-62797200D01*
X34251785Y-62797200D02*
X34156547Y-62844819D01*
X34156547Y-62844819D02*
X33966071Y-62844819D01*
X35347023Y-62844819D02*
X34775595Y-62844819D01*
X35061309Y-62844819D02*
X35061309Y-61844819D01*
X35061309Y-61844819D02*
X34966071Y-61987676D01*
X34966071Y-61987676D02*
X34870833Y-62082914D01*
X34870833Y-62082914D02*
X34775595Y-62130533D01*
X43307142Y-71059580D02*
X43259523Y-71107200D01*
X43259523Y-71107200D02*
X43116666Y-71154819D01*
X43116666Y-71154819D02*
X43021428Y-71154819D01*
X43021428Y-71154819D02*
X42878571Y-71107200D01*
X42878571Y-71107200D02*
X42783333Y-71011961D01*
X42783333Y-71011961D02*
X42735714Y-70916723D01*
X42735714Y-70916723D02*
X42688095Y-70726247D01*
X42688095Y-70726247D02*
X42688095Y-70583390D01*
X42688095Y-70583390D02*
X42735714Y-70392914D01*
X42735714Y-70392914D02*
X42783333Y-70297676D01*
X42783333Y-70297676D02*
X42878571Y-70202438D01*
X42878571Y-70202438D02*
X43021428Y-70154819D01*
X43021428Y-70154819D02*
X43116666Y-70154819D01*
X43116666Y-70154819D02*
X43259523Y-70202438D01*
X43259523Y-70202438D02*
X43307142Y-70250057D01*
X44259523Y-71154819D02*
X43688095Y-71154819D01*
X43973809Y-71154819D02*
X43973809Y-70154819D01*
X43973809Y-70154819D02*
X43878571Y-70297676D01*
X43878571Y-70297676D02*
X43783333Y-70392914D01*
X43783333Y-70392914D02*
X43688095Y-70440533D01*
X44640476Y-70250057D02*
X44688095Y-70202438D01*
X44688095Y-70202438D02*
X44783333Y-70154819D01*
X44783333Y-70154819D02*
X45021428Y-70154819D01*
X45021428Y-70154819D02*
X45116666Y-70202438D01*
X45116666Y-70202438D02*
X45164285Y-70250057D01*
X45164285Y-70250057D02*
X45211904Y-70345295D01*
X45211904Y-70345295D02*
X45211904Y-70440533D01*
X45211904Y-70440533D02*
X45164285Y-70583390D01*
X45164285Y-70583390D02*
X44592857Y-71154819D01*
X44592857Y-71154819D02*
X45211904Y-71154819D01*
X34122142Y-66199580D02*
X34074523Y-66247200D01*
X34074523Y-66247200D02*
X33931666Y-66294819D01*
X33931666Y-66294819D02*
X33836428Y-66294819D01*
X33836428Y-66294819D02*
X33693571Y-66247200D01*
X33693571Y-66247200D02*
X33598333Y-66151961D01*
X33598333Y-66151961D02*
X33550714Y-66056723D01*
X33550714Y-66056723D02*
X33503095Y-65866247D01*
X33503095Y-65866247D02*
X33503095Y-65723390D01*
X33503095Y-65723390D02*
X33550714Y-65532914D01*
X33550714Y-65532914D02*
X33598333Y-65437676D01*
X33598333Y-65437676D02*
X33693571Y-65342438D01*
X33693571Y-65342438D02*
X33836428Y-65294819D01*
X33836428Y-65294819D02*
X33931666Y-65294819D01*
X33931666Y-65294819D02*
X34074523Y-65342438D01*
X34074523Y-65342438D02*
X34122142Y-65390057D01*
X34503095Y-65390057D02*
X34550714Y-65342438D01*
X34550714Y-65342438D02*
X34645952Y-65294819D01*
X34645952Y-65294819D02*
X34884047Y-65294819D01*
X34884047Y-65294819D02*
X34979285Y-65342438D01*
X34979285Y-65342438D02*
X35026904Y-65390057D01*
X35026904Y-65390057D02*
X35074523Y-65485295D01*
X35074523Y-65485295D02*
X35074523Y-65580533D01*
X35074523Y-65580533D02*
X35026904Y-65723390D01*
X35026904Y-65723390D02*
X34455476Y-66294819D01*
X34455476Y-66294819D02*
X35074523Y-66294819D01*
X35645952Y-65723390D02*
X35550714Y-65675771D01*
X35550714Y-65675771D02*
X35503095Y-65628152D01*
X35503095Y-65628152D02*
X35455476Y-65532914D01*
X35455476Y-65532914D02*
X35455476Y-65485295D01*
X35455476Y-65485295D02*
X35503095Y-65390057D01*
X35503095Y-65390057D02*
X35550714Y-65342438D01*
X35550714Y-65342438D02*
X35645952Y-65294819D01*
X35645952Y-65294819D02*
X35836428Y-65294819D01*
X35836428Y-65294819D02*
X35931666Y-65342438D01*
X35931666Y-65342438D02*
X35979285Y-65390057D01*
X35979285Y-65390057D02*
X36026904Y-65485295D01*
X36026904Y-65485295D02*
X36026904Y-65532914D01*
X36026904Y-65532914D02*
X35979285Y-65628152D01*
X35979285Y-65628152D02*
X35931666Y-65675771D01*
X35931666Y-65675771D02*
X35836428Y-65723390D01*
X35836428Y-65723390D02*
X35645952Y-65723390D01*
X35645952Y-65723390D02*
X35550714Y-65771009D01*
X35550714Y-65771009D02*
X35503095Y-65818628D01*
X35503095Y-65818628D02*
X35455476Y-65913866D01*
X35455476Y-65913866D02*
X35455476Y-66104342D01*
X35455476Y-66104342D02*
X35503095Y-66199580D01*
X35503095Y-66199580D02*
X35550714Y-66247200D01*
X35550714Y-66247200D02*
X35645952Y-66294819D01*
X35645952Y-66294819D02*
X35836428Y-66294819D01*
X35836428Y-66294819D02*
X35931666Y-66247200D01*
X35931666Y-66247200D02*
X35979285Y-66199580D01*
X35979285Y-66199580D02*
X36026904Y-66104342D01*
X36026904Y-66104342D02*
X36026904Y-65913866D01*
X36026904Y-65913866D02*
X35979285Y-65818628D01*
X35979285Y-65818628D02*
X35931666Y-65771009D01*
X35931666Y-65771009D02*
X35836428Y-65723390D01*
X25550595Y-61844819D02*
X25550595Y-62654342D01*
X25550595Y-62654342D02*
X25598214Y-62749580D01*
X25598214Y-62749580D02*
X25645833Y-62797200D01*
X25645833Y-62797200D02*
X25741071Y-62844819D01*
X25741071Y-62844819D02*
X25931547Y-62844819D01*
X25931547Y-62844819D02*
X26026785Y-62797200D01*
X26026785Y-62797200D02*
X26074404Y-62749580D01*
X26074404Y-62749580D02*
X26122023Y-62654342D01*
X26122023Y-62654342D02*
X26122023Y-61844819D01*
X26550595Y-61940057D02*
X26598214Y-61892438D01*
X26598214Y-61892438D02*
X26693452Y-61844819D01*
X26693452Y-61844819D02*
X26931547Y-61844819D01*
X26931547Y-61844819D02*
X27026785Y-61892438D01*
X27026785Y-61892438D02*
X27074404Y-61940057D01*
X27074404Y-61940057D02*
X27122023Y-62035295D01*
X27122023Y-62035295D02*
X27122023Y-62130533D01*
X27122023Y-62130533D02*
X27074404Y-62273390D01*
X27074404Y-62273390D02*
X26502976Y-62844819D01*
X26502976Y-62844819D02*
X27122023Y-62844819D01*
X41689580Y-70612857D02*
X41737200Y-70660476D01*
X41737200Y-70660476D02*
X41784819Y-70803333D01*
X41784819Y-70803333D02*
X41784819Y-70898571D01*
X41784819Y-70898571D02*
X41737200Y-71041428D01*
X41737200Y-71041428D02*
X41641961Y-71136666D01*
X41641961Y-71136666D02*
X41546723Y-71184285D01*
X41546723Y-71184285D02*
X41356247Y-71231904D01*
X41356247Y-71231904D02*
X41213390Y-71231904D01*
X41213390Y-71231904D02*
X41022914Y-71184285D01*
X41022914Y-71184285D02*
X40927676Y-71136666D01*
X40927676Y-71136666D02*
X40832438Y-71041428D01*
X40832438Y-71041428D02*
X40784819Y-70898571D01*
X40784819Y-70898571D02*
X40784819Y-70803333D01*
X40784819Y-70803333D02*
X40832438Y-70660476D01*
X40832438Y-70660476D02*
X40880057Y-70612857D01*
X41784819Y-69660476D02*
X41784819Y-70231904D01*
X41784819Y-69946190D02*
X40784819Y-69946190D01*
X40784819Y-69946190D02*
X40927676Y-70041428D01*
X40927676Y-70041428D02*
X41022914Y-70136666D01*
X41022914Y-70136666D02*
X41070533Y-70231904D01*
X41784819Y-69184285D02*
X41784819Y-68993809D01*
X41784819Y-68993809D02*
X41737200Y-68898571D01*
X41737200Y-68898571D02*
X41689580Y-68850952D01*
X41689580Y-68850952D02*
X41546723Y-68755714D01*
X41546723Y-68755714D02*
X41356247Y-68708095D01*
X41356247Y-68708095D02*
X40975295Y-68708095D01*
X40975295Y-68708095D02*
X40880057Y-68755714D01*
X40880057Y-68755714D02*
X40832438Y-68803333D01*
X40832438Y-68803333D02*
X40784819Y-68898571D01*
X40784819Y-68898571D02*
X40784819Y-69089047D01*
X40784819Y-69089047D02*
X40832438Y-69184285D01*
X40832438Y-69184285D02*
X40880057Y-69231904D01*
X40880057Y-69231904D02*
X40975295Y-69279523D01*
X40975295Y-69279523D02*
X41213390Y-69279523D01*
X41213390Y-69279523D02*
X41308628Y-69231904D01*
X41308628Y-69231904D02*
X41356247Y-69184285D01*
X41356247Y-69184285D02*
X41403866Y-69089047D01*
X41403866Y-69089047D02*
X41403866Y-68898571D01*
X41403866Y-68898571D02*
X41356247Y-68803333D01*
X41356247Y-68803333D02*
X41308628Y-68755714D01*
X41308628Y-68755714D02*
X41213390Y-68708095D01*
X43783333Y-77249580D02*
X43735714Y-77297200D01*
X43735714Y-77297200D02*
X43592857Y-77344819D01*
X43592857Y-77344819D02*
X43497619Y-77344819D01*
X43497619Y-77344819D02*
X43354762Y-77297200D01*
X43354762Y-77297200D02*
X43259524Y-77201961D01*
X43259524Y-77201961D02*
X43211905Y-77106723D01*
X43211905Y-77106723D02*
X43164286Y-76916247D01*
X43164286Y-76916247D02*
X43164286Y-76773390D01*
X43164286Y-76773390D02*
X43211905Y-76582914D01*
X43211905Y-76582914D02*
X43259524Y-76487676D01*
X43259524Y-76487676D02*
X43354762Y-76392438D01*
X43354762Y-76392438D02*
X43497619Y-76344819D01*
X43497619Y-76344819D02*
X43592857Y-76344819D01*
X43592857Y-76344819D02*
X43735714Y-76392438D01*
X43735714Y-76392438D02*
X43783333Y-76440057D01*
X44640476Y-76678152D02*
X44640476Y-77344819D01*
X44402381Y-76297200D02*
X44164286Y-77011485D01*
X44164286Y-77011485D02*
X44783333Y-77011485D01*
D11*
X42270237Y-85104318D02*
X42270237Y-83834318D01*
X43600714Y-84983365D02*
X43540238Y-85043842D01*
X43540238Y-85043842D02*
X43358809Y-85104318D01*
X43358809Y-85104318D02*
X43237857Y-85104318D01*
X43237857Y-85104318D02*
X43056428Y-85043842D01*
X43056428Y-85043842D02*
X42935476Y-84922889D01*
X42935476Y-84922889D02*
X42874999Y-84801937D01*
X42874999Y-84801937D02*
X42814523Y-84560032D01*
X42814523Y-84560032D02*
X42814523Y-84378603D01*
X42814523Y-84378603D02*
X42874999Y-84136699D01*
X42874999Y-84136699D02*
X42935476Y-84015746D01*
X42935476Y-84015746D02*
X43056428Y-83894794D01*
X43056428Y-83894794D02*
X43237857Y-83834318D01*
X43237857Y-83834318D02*
X43358809Y-83834318D01*
X43358809Y-83834318D02*
X43540238Y-83894794D01*
X43540238Y-83894794D02*
X43600714Y-83955270D01*
X44810238Y-85104318D02*
X44084523Y-85104318D01*
X44447380Y-85104318D02*
X44447380Y-83834318D01*
X44447380Y-83834318D02*
X44326428Y-84015746D01*
X44326428Y-84015746D02*
X44205476Y-84136699D01*
X44205476Y-84136699D02*
X44084523Y-84197175D01*
D10*
X44903333Y-81539580D02*
X44855714Y-81587200D01*
X44855714Y-81587200D02*
X44712857Y-81634819D01*
X44712857Y-81634819D02*
X44617619Y-81634819D01*
X44617619Y-81634819D02*
X44474762Y-81587200D01*
X44474762Y-81587200D02*
X44379524Y-81491961D01*
X44379524Y-81491961D02*
X44331905Y-81396723D01*
X44331905Y-81396723D02*
X44284286Y-81206247D01*
X44284286Y-81206247D02*
X44284286Y-81063390D01*
X44284286Y-81063390D02*
X44331905Y-80872914D01*
X44331905Y-80872914D02*
X44379524Y-80777676D01*
X44379524Y-80777676D02*
X44474762Y-80682438D01*
X44474762Y-80682438D02*
X44617619Y-80634819D01*
X44617619Y-80634819D02*
X44712857Y-80634819D01*
X44712857Y-80634819D02*
X44855714Y-80682438D01*
X44855714Y-80682438D02*
X44903333Y-80730057D01*
X45379524Y-81634819D02*
X45570000Y-81634819D01*
X45570000Y-81634819D02*
X45665238Y-81587200D01*
X45665238Y-81587200D02*
X45712857Y-81539580D01*
X45712857Y-81539580D02*
X45808095Y-81396723D01*
X45808095Y-81396723D02*
X45855714Y-81206247D01*
X45855714Y-81206247D02*
X45855714Y-80825295D01*
X45855714Y-80825295D02*
X45808095Y-80730057D01*
X45808095Y-80730057D02*
X45760476Y-80682438D01*
X45760476Y-80682438D02*
X45665238Y-80634819D01*
X45665238Y-80634819D02*
X45474762Y-80634819D01*
X45474762Y-80634819D02*
X45379524Y-80682438D01*
X45379524Y-80682438D02*
X45331905Y-80730057D01*
X45331905Y-80730057D02*
X45284286Y-80825295D01*
X45284286Y-80825295D02*
X45284286Y-81063390D01*
X45284286Y-81063390D02*
X45331905Y-81158628D01*
X45331905Y-81158628D02*
X45379524Y-81206247D01*
X45379524Y-81206247D02*
X45474762Y-81253866D01*
X45474762Y-81253866D02*
X45665238Y-81253866D01*
X45665238Y-81253866D02*
X45760476Y-81206247D01*
X45760476Y-81206247D02*
X45808095Y-81158628D01*
X45808095Y-81158628D02*
X45855714Y-81063390D01*
X33139580Y-70652857D02*
X33187200Y-70700476D01*
X33187200Y-70700476D02*
X33234819Y-70843333D01*
X33234819Y-70843333D02*
X33234819Y-70938571D01*
X33234819Y-70938571D02*
X33187200Y-71081428D01*
X33187200Y-71081428D02*
X33091961Y-71176666D01*
X33091961Y-71176666D02*
X32996723Y-71224285D01*
X32996723Y-71224285D02*
X32806247Y-71271904D01*
X32806247Y-71271904D02*
X32663390Y-71271904D01*
X32663390Y-71271904D02*
X32472914Y-71224285D01*
X32472914Y-71224285D02*
X32377676Y-71176666D01*
X32377676Y-71176666D02*
X32282438Y-71081428D01*
X32282438Y-71081428D02*
X32234819Y-70938571D01*
X32234819Y-70938571D02*
X32234819Y-70843333D01*
X32234819Y-70843333D02*
X32282438Y-70700476D01*
X32282438Y-70700476D02*
X32330057Y-70652857D01*
X32330057Y-70271904D02*
X32282438Y-70224285D01*
X32282438Y-70224285D02*
X32234819Y-70129047D01*
X32234819Y-70129047D02*
X32234819Y-69890952D01*
X32234819Y-69890952D02*
X32282438Y-69795714D01*
X32282438Y-69795714D02*
X32330057Y-69748095D01*
X32330057Y-69748095D02*
X32425295Y-69700476D01*
X32425295Y-69700476D02*
X32520533Y-69700476D01*
X32520533Y-69700476D02*
X32663390Y-69748095D01*
X32663390Y-69748095D02*
X33234819Y-70319523D01*
X33234819Y-70319523D02*
X33234819Y-69700476D01*
X33234819Y-68748095D02*
X33234819Y-69319523D01*
X33234819Y-69033809D02*
X32234819Y-69033809D01*
X32234819Y-69033809D02*
X32377676Y-69129047D01*
X32377676Y-69129047D02*
X32472914Y-69224285D01*
X32472914Y-69224285D02*
X32520533Y-69319523D01*
X42127142Y-82649580D02*
X42079523Y-82697200D01*
X42079523Y-82697200D02*
X41936666Y-82744819D01*
X41936666Y-82744819D02*
X41841428Y-82744819D01*
X41841428Y-82744819D02*
X41698571Y-82697200D01*
X41698571Y-82697200D02*
X41603333Y-82601961D01*
X41603333Y-82601961D02*
X41555714Y-82506723D01*
X41555714Y-82506723D02*
X41508095Y-82316247D01*
X41508095Y-82316247D02*
X41508095Y-82173390D01*
X41508095Y-82173390D02*
X41555714Y-81982914D01*
X41555714Y-81982914D02*
X41603333Y-81887676D01*
X41603333Y-81887676D02*
X41698571Y-81792438D01*
X41698571Y-81792438D02*
X41841428Y-81744819D01*
X41841428Y-81744819D02*
X41936666Y-81744819D01*
X41936666Y-81744819D02*
X42079523Y-81792438D01*
X42079523Y-81792438D02*
X42127142Y-81840057D01*
X43079523Y-82744819D02*
X42508095Y-82744819D01*
X42793809Y-82744819D02*
X42793809Y-81744819D01*
X42793809Y-81744819D02*
X42698571Y-81887676D01*
X42698571Y-81887676D02*
X42603333Y-81982914D01*
X42603333Y-81982914D02*
X42508095Y-82030533D01*
X43936666Y-81744819D02*
X43746190Y-81744819D01*
X43746190Y-81744819D02*
X43650952Y-81792438D01*
X43650952Y-81792438D02*
X43603333Y-81840057D01*
X43603333Y-81840057D02*
X43508095Y-81982914D01*
X43508095Y-81982914D02*
X43460476Y-82173390D01*
X43460476Y-82173390D02*
X43460476Y-82554342D01*
X43460476Y-82554342D02*
X43508095Y-82649580D01*
X43508095Y-82649580D02*
X43555714Y-82697200D01*
X43555714Y-82697200D02*
X43650952Y-82744819D01*
X43650952Y-82744819D02*
X43841428Y-82744819D01*
X43841428Y-82744819D02*
X43936666Y-82697200D01*
X43936666Y-82697200D02*
X43984285Y-82649580D01*
X43984285Y-82649580D02*
X44031904Y-82554342D01*
X44031904Y-82554342D02*
X44031904Y-82316247D01*
X44031904Y-82316247D02*
X43984285Y-82221009D01*
X43984285Y-82221009D02*
X43936666Y-82173390D01*
X43936666Y-82173390D02*
X43841428Y-82125771D01*
X43841428Y-82125771D02*
X43650952Y-82125771D01*
X43650952Y-82125771D02*
X43555714Y-82173390D01*
X43555714Y-82173390D02*
X43508095Y-82221009D01*
X43508095Y-82221009D02*
X43460476Y-82316247D01*
X28102142Y-66209580D02*
X28054523Y-66257200D01*
X28054523Y-66257200D02*
X27911666Y-66304819D01*
X27911666Y-66304819D02*
X27816428Y-66304819D01*
X27816428Y-66304819D02*
X27673571Y-66257200D01*
X27673571Y-66257200D02*
X27578333Y-66161961D01*
X27578333Y-66161961D02*
X27530714Y-66066723D01*
X27530714Y-66066723D02*
X27483095Y-65876247D01*
X27483095Y-65876247D02*
X27483095Y-65733390D01*
X27483095Y-65733390D02*
X27530714Y-65542914D01*
X27530714Y-65542914D02*
X27578333Y-65447676D01*
X27578333Y-65447676D02*
X27673571Y-65352438D01*
X27673571Y-65352438D02*
X27816428Y-65304819D01*
X27816428Y-65304819D02*
X27911666Y-65304819D01*
X27911666Y-65304819D02*
X28054523Y-65352438D01*
X28054523Y-65352438D02*
X28102142Y-65400057D01*
X28483095Y-65400057D02*
X28530714Y-65352438D01*
X28530714Y-65352438D02*
X28625952Y-65304819D01*
X28625952Y-65304819D02*
X28864047Y-65304819D01*
X28864047Y-65304819D02*
X28959285Y-65352438D01*
X28959285Y-65352438D02*
X29006904Y-65400057D01*
X29006904Y-65400057D02*
X29054523Y-65495295D01*
X29054523Y-65495295D02*
X29054523Y-65590533D01*
X29054523Y-65590533D02*
X29006904Y-65733390D01*
X29006904Y-65733390D02*
X28435476Y-66304819D01*
X28435476Y-66304819D02*
X29054523Y-66304819D01*
X29911666Y-65304819D02*
X29721190Y-65304819D01*
X29721190Y-65304819D02*
X29625952Y-65352438D01*
X29625952Y-65352438D02*
X29578333Y-65400057D01*
X29578333Y-65400057D02*
X29483095Y-65542914D01*
X29483095Y-65542914D02*
X29435476Y-65733390D01*
X29435476Y-65733390D02*
X29435476Y-66114342D01*
X29435476Y-66114342D02*
X29483095Y-66209580D01*
X29483095Y-66209580D02*
X29530714Y-66257200D01*
X29530714Y-66257200D02*
X29625952Y-66304819D01*
X29625952Y-66304819D02*
X29816428Y-66304819D01*
X29816428Y-66304819D02*
X29911666Y-66257200D01*
X29911666Y-66257200D02*
X29959285Y-66209580D01*
X29959285Y-66209580D02*
X30006904Y-66114342D01*
X30006904Y-66114342D02*
X30006904Y-65876247D01*
X30006904Y-65876247D02*
X29959285Y-65781009D01*
X29959285Y-65781009D02*
X29911666Y-65733390D01*
X29911666Y-65733390D02*
X29816428Y-65685771D01*
X29816428Y-65685771D02*
X29625952Y-65685771D01*
X29625952Y-65685771D02*
X29530714Y-65733390D01*
X29530714Y-65733390D02*
X29483095Y-65781009D01*
X29483095Y-65781009D02*
X29435476Y-65876247D01*
X40729580Y-70612857D02*
X40777200Y-70660476D01*
X40777200Y-70660476D02*
X40824819Y-70803333D01*
X40824819Y-70803333D02*
X40824819Y-70898571D01*
X40824819Y-70898571D02*
X40777200Y-71041428D01*
X40777200Y-71041428D02*
X40681961Y-71136666D01*
X40681961Y-71136666D02*
X40586723Y-71184285D01*
X40586723Y-71184285D02*
X40396247Y-71231904D01*
X40396247Y-71231904D02*
X40253390Y-71231904D01*
X40253390Y-71231904D02*
X40062914Y-71184285D01*
X40062914Y-71184285D02*
X39967676Y-71136666D01*
X39967676Y-71136666D02*
X39872438Y-71041428D01*
X39872438Y-71041428D02*
X39824819Y-70898571D01*
X39824819Y-70898571D02*
X39824819Y-70803333D01*
X39824819Y-70803333D02*
X39872438Y-70660476D01*
X39872438Y-70660476D02*
X39920057Y-70612857D01*
X39920057Y-70231904D02*
X39872438Y-70184285D01*
X39872438Y-70184285D02*
X39824819Y-70089047D01*
X39824819Y-70089047D02*
X39824819Y-69850952D01*
X39824819Y-69850952D02*
X39872438Y-69755714D01*
X39872438Y-69755714D02*
X39920057Y-69708095D01*
X39920057Y-69708095D02*
X40015295Y-69660476D01*
X40015295Y-69660476D02*
X40110533Y-69660476D01*
X40110533Y-69660476D02*
X40253390Y-69708095D01*
X40253390Y-69708095D02*
X40824819Y-70279523D01*
X40824819Y-70279523D02*
X40824819Y-69660476D01*
X39824819Y-69041428D02*
X39824819Y-68946190D01*
X39824819Y-68946190D02*
X39872438Y-68850952D01*
X39872438Y-68850952D02*
X39920057Y-68803333D01*
X39920057Y-68803333D02*
X40015295Y-68755714D01*
X40015295Y-68755714D02*
X40205771Y-68708095D01*
X40205771Y-68708095D02*
X40443866Y-68708095D01*
X40443866Y-68708095D02*
X40634342Y-68755714D01*
X40634342Y-68755714D02*
X40729580Y-68803333D01*
X40729580Y-68803333D02*
X40777200Y-68850952D01*
X40777200Y-68850952D02*
X40824819Y-68946190D01*
X40824819Y-68946190D02*
X40824819Y-69041428D01*
X40824819Y-69041428D02*
X40777200Y-69136666D01*
X40777200Y-69136666D02*
X40729580Y-69184285D01*
X40729580Y-69184285D02*
X40634342Y-69231904D01*
X40634342Y-69231904D02*
X40443866Y-69279523D01*
X40443866Y-69279523D02*
X40205771Y-69279523D01*
X40205771Y-69279523D02*
X40015295Y-69231904D01*
X40015295Y-69231904D02*
X39920057Y-69184285D01*
X39920057Y-69184285D02*
X39872438Y-69136666D01*
X39872438Y-69136666D02*
X39824819Y-69041428D01*
X37093333Y-66814819D02*
X36760000Y-66338628D01*
X36521905Y-66814819D02*
X36521905Y-65814819D01*
X36521905Y-65814819D02*
X36902857Y-65814819D01*
X36902857Y-65814819D02*
X36998095Y-65862438D01*
X36998095Y-65862438D02*
X37045714Y-65910057D01*
X37045714Y-65910057D02*
X37093333Y-66005295D01*
X37093333Y-66005295D02*
X37093333Y-66148152D01*
X37093333Y-66148152D02*
X37045714Y-66243390D01*
X37045714Y-66243390D02*
X36998095Y-66291009D01*
X36998095Y-66291009D02*
X36902857Y-66338628D01*
X36902857Y-66338628D02*
X36521905Y-66338628D01*
X37664762Y-66243390D02*
X37569524Y-66195771D01*
X37569524Y-66195771D02*
X37521905Y-66148152D01*
X37521905Y-66148152D02*
X37474286Y-66052914D01*
X37474286Y-66052914D02*
X37474286Y-66005295D01*
X37474286Y-66005295D02*
X37521905Y-65910057D01*
X37521905Y-65910057D02*
X37569524Y-65862438D01*
X37569524Y-65862438D02*
X37664762Y-65814819D01*
X37664762Y-65814819D02*
X37855238Y-65814819D01*
X37855238Y-65814819D02*
X37950476Y-65862438D01*
X37950476Y-65862438D02*
X37998095Y-65910057D01*
X37998095Y-65910057D02*
X38045714Y-66005295D01*
X38045714Y-66005295D02*
X38045714Y-66052914D01*
X38045714Y-66052914D02*
X37998095Y-66148152D01*
X37998095Y-66148152D02*
X37950476Y-66195771D01*
X37950476Y-66195771D02*
X37855238Y-66243390D01*
X37855238Y-66243390D02*
X37664762Y-66243390D01*
X37664762Y-66243390D02*
X37569524Y-66291009D01*
X37569524Y-66291009D02*
X37521905Y-66338628D01*
X37521905Y-66338628D02*
X37474286Y-66433866D01*
X37474286Y-66433866D02*
X37474286Y-66624342D01*
X37474286Y-66624342D02*
X37521905Y-66719580D01*
X37521905Y-66719580D02*
X37569524Y-66767200D01*
X37569524Y-66767200D02*
X37664762Y-66814819D01*
X37664762Y-66814819D02*
X37855238Y-66814819D01*
X37855238Y-66814819D02*
X37950476Y-66767200D01*
X37950476Y-66767200D02*
X37998095Y-66719580D01*
X37998095Y-66719580D02*
X38045714Y-66624342D01*
X38045714Y-66624342D02*
X38045714Y-66433866D01*
X38045714Y-66433866D02*
X37998095Y-66338628D01*
X37998095Y-66338628D02*
X37950476Y-66291009D01*
X37950476Y-66291009D02*
X37855238Y-66243390D01*
X34584819Y-70186666D02*
X34108628Y-70519999D01*
X34584819Y-70758094D02*
X33584819Y-70758094D01*
X33584819Y-70758094D02*
X33584819Y-70377142D01*
X33584819Y-70377142D02*
X33632438Y-70281904D01*
X33632438Y-70281904D02*
X33680057Y-70234285D01*
X33680057Y-70234285D02*
X33775295Y-70186666D01*
X33775295Y-70186666D02*
X33918152Y-70186666D01*
X33918152Y-70186666D02*
X34013390Y-70234285D01*
X34013390Y-70234285D02*
X34061009Y-70281904D01*
X34061009Y-70281904D02*
X34108628Y-70377142D01*
X34108628Y-70377142D02*
X34108628Y-70758094D01*
X33584819Y-69281904D02*
X33584819Y-69758094D01*
X33584819Y-69758094D02*
X34061009Y-69805713D01*
X34061009Y-69805713D02*
X34013390Y-69758094D01*
X34013390Y-69758094D02*
X33965771Y-69662856D01*
X33965771Y-69662856D02*
X33965771Y-69424761D01*
X33965771Y-69424761D02*
X34013390Y-69329523D01*
X34013390Y-69329523D02*
X34061009Y-69281904D01*
X34061009Y-69281904D02*
X34156247Y-69234285D01*
X34156247Y-69234285D02*
X34394342Y-69234285D01*
X34394342Y-69234285D02*
X34489580Y-69281904D01*
X34489580Y-69281904D02*
X34537200Y-69329523D01*
X34537200Y-69329523D02*
X34584819Y-69424761D01*
X34584819Y-69424761D02*
X34584819Y-69662856D01*
X34584819Y-69662856D02*
X34537200Y-69758094D01*
X34537200Y-69758094D02*
X34489580Y-69805713D01*
X28264819Y-70973333D02*
X28979104Y-70973333D01*
X28979104Y-70973333D02*
X29121961Y-71020952D01*
X29121961Y-71020952D02*
X29217200Y-71116190D01*
X29217200Y-71116190D02*
X29264819Y-71259047D01*
X29264819Y-71259047D02*
X29264819Y-71354285D01*
X29264819Y-70497142D02*
X28264819Y-70497142D01*
X28264819Y-70497142D02*
X28264819Y-70116190D01*
X28264819Y-70116190D02*
X28312438Y-70020952D01*
X28312438Y-70020952D02*
X28360057Y-69973333D01*
X28360057Y-69973333D02*
X28455295Y-69925714D01*
X28455295Y-69925714D02*
X28598152Y-69925714D01*
X28598152Y-69925714D02*
X28693390Y-69973333D01*
X28693390Y-69973333D02*
X28741009Y-70020952D01*
X28741009Y-70020952D02*
X28788628Y-70116190D01*
X28788628Y-70116190D02*
X28788628Y-70497142D01*
X29264819Y-68973333D02*
X29264819Y-69544761D01*
X29264819Y-69259047D02*
X28264819Y-69259047D01*
X28264819Y-69259047D02*
X28407676Y-69354285D01*
X28407676Y-69354285D02*
X28502914Y-69449523D01*
X28502914Y-69449523D02*
X28550533Y-69544761D01*
X25097142Y-66209580D02*
X25049523Y-66257200D01*
X25049523Y-66257200D02*
X24906666Y-66304819D01*
X24906666Y-66304819D02*
X24811428Y-66304819D01*
X24811428Y-66304819D02*
X24668571Y-66257200D01*
X24668571Y-66257200D02*
X24573333Y-66161961D01*
X24573333Y-66161961D02*
X24525714Y-66066723D01*
X24525714Y-66066723D02*
X24478095Y-65876247D01*
X24478095Y-65876247D02*
X24478095Y-65733390D01*
X24478095Y-65733390D02*
X24525714Y-65542914D01*
X24525714Y-65542914D02*
X24573333Y-65447676D01*
X24573333Y-65447676D02*
X24668571Y-65352438D01*
X24668571Y-65352438D02*
X24811428Y-65304819D01*
X24811428Y-65304819D02*
X24906666Y-65304819D01*
X24906666Y-65304819D02*
X25049523Y-65352438D01*
X25049523Y-65352438D02*
X25097142Y-65400057D01*
X25430476Y-65304819D02*
X26049523Y-65304819D01*
X26049523Y-65304819D02*
X25716190Y-65685771D01*
X25716190Y-65685771D02*
X25859047Y-65685771D01*
X25859047Y-65685771D02*
X25954285Y-65733390D01*
X25954285Y-65733390D02*
X26001904Y-65781009D01*
X26001904Y-65781009D02*
X26049523Y-65876247D01*
X26049523Y-65876247D02*
X26049523Y-66114342D01*
X26049523Y-66114342D02*
X26001904Y-66209580D01*
X26001904Y-66209580D02*
X25954285Y-66257200D01*
X25954285Y-66257200D02*
X25859047Y-66304819D01*
X25859047Y-66304819D02*
X25573333Y-66304819D01*
X25573333Y-66304819D02*
X25478095Y-66257200D01*
X25478095Y-66257200D02*
X25430476Y-66209580D01*
X26668571Y-65304819D02*
X26763809Y-65304819D01*
X26763809Y-65304819D02*
X26859047Y-65352438D01*
X26859047Y-65352438D02*
X26906666Y-65400057D01*
X26906666Y-65400057D02*
X26954285Y-65495295D01*
X26954285Y-65495295D02*
X27001904Y-65685771D01*
X27001904Y-65685771D02*
X27001904Y-65923866D01*
X27001904Y-65923866D02*
X26954285Y-66114342D01*
X26954285Y-66114342D02*
X26906666Y-66209580D01*
X26906666Y-66209580D02*
X26859047Y-66257200D01*
X26859047Y-66257200D02*
X26763809Y-66304819D01*
X26763809Y-66304819D02*
X26668571Y-66304819D01*
X26668571Y-66304819D02*
X26573333Y-66257200D01*
X26573333Y-66257200D02*
X26525714Y-66209580D01*
X26525714Y-66209580D02*
X26478095Y-66114342D01*
X26478095Y-66114342D02*
X26430476Y-65923866D01*
X26430476Y-65923866D02*
X26430476Y-65685771D01*
X26430476Y-65685771D02*
X26478095Y-65495295D01*
X26478095Y-65495295D02*
X26525714Y-65400057D01*
X26525714Y-65400057D02*
X26573333Y-65352438D01*
X26573333Y-65352438D02*
X26668571Y-65304819D01*
X38134819Y-66986666D02*
X38134819Y-67462856D01*
X38134819Y-67462856D02*
X37134819Y-67462856D01*
X38134819Y-66129523D02*
X38134819Y-66700951D01*
X38134819Y-66415237D02*
X37134819Y-66415237D01*
X37134819Y-66415237D02*
X37277676Y-66510475D01*
X37277676Y-66510475D02*
X37372914Y-66605713D01*
X37372914Y-66605713D02*
X37420533Y-66700951D01*
X39943333Y-68689580D02*
X39895714Y-68737200D01*
X39895714Y-68737200D02*
X39752857Y-68784819D01*
X39752857Y-68784819D02*
X39657619Y-68784819D01*
X39657619Y-68784819D02*
X39514762Y-68737200D01*
X39514762Y-68737200D02*
X39419524Y-68641961D01*
X39419524Y-68641961D02*
X39371905Y-68546723D01*
X39371905Y-68546723D02*
X39324286Y-68356247D01*
X39324286Y-68356247D02*
X39324286Y-68213390D01*
X39324286Y-68213390D02*
X39371905Y-68022914D01*
X39371905Y-68022914D02*
X39419524Y-67927676D01*
X39419524Y-67927676D02*
X39514762Y-67832438D01*
X39514762Y-67832438D02*
X39657619Y-67784819D01*
X39657619Y-67784819D02*
X39752857Y-67784819D01*
X39752857Y-67784819D02*
X39895714Y-67832438D01*
X39895714Y-67832438D02*
X39943333Y-67880057D01*
X40848095Y-67784819D02*
X40371905Y-67784819D01*
X40371905Y-67784819D02*
X40324286Y-68261009D01*
X40324286Y-68261009D02*
X40371905Y-68213390D01*
X40371905Y-68213390D02*
X40467143Y-68165771D01*
X40467143Y-68165771D02*
X40705238Y-68165771D01*
X40705238Y-68165771D02*
X40800476Y-68213390D01*
X40800476Y-68213390D02*
X40848095Y-68261009D01*
X40848095Y-68261009D02*
X40895714Y-68356247D01*
X40895714Y-68356247D02*
X40895714Y-68594342D01*
X40895714Y-68594342D02*
X40848095Y-68689580D01*
X40848095Y-68689580D02*
X40800476Y-68737200D01*
X40800476Y-68737200D02*
X40705238Y-68784819D01*
X40705238Y-68784819D02*
X40467143Y-68784819D01*
X40467143Y-68784819D02*
X40371905Y-68737200D01*
X40371905Y-68737200D02*
X40324286Y-68689580D01*
D12*
%TO.C,R1*%
X29846359Y-74308888D02*
X30153641Y-74308888D01*
X29846359Y-75068888D02*
X30153641Y-75068888D01*
%TO.C,C10*%
X37357836Y-70090000D02*
X37142164Y-70090000D01*
X37357836Y-70810000D02*
X37142164Y-70810000D01*
%TO.C,C11*%
X44747836Y-79800000D02*
X44532164Y-79800000D01*
X44747836Y-80520000D02*
X44532164Y-80520000D01*
%TO.C,C1*%
X39182164Y-68020000D02*
X39397836Y-68020000D01*
X39182164Y-68740000D02*
X39397836Y-68740000D01*
%TO.C,C23*%
X29892164Y-78794440D02*
X30107836Y-78794440D01*
X29892164Y-79514440D02*
X30107836Y-79514440D01*
%TO.C,R3*%
X30153641Y-79888328D02*
X29846359Y-79888328D01*
X30153641Y-80648328D02*
X29846359Y-80648328D01*
D13*
%TO.C,IC3*%
X33390000Y-82080000D02*
X36590000Y-82080000D01*
X33390000Y-86980000D02*
X33390000Y-82080000D01*
X36590000Y-82080000D02*
X36590000Y-86980000D01*
X36590000Y-86980000D02*
X33390000Y-86980000D01*
X38465000Y-87135000D02*
X36940000Y-87135000D01*
D12*
%TO.C,R6*%
X35196359Y-68140000D02*
X35503641Y-68140000D01*
X35196359Y-68900000D02*
X35503641Y-68900000D01*
%TO.C,C13*%
X35467836Y-69130000D02*
X35252164Y-69130000D01*
X35467836Y-69850000D02*
X35252164Y-69850000D01*
%TO.C,C6*%
X39182164Y-64900000D02*
X39397836Y-64900000D01*
X39182164Y-65620000D02*
X39397836Y-65620000D01*
%TO.C,C17*%
X42662164Y-79810000D02*
X42877836Y-79810000D01*
X42662164Y-80530000D02*
X42877836Y-80530000D01*
%TO.C,C14*%
X35467836Y-70100000D02*
X35252164Y-70100000D01*
X35467836Y-70820000D02*
X35252164Y-70820000D01*
D13*
%TO.C,Y1*%
X45740000Y-78040000D02*
X45740000Y-78040000D01*
X45740000Y-78240000D02*
X45740000Y-78240000D01*
X45740000Y-78040000D02*
G75*
G02*
X45740000Y-78240000I0J-100000D01*
G01*
X45740000Y-78240000D02*
G75*
G02*
X45740000Y-78040000I0J100000D01*
G01*
D12*
%TO.C,C27*%
X31614420Y-66760000D02*
X31895580Y-66760000D01*
X31614420Y-67780000D02*
X31895580Y-67780000D01*
%TO.C,C29*%
X29892164Y-83260000D02*
X30107836Y-83260000D01*
X29892164Y-83980000D02*
X30107836Y-83980000D01*
D13*
%TO.C,ANT1*%
X41875000Y-63050000D02*
X41875000Y-65900000D01*
X41875000Y-65900000D02*
X47625000Y-65900000D01*
X47625000Y-63050000D02*
X41875000Y-63050000D01*
D12*
%TO.C,J1*%
X24440000Y-68895000D02*
X23840000Y-68895000D01*
X24440000Y-69005000D02*
X24440000Y-68895000D01*
X24440000Y-86435000D02*
X24440000Y-86545000D01*
X24440000Y-86545000D02*
X23840000Y-86545000D01*
X26630000Y-71970000D02*
X27030000Y-72170000D01*
X27030000Y-71770000D02*
X26630000Y-71970000D01*
X27030000Y-72170000D02*
X27030000Y-71770000D01*
%TO.C,C25*%
X29892164Y-75442776D02*
X30107836Y-75442776D01*
X29892164Y-76162776D02*
X30107836Y-76162776D01*
%TO.C,C2*%
X40002164Y-70100000D02*
X40217836Y-70100000D01*
X40002164Y-70820000D02*
X40217836Y-70820000D01*
%TO.C,R10*%
X29846359Y-82126104D02*
X30153641Y-82126104D01*
X29846359Y-82886104D02*
X30153641Y-82886104D01*
%TO.C,L2*%
X41380000Y-72789800D02*
X41380000Y-72990200D01*
X42100000Y-72789800D02*
X42100000Y-72990200D01*
%TO.C,R4*%
X30153641Y-81012216D02*
X29846359Y-81012216D01*
X30153641Y-81772216D02*
X29846359Y-81772216D01*
%TO.C,C8*%
X37357836Y-69120000D02*
X37142164Y-69120000D01*
X37357836Y-69840000D02*
X37142164Y-69840000D01*
%TO.C,R2*%
X43080000Y-70123641D02*
X43080000Y-69816359D01*
X43840000Y-70123641D02*
X43840000Y-69816359D01*
%TO.C,U1*%
X30467500Y-63230000D02*
X29667500Y-63230000D01*
X30467500Y-63230000D02*
X31267500Y-63230000D01*
X30467500Y-66350000D02*
X29667500Y-66350000D01*
X30467500Y-66350000D02*
X31267500Y-66350000D01*
X29167500Y-63280000D02*
X28927500Y-62950000D01*
X29407500Y-62950000D01*
X29167500Y-63280000D01*
G36*
X29167500Y-63280000D02*
G01*
X28927500Y-62950000D01*
X29407500Y-62950000D01*
X29167500Y-63280000D01*
G37*
%TO.C,C7*%
X37357836Y-68150000D02*
X37142164Y-68150000D01*
X37357836Y-68870000D02*
X37142164Y-68870000D01*
%TO.C,Q1*%
X34537500Y-63230000D02*
X33887500Y-63230000D01*
X34537500Y-63230000D02*
X35187500Y-63230000D01*
X34537500Y-66350000D02*
X33887500Y-66350000D01*
X34537500Y-66350000D02*
X35187500Y-66350000D01*
X33375000Y-63280000D02*
X33135000Y-62950000D01*
X33615000Y-62950000D01*
X33375000Y-63280000D01*
G36*
X33375000Y-63280000D02*
G01*
X33135000Y-62950000D01*
X33615000Y-62950000D01*
X33375000Y-63280000D01*
G37*
%TO.C,C12*%
X43842164Y-72570000D02*
X44057836Y-72570000D01*
X43842164Y-73290000D02*
X44057836Y-73290000D01*
D13*
%TO.C,IC2*%
X40260000Y-72555000D02*
G75*
G02*
X40060000Y-72555000I-100000J0D01*
G01*
X40060000Y-72555000D02*
G75*
G02*
X40260000Y-72555000I100000J0D01*
G01*
D12*
%TO.C,C28*%
X34624420Y-66760000D02*
X34905580Y-66760000D01*
X34624420Y-67780000D02*
X34905580Y-67780000D01*
%TO.C,U2*%
X26312500Y-63230000D02*
X25512500Y-63230000D01*
X26312500Y-63230000D02*
X27112500Y-63230000D01*
X26312500Y-66350000D02*
X25512500Y-66350000D01*
X26312500Y-66350000D02*
X27112500Y-66350000D01*
X25012500Y-63280000D02*
X24772500Y-62950000D01*
X25252500Y-62950000D01*
X25012500Y-63280000D01*
G36*
X25012500Y-63280000D02*
G01*
X24772500Y-62950000D01*
X25252500Y-62950000D01*
X25012500Y-63280000D01*
G37*
%TO.C,C19*%
X42130000Y-70077836D02*
X42130000Y-69862164D01*
X42850000Y-70077836D02*
X42850000Y-69862164D01*
%TO.C,C4*%
X43842164Y-77690000D02*
X44057836Y-77690000D01*
X43842164Y-78410000D02*
X44057836Y-78410000D01*
D13*
%TO.C,IC1*%
X41085000Y-81890000D02*
X45935000Y-81890000D01*
X41085000Y-87170000D02*
X41085000Y-81890000D01*
X45935000Y-81890000D02*
X45935000Y-87170000D01*
X45935000Y-87170000D02*
X41085000Y-87170000D01*
X47935000Y-87110000D02*
X46285000Y-87110000D01*
D12*
%TO.C,C9*%
X44747836Y-80770000D02*
X44532164Y-80770000D01*
X44747836Y-81490000D02*
X44532164Y-81490000D01*
%TO.C,C21*%
X33580000Y-70117836D02*
X33580000Y-69902164D01*
X34300000Y-70117836D02*
X34300000Y-69902164D01*
%TO.C,R7*%
X30153641Y-77660552D02*
X29846359Y-77660552D01*
X30153641Y-78420552D02*
X29846359Y-78420552D01*
%TO.C,C16*%
X42877836Y-80770000D02*
X42662164Y-80770000D01*
X42877836Y-81490000D02*
X42662164Y-81490000D01*
%TO.C,C26*%
X28604420Y-66770000D02*
X28885580Y-66770000D01*
X28604420Y-67790000D02*
X28885580Y-67790000D01*
%TO.C,C24*%
X29892164Y-73215000D02*
X30107836Y-73215000D01*
X29892164Y-73935000D02*
X30107836Y-73935000D01*
%TO.C,R9*%
X29846359Y-76536664D02*
X30153641Y-76536664D01*
X29846359Y-77296664D02*
X30153641Y-77296664D01*
%TO.C,C20*%
X41170000Y-70077836D02*
X41170000Y-69862164D01*
X41890000Y-70077836D02*
X41890000Y-69862164D01*
%TO.C,R8*%
X37106359Y-67150000D02*
X37413641Y-67150000D01*
X37106359Y-67910000D02*
X37413641Y-67910000D01*
%TO.C,R5*%
X32580000Y-69866359D02*
X32580000Y-70173641D01*
X33340000Y-69866359D02*
X33340000Y-70173641D01*
%TO.C,JP1*%
X29610000Y-70840000D02*
X29610000Y-69440000D01*
X30310000Y-68740000D02*
X30910000Y-68740000D01*
X30910000Y-71540000D02*
X30310000Y-71540000D01*
X31610000Y-69440000D02*
X31610000Y-70840000D01*
X29610000Y-69440000D02*
G75*
G02*
X30310000Y-68740000I700000J0D01*
G01*
X30310000Y-71540000D02*
G75*
G02*
X29610000Y-70840000I-1J699999D01*
G01*
X30910000Y-68740000D02*
G75*
G02*
X31610000Y-69440000I0J-700000D01*
G01*
X31610000Y-70840000D02*
G75*
G02*
X30910000Y-71540000I-699999J-1D01*
G01*
%TO.C,C30*%
X25599420Y-66770000D02*
X25880580Y-66770000D01*
X25599420Y-67790000D02*
X25880580Y-67790000D01*
%TO.C,L1*%
X38490000Y-66920200D02*
X38490000Y-66719800D01*
X39210000Y-66920200D02*
X39210000Y-66719800D01*
%TO.C,C5*%
X40002164Y-69130000D02*
X40217836Y-69130000D01*
X40002164Y-69850000D02*
X40217836Y-69850000D01*
%TD*%
M02*
