%TF.GenerationSoftware,KiCad,Pcbnew,8.0.0*%
%TF.CreationDate,2024-10-10T01:47:18+08:00*%
%TF.ProjectId,Neko_Wireless_Transmission,4e656b6f-5f57-4697-9265-6c6573735f54,rev?*%
%TF.SameCoordinates,Original*%
%TF.FileFunction,Drillmap*%
%TF.FilePolarity,Positive*%
%FSLAX45Y45*%
G04 Gerber Fmt 4.5, Leading zero omitted, Abs format (unit mm)*
G04 Created by KiCad (PCBNEW 8.0.0) date 2024-10-10 01:47:18*
%MOMM*%
%LPD*%
G01*
G04 APERTURE LIST*
%ADD10C,0.100000*%
%ADD11C,0.050000*%
%ADD12C,0.200000*%
G04 APERTURE END LIST*
D10*
X4872935Y-8629935D02*
G75*
G02*
X4722935Y-8779935I-150005J5D01*
G01*
X4722934Y-6279066D02*
G75*
G02*
X4872934Y-6429066I-4J-150004D01*
G01*
X2527065Y-8780004D02*
G75*
G02*
X2377066Y-8630004I5J150004D01*
G01*
X2377066Y-6435066D02*
G75*
G02*
X2527066Y-6285066I150000J0D01*
G01*
D11*
X2377065Y-8630004D02*
X2377066Y-6435066D01*
X4722935Y-8779935D02*
X2527065Y-8780004D01*
X4872934Y-6429066D02*
X4872935Y-8629935D01*
X2527066Y-6285066D02*
X4722934Y-6279066D01*
D12*
X2632842Y-9096488D02*
X2632842Y-8896488D01*
X2632842Y-8896488D02*
X2680461Y-8896488D01*
X2680461Y-8896488D02*
X2709032Y-8906012D01*
X2709032Y-8906012D02*
X2728080Y-8925059D01*
X2728080Y-8925059D02*
X2737604Y-8944107D01*
X2737604Y-8944107D02*
X2747127Y-8982202D01*
X2747127Y-8982202D02*
X2747127Y-9010774D01*
X2747127Y-9010774D02*
X2737604Y-9048869D01*
X2737604Y-9048869D02*
X2728080Y-9067916D01*
X2728080Y-9067916D02*
X2709032Y-9086964D01*
X2709032Y-9086964D02*
X2680461Y-9096488D01*
X2680461Y-9096488D02*
X2632842Y-9096488D01*
X2832842Y-9096488D02*
X2832842Y-8963154D01*
X2832842Y-9001250D02*
X2842365Y-8982202D01*
X2842365Y-8982202D02*
X2851889Y-8972678D01*
X2851889Y-8972678D02*
X2870937Y-8963154D01*
X2870937Y-8963154D02*
X2889984Y-8963154D01*
X2956651Y-9096488D02*
X2956651Y-8963154D01*
X2956651Y-8896488D02*
X2947127Y-8906012D01*
X2947127Y-8906012D02*
X2956651Y-8915535D01*
X2956651Y-8915535D02*
X2966175Y-8906012D01*
X2966175Y-8906012D02*
X2956651Y-8896488D01*
X2956651Y-8896488D02*
X2956651Y-8915535D01*
X3080461Y-9096488D02*
X3061413Y-9086964D01*
X3061413Y-9086964D02*
X3051889Y-9067916D01*
X3051889Y-9067916D02*
X3051889Y-8896488D01*
X3185222Y-9096488D02*
X3166175Y-9086964D01*
X3166175Y-9086964D02*
X3156651Y-9067916D01*
X3156651Y-9067916D02*
X3156651Y-8896488D01*
X3413794Y-9096488D02*
X3413794Y-8896488D01*
X3413794Y-8896488D02*
X3480461Y-9039345D01*
X3480461Y-9039345D02*
X3547127Y-8896488D01*
X3547127Y-8896488D02*
X3547127Y-9096488D01*
X3728080Y-9096488D02*
X3728080Y-8991726D01*
X3728080Y-8991726D02*
X3718556Y-8972678D01*
X3718556Y-8972678D02*
X3699508Y-8963154D01*
X3699508Y-8963154D02*
X3661413Y-8963154D01*
X3661413Y-8963154D02*
X3642365Y-8972678D01*
X3728080Y-9086964D02*
X3709032Y-9096488D01*
X3709032Y-9096488D02*
X3661413Y-9096488D01*
X3661413Y-9096488D02*
X3642365Y-9086964D01*
X3642365Y-9086964D02*
X3632842Y-9067916D01*
X3632842Y-9067916D02*
X3632842Y-9048869D01*
X3632842Y-9048869D02*
X3642365Y-9029821D01*
X3642365Y-9029821D02*
X3661413Y-9020297D01*
X3661413Y-9020297D02*
X3709032Y-9020297D01*
X3709032Y-9020297D02*
X3728080Y-9010774D01*
X3823318Y-8963154D02*
X3823318Y-9163154D01*
X3823318Y-8972678D02*
X3842365Y-8963154D01*
X3842365Y-8963154D02*
X3880461Y-8963154D01*
X3880461Y-8963154D02*
X3899508Y-8972678D01*
X3899508Y-8972678D02*
X3909032Y-8982202D01*
X3909032Y-8982202D02*
X3918556Y-9001250D01*
X3918556Y-9001250D02*
X3918556Y-9058393D01*
X3918556Y-9058393D02*
X3909032Y-9077440D01*
X3909032Y-9077440D02*
X3899508Y-9086964D01*
X3899508Y-9086964D02*
X3880461Y-9096488D01*
X3880461Y-9096488D02*
X3842365Y-9096488D01*
X3842365Y-9096488D02*
X3823318Y-9086964D01*
X4004270Y-9077440D02*
X4013794Y-9086964D01*
X4013794Y-9086964D02*
X4004270Y-9096488D01*
X4004270Y-9096488D02*
X3994746Y-9086964D01*
X3994746Y-9086964D02*
X4004270Y-9077440D01*
X4004270Y-9077440D02*
X4004270Y-9096488D01*
X4004270Y-8972678D02*
X4013794Y-8982202D01*
X4013794Y-8982202D02*
X4004270Y-8991726D01*
X4004270Y-8991726D02*
X3994746Y-8982202D01*
X3994746Y-8982202D02*
X4004270Y-8972678D01*
X4004270Y-8972678D02*
X4004270Y-8991726D01*
M02*
