M48
; DRILL file {KiCad 8.0.0} date 2024-10-10T01:47:17+0800
; FORMAT={-:-/ absolute / inch / decimal}
; #@! TF.CreationDate,2024-10-10T01:47:17+08:00
; #@! TF.GenerationSoftware,Kicad,Pcbnew,8.0.0
; #@! TF.FileFunction,Plated,1,2,PTH
FMAT,2
INCH
; #@! TA.AperFunction,Plated,PTH,ViaDrill
T1C0.0098
%
G90
G05
T1
X0.9803Y-2.8346
X0.9819Y-2.7097
X0.9882Y-2.689
X0.9882Y-2.8583
X1.002Y-2.8772
X1.0106Y-2.8559
X1.0315Y-2.8449
X1.0374Y-2.5128
X1.0484Y-3.0091
X1.0531Y-2.8449
X1.0571Y-2.5128
X1.0594Y-3.1291
X1.0654Y-3.0091
X1.0778Y-2.5128
X1.1197Y-3.0894
X1.1217Y-2.9331
X1.1259Y-2.8934
X1.1264Y-3.1677
X1.1265Y-2.8717
X1.1302Y-2.8405
X1.1303Y-2.8189
X1.1315Y-2.7972
X1.1319Y-2.6201
X1.1319Y-2.6447
X1.1319Y-2.6683
X1.1324Y-2.7756
X1.1348Y-3.2648
X1.1348Y-3.2844
X1.1494Y-2.8724
X1.1614Y-3.1413
X1.1741Y-2.9488
X1.1795Y-2.8795
X1.1811Y-3.1779
X1.1819Y-3.0925
X1.2008Y-3.0059
X1.2055Y-2.9587
X1.2138Y-3.2936
X1.2138Y-3.2722
X1.2146Y-3.0965
X1.2164Y-3.1377
X1.2165Y-2.874
X1.2322Y-3.122
X1.24Y-2.8713
X1.25Y-2.81
X1.2503Y-3.1101
X1.251Y-2.6211
X1.251Y-2.6457
X1.251Y-2.6693
X1.2567Y-2.97
X1.2697Y-2.5886
X1.2717Y-3.1693
X1.272Y-3.1476
X1.2724Y-2.9857
X1.2882Y-2.9705
X1.2894Y-3.1583
X1.2969Y-3.1296
X1.3055Y-2.8165
X1.3093Y-2.9657
X1.313Y-3.1685
X1.3185Y-3.2598
X1.3185Y-3.3179
X1.3252Y-2.9804
X1.3255Y-3.215
X1.3257Y-2.8244
X1.3259Y-3.0047
X1.3283Y-3.124
X1.3291Y-3.0602
X1.3312Y-3.0908
X1.3412Y-3.145
X1.3473Y-3.1135
X1.3535Y-3.215
X1.3567Y-2.7929
X1.3661Y-2.874
X1.3685Y-3.1409
X1.3883Y-2.6967
X1.3932Y-2.7178
X1.3993Y-3.2166
X1.41Y-2.9646
X1.41Y-3.01
X1.4114Y-2.787
X1.4126Y-3.4205
X1.4222Y-2.5768
X1.4222Y-2.6014
X1.4222Y-2.625
X1.424Y-3.2598
X1.424Y-3.3008
X1.4452Y-3.2552
X1.4461Y-2.9274
X1.4461Y-2.9646
X1.4461Y-3.01
X1.4461Y-3.0528
X1.4518Y-2.7992
X1.4567Y-2.5138
X1.4624Y-3.2264
X1.463Y-2.8457
X1.4685Y-2.6398
X1.4705Y-2.533
X1.4705Y-2.56
X1.4705Y-2.5871
X1.4705Y-2.6142
X1.4715Y-2.7992
X1.4838Y-2.5138
X1.4898Y-2.9274
X1.4898Y-2.9646
X1.4898Y-3.01
X1.4898Y-3.0528
X1.4945Y-3.215
X1.4945Y-3.3295
X1.498Y-2.534
X1.498Y-2.561
X1.498Y-2.5881
X1.498Y-2.6152
X1.5108Y-2.5138
X1.5256Y-2.8996
X1.526Y-3.1468
X1.5267Y-3.236
X1.5271Y-3.3093
X1.53Y-2.9646
X1.53Y-3.01
X1.5379Y-2.5138
X1.5415Y-3.1618
X1.5575Y-3.1465
X1.565Y-2.5138
X1.5733Y-2.6122
X1.5738Y-2.6585
X1.5871Y-2.6358
X1.5876Y-2.5896
X1.592Y-2.5138
X1.5989Y-2.6122
X1.5994Y-2.6585
X1.5994Y-2.7018
X1.6014Y-2.5669
X1.6127Y-2.6358
X1.6132Y-2.6791
X1.6138Y-2.9972
X1.6142Y-2.5915
X1.6161Y-3.3795
X1.6168Y-3.4025
X1.6191Y-2.5138
X1.6275Y-2.6112
X1.628Y-2.5689
X1.628Y-2.6575
X1.628Y-2.7018
X1.6335Y-3.0445
X1.6339Y-2.8646
X1.6412Y-2.6348
X1.6417Y-2.6791
X1.6492Y-3.0594
X1.652Y-3.0319
X1.6535Y-2.6112
X1.654Y-2.6575
X1.655Y-2.7028
X1.6654Y-3.2205
X1.6673Y-2.6348
X1.6688Y-2.6801
X1.6705Y-3.013
X1.6806Y-2.6112
X1.6811Y-2.6575
X1.6821Y-2.7028
X1.6944Y-2.6348
X1.6959Y-2.6801
X1.7077Y-2.6112
X1.7082Y-2.6575
X1.7092Y-2.7028
X1.7215Y-2.6348
X1.7229Y-2.6801
X1.7343Y-2.7943
X1.7347Y-2.6112
X1.7352Y-2.6575
X1.7352Y-2.749
X1.7362Y-2.7028
X1.747Y-2.8159
X1.748Y-2.7254
X1.7485Y-2.6348
X1.749Y-2.7717
X1.75Y-2.6801
X1.7613Y-2.7943
X1.7618Y-2.6112
X1.7623Y-2.6575
X1.7623Y-2.749
X1.7633Y-2.7028
X1.7741Y-2.8159
X1.7751Y-2.7254
X1.7756Y-2.6348
X1.7761Y-2.7717
X1.7771Y-2.6801
X1.7884Y-2.7943
X1.7889Y-2.6112
X1.7894Y-2.6575
X1.7894Y-2.749
X1.7904Y-2.7028
X1.8012Y-2.8159
X1.8022Y-2.7254
X1.8027Y-2.6348
X1.8031Y-2.7717
X1.8041Y-2.6801
X1.8155Y-2.7943
X1.8159Y-2.6112
X1.8164Y-2.6575
X1.8164Y-2.749
X1.8174Y-2.7028
X1.8282Y-2.8159
X1.8292Y-2.7254
X1.8297Y-2.6348
X1.8302Y-2.7717
X1.8312Y-2.6801
X1.8415Y-2.7943
X1.842Y-2.6112
X1.8425Y-2.6575
X1.8425Y-2.749
X1.8435Y-2.7028
X1.8543Y-2.8159
X1.8553Y-2.7254
X1.8558Y-2.6348
X1.8563Y-2.7717
X1.8573Y-2.6801
X1.8671Y-2.7933
X1.8676Y-2.6102
X1.8681Y-2.6565
X1.8681Y-2.748
X1.8691Y-2.7018
X1.8799Y-2.815
X1.8809Y-2.7244
X1.8814Y-2.6339
X1.8819Y-2.7707
X1.8829Y-2.6791
M30
